STARTFONT 2.1
COMMENT
COMMENT Converted from OpenType font "ipam.ttf" by "..\otf2bdf.exe 3.0".
COMMENT
FONT -FreeType-IPAMincho-Medium-R-Normal--16-160-72-72-P-145-ISO10646-1
SIZE 16 72 72
FONTBOUNDINGBOX 17 18 -1 -3
STARTPROPERTIES 19
FOUNDRY "FreeType"
FAMILY_NAME "IPAMincho"
WEIGHT_NAME "Medium"
SLANT "R"
SETWIDTH_NAME "Normal"
ADD_STYLE_NAME ""
PIXEL_SIZE 16
POINT_SIZE 160
RESOLUTION_X 72
RESOLUTION_Y 72
SPACING "P"
AVERAGE_WIDTH 145
CHARSET_REGISTRY "ISO10646"
CHARSET_ENCODING "1"
FONT_ASCENT 14
FONT_DESCENT 1
COPYRIGHT "Copyright(c) Information-technology Promotion Agency, Japan (IPA), 2003-2011. You must accept "http://ipafont.ipa.go.jp/ipa_font_license_v1.html" to use this product."
_OTF_FONTFILE "ipam.ttf"
_OTF_PSNAME "IPAMincho"
ENDPROPERTIES
CHARS 11158
STARTCHAR 0020
ENCODING 32
SWIDTH 500 0
DWIDTH 8 0
BBX 0 0 0 0
BITMAP
ENDCHAR
STARTCHAR 0021
ENCODING 33
SWIDTH 500 0
DWIDTH 8 0
BBX 2 14 3 -1
BITMAP
C0
C0
C0
C0
C0
C0
C0
80
80
80
00
00
C0
C0
ENDCHAR
STARTCHAR 0022
ENCODING 34
SWIDTH 500 0
DWIDTH 8 0
BBX 6 5 1 8
BITMAP
EC
EC
4C
48
90
ENDCHAR
STARTCHAR 0023
ENCODING 35
SWIDTH 500 0
DWIDTH 8 0
BBX 6 14 1 -1
BITMAP
28
28
48
48
FC
48
48
50
50
FC
50
50
90
90
ENDCHAR
STARTCHAR 0024
ENCODING 36
SWIDTH 500 0
DWIDTH 8 0
BBX 7 14 1 -1
BITMAP
10
38
D4
94
90
50
38
14
12
D2
92
54
38
10
ENDCHAR
STARTCHAR 0025
ENCODING 37
SWIDTH 500 0
DWIDTH 8 0
BBX 7 14 0 -1
BITMAP
62
52
54
54
58
68
08
10
14
2A
2A
4A
4A
84
ENDCHAR
STARTCHAR 0026
ENCODING 38
SWIDTH 500 0
DWIDTH 8 0
BBX 7 12 1 0
BITMAP
30
50
50
50
60
4E
A4
A8
98
9A
CC
74
ENDCHAR
STARTCHAR 0027
ENCODING 39
SWIDTH 500 0
DWIDTH 8 0
BBX 3 5 1 8
BITMAP
E0
E0
40
40
80
ENDCHAR
STARTCHAR 0028
ENCODING 40
SWIDTH 500 0
DWIDTH 8 0
BBX 5 14 2 -1
BITMAP
18
20
40
40
80
80
80
80
80
80
40
40
20
10
ENDCHAR
STARTCHAR 0029
ENCODING 41
SWIDTH 500 0
DWIDTH 8 0
BBX 5 14 1 -1
BITMAP
C0
20
10
10
08
08
08
08
08
08
10
10
20
40
ENDCHAR
STARTCHAR 002A
ENCODING 42
SWIDTH 500 0
DWIDTH 8 0
BBX 6 7 1 2
BITMAP
30
B4
68
30
FC
30
30
ENDCHAR
STARTCHAR 002B
ENCODING 43
SWIDTH 500 0
DWIDTH 8 0
BBX 6 8 1 2
BITMAP
10
10
10
10
FC
10
10
10
ENDCHAR
STARTCHAR 002C
ENCODING 44
SWIDTH 500 0
DWIDTH 8 0
BBX 3 5 1 -2
BITMAP
60
60
20
40
80
ENDCHAR
STARTCHAR 002D
ENCODING 45
SWIDTH 500 0
DWIDTH 8 0
BBX 6 1 1 5
BITMAP
FC
ENDCHAR
STARTCHAR 002E
ENCODING 46
SWIDTH 500 0
DWIDTH 8 0
BBX 3 2 1 0
BITMAP
C0
E0
ENDCHAR
STARTCHAR 002F
ENCODING 47
SWIDTH 500 0
DWIDTH 8 0
BBX 6 14 1 -1
BITMAP
04
04
08
08
10
10
10
20
20
40
40
80
80
80
ENDCHAR
STARTCHAR 0030
ENCODING 48
SWIDTH 500 0
DWIDTH 8 0
BBX 6 12 1 0
BITMAP
30
48
84
84
84
84
84
84
84
84
48
30
ENDCHAR
STARTCHAR 0031
ENCODING 49
SWIDTH 500 0
DWIDTH 8 0
BBX 3 12 3 1
BITMAP
40
C0
40
40
40
40
40
40
40
40
40
E0
ENDCHAR
STARTCHAR 0032
ENCODING 50
SWIDTH 500 0
DWIDTH 8 0
BBX 6 11 1 1
BITMAP
78
84
C4
C4
08
08
10
20
44
84
FC
ENDCHAR
STARTCHAR 0033
ENCODING 51
SWIDTH 500 0
DWIDTH 8 0
BBX 6 12 1 0
BITMAP
78
CC
C4
04
08
30
08
04
04
C4
8C
78
ENDCHAR
STARTCHAR 0034
ENCODING 52
SWIDTH 500 0
DWIDTH 8 0
BBX 6 11 1 1
BITMAP
08
18
18
28
48
48
88
88
FC
08
08
ENDCHAR
STARTCHAR 0035
ENCODING 53
SWIDTH 500 0
DWIDTH 8 0
BBX 6 12 1 0
BITMAP
7C
80
80
80
B8
CC
04
04
C4
C4
88
70
ENDCHAR
STARTCHAR 0036
ENCODING 54
SWIDTH 500 0
DWIDTH 8 0
BBX 6 12 1 0
BITMAP
38
4C
40
80
B8
CC
84
84
84
84
48
38
ENDCHAR
STARTCHAR 0037
ENCODING 55
SWIDTH 500 0
DWIDTH 8 0
BBX 6 12 1 0
BITMAP
FC
84
88
08
10
10
10
10
20
20
20
20
ENDCHAR
STARTCHAR 0038
ENCODING 56
SWIDTH 500 0
DWIDTH 8 0
BBX 6 12 1 0
BITMAP
78
CC
84
84
48
30
48
84
84
84
CC
78
ENDCHAR
STARTCHAR 0039
ENCODING 57
SWIDTH 500 0
DWIDTH 8 0
BBX 6 12 1 0
BITMAP
78
48
84
84
84
CC
74
04
04
C8
88
70
ENDCHAR
STARTCHAR 003A
ENCODING 58
SWIDTH 500 0
DWIDTH 8 0
BBX 2 8 3 0
BITMAP
C0
C0
00
00
00
00
C0
C0
ENDCHAR
STARTCHAR 003B
ENCODING 59
SWIDTH 500 0
DWIDTH 8 0
BBX 3 10 2 -2
BITMAP
60
60
00
00
00
00
60
20
40
80
ENDCHAR
STARTCHAR 003C
ENCODING 60
SWIDTH 500 0
DWIDTH 8 0
BBX 5 10 2 2
BITMAP
08
10
20
40
80
80
40
20
18
08
ENDCHAR
STARTCHAR 003D
ENCODING 61
SWIDTH 500 0
DWIDTH 8 0
BBX 6 4 1 4
BITMAP
FC
00
00
FC
ENDCHAR
STARTCHAR 003E
ENCODING 62
SWIDTH 500 0
DWIDTH 8 0
BBX 5 9 1 2
BITMAP
80
40
20
10
08
08
10
20
C0
ENDCHAR
STARTCHAR 003F
ENCODING 63
SWIDTH 500 0
DWIDTH 8 0
BBX 7 12 1 0
BITMAP
7C
86
C2
C2
04
08
10
10
10
00
30
30
ENDCHAR
STARTCHAR 0040
ENCODING 64
SWIDTH 500 0
DWIDTH 8 0
BBX 7 12 1 0
BITMAP
38
44
7A
EA
CA
CA
CA
DA
BC
40
66
38
ENDCHAR
STARTCHAR 0041
ENCODING 65
SWIDTH 500 0
DWIDTH 8 0
BBX 6 11 1 1
BITMAP
20
30
30
50
50
48
48
78
88
84
84
ENDCHAR
STARTCHAR 0042
ENCODING 66
SWIDTH 500 0
DWIDTH 8 0
BBX 7 11 1 1
BITMAP
F8
44
44
44
48
78
44
42
42
42
44
ENDCHAR
STARTCHAR 0043
ENCODING 67
SWIDTH 500 0
DWIDTH 8 0
BBX 6 12 1 0
BITMAP
3C
44
84
80
80
80
80
80
84
44
44
38
ENDCHAR
STARTCHAR 0044
ENCODING 68
SWIDTH 500 0
DWIDTH 8 0
BBX 7 11 1 1
BITMAP
F8
44
42
42
42
42
42
42
44
44
48
ENDCHAR
STARTCHAR 0045
ENCODING 69
SWIDTH 500 0
DWIDTH 8 0
BBX 6 11 1 1
BITMAP
FC
44
44
40
48
78
48
40
44
44
FC
ENDCHAR
STARTCHAR 0046
ENCODING 70
SWIDTH 500 0
DWIDTH 8 0
BBX 6 11 1 1
BITMAP
FC
44
44
40
48
78
48
40
40
40
40
ENDCHAR
STARTCHAR 0047
ENCODING 71
SWIDTH 500 0
DWIDTH 8 0
BBX 7 12 1 0
BITMAP
3C
44
C4
80
80
80
8E
84
84
C4
4C
30
ENDCHAR
STARTCHAR 0048
ENCODING 72
SWIDTH 500 0
DWIDTH 8 0
BBX 8 11 0 1
BITMAP
E7
42
42
42
42
7E
42
42
42
42
42
ENDCHAR
STARTCHAR 0049
ENCODING 73
SWIDTH 500 0
DWIDTH 8 0
BBX 3 11 3 1
BITMAP
E0
40
40
40
40
40
40
40
40
40
40
ENDCHAR
STARTCHAR 004A
ENCODING 74
SWIDTH 500 0
DWIDTH 8 0
BBX 6 12 1 0
BITMAP
1C
08
08
08
08
08
08
08
08
C8
90
70
ENDCHAR
STARTCHAR 004B
ENCODING 75
SWIDTH 500 0
DWIDTH 8 0
BBX 7 11 0 1
BITMAP
EE
48
48
50
50
50
68
48
4C
44
46
ENDCHAR
STARTCHAR 004C
ENCODING 76
SWIDTH 500 0
DWIDTH 8 0
BBX 6 11 1 1
BITMAP
E0
40
40
40
40
40
40
44
44
44
FC
ENDCHAR
STARTCHAR 004D
ENCODING 77
SWIDTH 500 0
DWIDTH 8 0
BBX 8 11 0 1
BITMAP
E3
66
66
66
6A
5A
5A
5A
5A
52
52
ENDCHAR
STARTCHAR 004E
ENCODING 78
SWIDTH 500 0
DWIDTH 8 0
BBX 8 12 0 0
BITMAP
E7
62
62
52
52
4A
4A
46
46
46
42
A0
ENDCHAR
STARTCHAR 004F
ENCODING 79
SWIDTH 500 0
DWIDTH 8 0
BBX 6 12 1 0
BITMAP
30
48
84
84
84
84
84
84
84
84
48
30
ENDCHAR
STARTCHAR 0050
ENCODING 80
SWIDTH 500 0
DWIDTH 8 0
BBX 7 11 1 1
BITMAP
FC
42
42
42
46
7C
40
40
40
40
40
ENDCHAR
STARTCHAR 0051
ENCODING 81
SWIDTH 500 0
DWIDTH 8 0
BBX 7 13 1 -1
BITMAP
70
48
84
84
84
84
84
84
B4
B8
68
3A
0C
ENDCHAR
STARTCHAR 0052
ENCODING 82
SWIDTH 500 0
DWIDTH 8 0
BBX 7 11 1 1
BITMAP
F8
44
44
44
4C
78
50
48
48
44
46
ENDCHAR
STARTCHAR 0053
ENCODING 83
SWIDTH 500 0
DWIDTH 8 0
BBX 6 12 1 0
BITMAP
7C
84
84
80
40
30
08
04
84
84
CC
38
ENDCHAR
STARTCHAR 0054
ENCODING 84
SWIDTH 500 0
DWIDTH 8 0
BBX 6 11 1 1
BITMAP
FC
94
94
10
10
10
10
10
10
10
10
ENDCHAR
STARTCHAR 0055
ENCODING 85
SWIDTH 500 0
DWIDTH 8 0
BBX 8 12 0 0
BITMAP
E7
42
42
42
42
42
42
42
42
42
64
3C
ENDCHAR
STARTCHAR 0056
ENCODING 86
SWIDTH 500 0
DWIDTH 8 0
BBX 8 11 0 0
BITMAP
E7
42
44
24
24
24
28
18
18
18
10
ENDCHAR
STARTCHAR 0057
ENCODING 87
SWIDTH 500 0
DWIDTH 8 0
BBX 8 11 0 1
BITMAP
DB
4A
4A
5A
5A
5A
64
24
24
24
24
ENDCHAR
STARTCHAR 0058
ENCODING 88
SWIDTH 500 0
DWIDTH 8 0
BBX 7 11 0 1
BITMAP
E6
24
24
18
18
18
18
24
24
42
42
ENDCHAR
STARTCHAR 0059
ENCODING 89
SWIDTH 500 0
DWIDTH 8 0
BBX 7 11 1 1
BITMAP
E6
44
64
28
28
10
10
10
10
10
10
ENDCHAR
STARTCHAR 005A
ENCODING 90
SWIDTH 500 0
DWIDTH 8 0
BBX 6 11 1 1
BITMAP
FC
84
08
08
10
20
20
40
44
84
FC
ENDCHAR
STARTCHAR 005B
ENCODING 91
SWIDTH 500 0
DWIDTH 8 0
BBX 4 14 3 -1
BITMAP
F0
80
80
80
80
80
80
80
80
80
80
80
80
F0
ENDCHAR
STARTCHAR 005C
ENCODING 92
SWIDTH 500 0
DWIDTH 8 0
BBX 8 11 0 1
BITMAP
E3
22
24
14
7E
18
08
7E
08
08
08
ENDCHAR
STARTCHAR 005D
ENCODING 93
SWIDTH 500 0
DWIDTH 8 0
BBX 4 14 1 -1
BITMAP
F0
10
10
10
10
10
10
10
10
10
10
10
10
F0
ENDCHAR
STARTCHAR 005E
ENCODING 94
SWIDTH 500 0
DWIDTH 8 0
BBX 4 2 2 10
BITMAP
60
90
ENDCHAR
STARTCHAR 005F
ENCODING 95
SWIDTH 500 0
DWIDTH 8 0
BBX 0 0 0 -2
BITMAP
ENDCHAR
STARTCHAR 0060
ENCODING 96
SWIDTH 500 0
DWIDTH 8 0
BBX 4 2 1 10
BITMAP
E0
10
ENDCHAR
STARTCHAR 0061
ENCODING 97
SWIDTH 500 0
DWIDTH 8 0
BBX 6 8 1 0
BITMAP
F0
88
08
78
88
88
8C
7C
ENDCHAR
STARTCHAR 0062
ENCODING 98
SWIDTH 500 0
DWIDTH 8 0
BBX 6 12 1 0
BITMAP
C0
40
40
40
78
4C
44
44
44
44
4C
B8
ENDCHAR
STARTCHAR 0063
ENCODING 99
SWIDTH 500 0
DWIDTH 8 0
BBX 6 8 1 0
BITMAP
38
4C
80
80
80
84
44
38
ENDCHAR
STARTCHAR 0064
ENCODING 100
SWIDTH 500 0
DWIDTH 8 0
BBX 6 12 1 0
BITMAP
18
08
08
08
78
C8
88
88
88
88
48
74
ENDCHAR
STARTCHAR 0065
ENCODING 101
SWIDTH 500 0
DWIDTH 8 0
BBX 6 8 1 0
BITMAP
70
48
84
FC
80
80
4C
78
ENDCHAR
STARTCHAR 0066
ENCODING 102
SWIDTH 500 0
DWIDTH 8 0
BBX 6 11 1 1
BITMAP
1C
24
20
20
F8
20
20
20
20
20
20
ENDCHAR
STARTCHAR 0067
ENCODING 103
SWIDTH 500 0
DWIDTH 8 0
BBX 7 10 1 -2
BITMAP
7E
88
88
F0
80
C0
B8
84
84
78
ENDCHAR
STARTCHAR 0068
ENCODING 104
SWIDTH 500 0
DWIDTH 8 0
BBX 6 11 1 1
BITMAP
C0
40
40
40
78
44
44
44
44
44
44
ENDCHAR
STARTCHAR 0069
ENCODING 105
SWIDTH 500 0
DWIDTH 8 0
BBX 3 11 3 1
BITMAP
60
60
00
40
C0
40
40
40
40
40
40
ENDCHAR
STARTCHAR 006A
ENCODING 106
SWIDTH 500 0
DWIDTH 8 0
BBX 4 14 1 -2
BITMAP
30
30
00
10
30
10
10
10
10
10
10
10
90
E0
ENDCHAR
STARTCHAR 006B
ENCODING 107
SWIDTH 500 0
DWIDTH 8 0
BBX 7 11 1 1
BITMAP
C0
40
40
40
5E
48
50
70
48
44
46
ENDCHAR
STARTCHAR 006C
ENCODING 108
SWIDTH 500 0
DWIDTH 8 0
BBX 2 12 3 1
BITMAP
40
C0
40
40
40
40
40
40
40
40
40
40
ENDCHAR
STARTCHAR 006D
ENCODING 109
SWIDTH 500 0
DWIDTH 8 0
BBX 7 7 0 2
BITMAP
FE
4A
4A
4A
4A
4A
4A
ENDCHAR
STARTCHAR 006E
ENCODING 110
SWIDTH 500 0
DWIDTH 8 0
BBX 6 7 1 2
BITMAP
B8
44
44
44
44
44
44
ENDCHAR
STARTCHAR 006F
ENCODING 111
SWIDTH 500 0
DWIDTH 8 0
BBX 6 8 1 0
BITMAP
78
C8
84
84
84
84
48
78
ENDCHAR
STARTCHAR 0070
ENCODING 112
SWIDTH 500 0
DWIDTH 8 0
BBX 6 10 1 -1
BITMAP
F8
4C
44
44
44
4C
78
40
40
40
ENDCHAR
STARTCHAR 0071
ENCODING 113
SWIDTH 500 0
DWIDTH 8 0
BBX 5 10 1 -1
BITMAP
78
C8
88
88
88
88
78
08
08
08
ENDCHAR
STARTCHAR 0072
ENCODING 114
SWIDTH 500 0
DWIDTH 8 0
BBX 6 7 2 2
BITMAP
BC
60
40
40
40
40
40
ENDCHAR
STARTCHAR 0073
ENCODING 115
SWIDTH 500 0
DWIDTH 8 0
BBX 5 8 1 0
BITMAP
78
88
80
40
30
88
88
70
ENDCHAR
STARTCHAR 0074
ENCODING 116
SWIDTH 500 0
DWIDTH 8 0
BBX 6 10 1 1
BITMAP
20
60
F8
20
20
20
20
20
2C
38
ENDCHAR
STARTCHAR 0075
ENCODING 117
SWIDTH 500 0
DWIDTH 8 0
BBX 7 8 1 1
BITMAP
CC
44
44
44
44
44
4C
32
ENDCHAR
STARTCHAR 0076
ENCODING 118
SWIDTH 500 0
DWIDTH 8 0
BBX 8 7 0 0
BITMAP
E7
44
24
24
18
18
18
ENDCHAR
STARTCHAR 0077
ENCODING 119
SWIDTH 500 0
DWIDTH 8 0
BBX 8 7 0 0
BITMAP
DB
4A
4A
5A
3C
24
24
ENDCHAR
STARTCHAR 0078
ENCODING 120
SWIDTH 500 0
DWIDTH 8 0
BBX 6 7 1 1
BITMAP
CC
48
30
10
70
88
84
ENDCHAR
STARTCHAR 0079
ENCODING 121
SWIDTH 500 0
DWIDTH 8 0
BBX 8 10 0 -2
BITMAP
E7
22
24
14
18
18
08
10
50
60
ENDCHAR
STARTCHAR 007A
ENCODING 122
SWIDTH 500 0
DWIDTH 8 0
BBX 6 7 1 1
BITMAP
FC
88
10
20
44
84
FC
ENDCHAR
STARTCHAR 007B
ENCODING 123
SWIDTH 500 0
DWIDTH 8 0
BBX 4 14 2 -1
BITMAP
30
20
20
20
20
20
40
C0
20
20
20
20
20
10
ENDCHAR
STARTCHAR 007C
ENCODING 124
SWIDTH 500 0
DWIDTH 8 0
BBX 1 16 4 -2
BITMAP
80
80
80
80
80
80
80
80
80
80
80
80
80
80
80
80
ENDCHAR
STARTCHAR 007D
ENCODING 125
SWIDTH 500 0
DWIDTH 8 0
BBX 4 14 2 -1
BITMAP
80
40
40
40
40
40
20
30
40
40
40
40
40
80
ENDCHAR
STARTCHAR 007E
ENCODING 126
SWIDTH 500 0
DWIDTH 8 0
BBX 6 2 1 10
BITMAP
64
98
ENDCHAR
STARTCHAR 00A0
ENCODING 160
SWIDTH 500 0
DWIDTH 8 0
BBX 0 0 0 0
BITMAP
ENDCHAR
STARTCHAR 00A1
ENCODING 161
SWIDTH 500 0
DWIDTH 8 0
BBX 2 14 3 -1
BITMAP
C0
C0
00
00
80
80
80
C0
C0
C0
C0
C0
C0
C0
ENDCHAR
STARTCHAR 00A2
ENCODING 162
SWIDTH 1000 0
DWIDTH 16 0
BBX 8 11 4 1
BITMAP
04
3C
4A
8A
88
90
90
53
3C
20
20
ENDCHAR
STARTCHAR 00A3
ENCODING 163
SWIDTH 1000 0
DWIDTH 16 0
BBX 10 12 3 0
BITMAP
0F00
1980
1180
1000
1000
7F00
0800
0800
0800
FC40
8E40
7180
ENDCHAR
STARTCHAR 00A4
ENCODING 164
SWIDTH 500 0
DWIDTH 8 0
BBX 6 6 1 2
BITMAP
88
7C
48
48
48
B4
ENDCHAR
STARTCHAR 00A5
ENCODING 165
SWIDTH 1000 0
DWIDTH 16 0
BBX 12 11 2 1
BITMAP
F1F0
2040
1080
1100
7FE0
0A00
0400
7FE0
0400
0400
0400
ENDCHAR
STARTCHAR 00A6
ENCODING 166
SWIDTH 500 0
DWIDTH 8 0
BBX 1 14 4 -1
BITMAP
80
80
80
80
80
80
00
00
80
80
80
80
80
80
ENDCHAR
STARTCHAR 00A7
ENCODING 167
SWIDTH 1000 0
DWIDTH 16 0
BBX 6 14 5 -1
BITMAP
78
CC
8C
80
60
98
84
C4
24
18
04
84
8C
78
ENDCHAR
STARTCHAR 00A8
ENCODING 168
SWIDTH 1000 0
DWIDTH 16 0
BBX 6 2 5 10
BITMAP
CC
CC
ENDCHAR
STARTCHAR 00A9
ENCODING 169
SWIDTH 500 0
DWIDTH 8 0
BBX 7 7 1 2
BITMAP
38
4C
CA
C2
CA
B4
78
ENDCHAR
STARTCHAR 00AA
ENCODING 170
SWIDTH 500 0
DWIDTH 8 0
BBX 5 7 1 5
BITMAP
E0
A0
E0
A0
F8
00
F0
ENDCHAR
STARTCHAR 00AB
ENCODING 171
SWIDTH 500 0
DWIDTH 8 0
BBX 5 7 2 1
BITMAP
38
50
60
A0
60
50
28
ENDCHAR
STARTCHAR 00AC
ENCODING 172
SWIDTH 1000 0
DWIDTH 16 0
BBX 14 6 1 3
BITMAP
FFFC
0004
0004
0004
0004
0004
ENDCHAR
STARTCHAR 00AD
ENCODING 173
SWIDTH 500 0
DWIDTH 8 0
BBX 6 1 1 5
BITMAP
FC
ENDCHAR
STARTCHAR 00AE
ENCODING 174
SWIDTH 500 0
DWIDTH 8 0
BBX 8 6 0 3
BITMAP
3C
66
A5
B9
A6
7C
ENDCHAR
STARTCHAR 00AF
ENCODING 175
SWIDTH 500 0
DWIDTH 8 0
BBX 6 1 1 11
BITMAP
FC
ENDCHAR
STARTCHAR 00B0
ENCODING 176
SWIDTH 1000 0
DWIDTH 16 0
BBX 3 3 1 11
BITMAP
E0
A0
E0
ENDCHAR
STARTCHAR 00B1
ENCODING 177
SWIDTH 1000 0
DWIDTH 16 0
BBX 11 11 3 1
BITMAP
0400
0400
0400
0400
FFE0
0400
0400
0400
0400
0000
FFE0
ENDCHAR
STARTCHAR 00B2
ENCODING 178
SWIDTH 500 0
DWIDTH 8 0
BBX 4 6 1 7
BITMAP
F0
50
20
40
90
F0
ENDCHAR
STARTCHAR 00B3
ENCODING 179
SWIDTH 500 0
DWIDTH 8 0
BBX 4 7 1 7
BITMAP
E0
A0
20
40
30
90
90
ENDCHAR
STARTCHAR 00B4
ENCODING 180
SWIDTH 1000 0
DWIDTH 16 0
BBX 4 2 7 10
BITMAP
70
80
ENDCHAR
STARTCHAR 00B6
ENCODING 182
SWIDTH 1000 0
DWIDTH 16 0
BBX 6 14 4 -1
BITMAP
7C
F4
F4
F4
74
34
14
14
14
14
14
14
14
14
ENDCHAR
STARTCHAR 00B7
ENCODING 183
SWIDTH 500 0
DWIDTH 8 0
BBX 2 2 3 5
BITMAP
C0
C0
ENDCHAR
STARTCHAR 00B8
ENCODING 184
SWIDTH 500 0
DWIDTH 8 0
BBX 4 4 2 -1
BITMAP
40
70
10
F0
ENDCHAR
STARTCHAR 00B9
ENCODING 185
SWIDTH 500 0
DWIDTH 8 0
BBX 2 6 2 8
BITMAP
40
C0
40
40
40
40
ENDCHAR
STARTCHAR 00BA
ENCODING 186
SWIDTH 500 0
DWIDTH 8 0
BBX 4 7 1 5
BITMAP
E0
90
90
90
A0
40
F0
ENDCHAR
STARTCHAR 00BB
ENCODING 187
SWIDTH 500 0
DWIDTH 8 0
BBX 5 7 1 1
BITMAP
A0
60
50
28
50
60
A0
ENDCHAR
STARTCHAR 00BC
ENCODING 188
SWIDTH 500 0
DWIDTH 8 0
BBX 8 15 0 -1
BITMAP
C3
42
44
44
48
48
50
B2
26
2A
52
5F
82
86
01
ENDCHAR
STARTCHAR 00BD
ENCODING 189
SWIDTH 500 0
DWIDTH 8 0
BBX 7 14 0 -1
BITMAP
C2
44
44
48
48
50
50
BE
2A
22
44
44
8A
8E
ENDCHAR
STARTCHAR 00BE
ENCODING 190
SWIDTH 500 0
DWIDTH 8 0
BBX 7 15 1 -1
BITMAP
E2
A4
24
48
28
B0
F0
14
2C
34
24
7E
84
8C
02
ENDCHAR
STARTCHAR 00BF
ENCODING 191
SWIDTH 500 0
DWIDTH 8 0
BBX 7 13 1 0
BITMAP
30
30
00
10
10
10
20
40
40
86
86
C2
7C
ENDCHAR
STARTCHAR 00C0
ENCODING 192
SWIDTH 500 0
DWIDTH 8 0
BBX 6 13 1 1
BITMAP
60
10
20
30
30
50
50
48
48
78
88
84
84
ENDCHAR
STARTCHAR 00C1
ENCODING 193
SWIDTH 500 0
DWIDTH 8 0
BBX 6 13 1 1
BITMAP
18
20
20
30
30
50
50
48
48
78
88
84
84
ENDCHAR
STARTCHAR 00C2
ENCODING 194
SWIDTH 500 0
DWIDTH 8 0
BBX 6 13 1 1
BITMAP
30
48
20
30
30
50
50
48
48
78
88
84
84
ENDCHAR
STARTCHAR 00C3
ENCODING 195
SWIDTH 500 0
DWIDTH 8 0
BBX 6 12 1 2
BITMAP
78
20
30
30
50
50
48
48
78
88
84
84
ENDCHAR
STARTCHAR 00C4
ENCODING 196
SWIDTH 500 0
DWIDTH 8 0
BBX 6 12 1 1
BITMAP
48
20
30
30
50
50
48
48
78
88
84
84
ENDCHAR
STARTCHAR 00C5
ENCODING 197
SWIDTH 500 0
DWIDTH 8 0
BBX 6 13 1 1
BITMAP
70
50
20
30
30
50
50
48
48
78
88
84
84
ENDCHAR
STARTCHAR 00C6
ENCODING 198
SWIDTH 500 0
DWIDTH 8 0
BBX 6 11 1 1
BITMAP
1C
34
34
50
54
5C
54
74
90
94
94
ENDCHAR
STARTCHAR 00C7
ENCODING 199
SWIDTH 500 0
DWIDTH 8 0
BBX 6 14 1 -2
BITMAP
3C
44
84
80
80
80
80
80
84
44
44
38
38
38
ENDCHAR
STARTCHAR 00C8
ENCODING 200
SWIDTH 500 0
DWIDTH 8 0
BBX 6 13 1 1
BITMAP
60
10
FC
44
44
40
48
78
48
40
44
44
FC
ENDCHAR
STARTCHAR 00C9
ENCODING 201
SWIDTH 500 0
DWIDTH 8 0
BBX 6 13 1 1
BITMAP
18
20
FC
44
44
40
48
78
48
40
44
44
FC
ENDCHAR
STARTCHAR 00CA
ENCODING 202
SWIDTH 500 0
DWIDTH 8 0
BBX 6 13 1 1
BITMAP
10
28
FC
44
44
40
48
78
48
40
44
44
FC
ENDCHAR
STARTCHAR 00CB
ENCODING 203
SWIDTH 500 0
DWIDTH 8 0
BBX 6 12 1 1
BITMAP
48
FC
44
44
40
48
78
48
40
44
44
FC
ENDCHAR
STARTCHAR 00CC
ENCODING 204
SWIDTH 500 0
DWIDTH 8 0
BBX 4 13 2 1
BITMAP
C0
20
70
20
20
20
20
20
20
20
20
20
20
ENDCHAR
STARTCHAR 00CD
ENCODING 205
SWIDTH 500 0
DWIDTH 8 0
BBX 4 13 3 1
BITMAP
70
80
60
40
40
40
40
40
40
40
40
40
40
ENDCHAR
STARTCHAR 00CE
ENCODING 206
SWIDTH 500 0
DWIDTH 8 0
BBX 3 13 3 1
BITMAP
40
A0
40
40
40
40
40
40
40
40
40
40
40
ENDCHAR
STARTCHAR 00CF
ENCODING 207
SWIDTH 500 0
DWIDTH 8 0
BBX 4 12 2 1
BITMAP
90
60
20
20
20
20
20
20
20
20
20
20
ENDCHAR
STARTCHAR 00D0
ENCODING 208
SWIDTH 500 0
DWIDTH 8 0
BBX 7 11 0 1
BITMAP
F8
24
22
22
22
F2
22
22
22
24
28
ENDCHAR
STARTCHAR 00D1
ENCODING 209
SWIDTH 500 0
DWIDTH 8 0
BBX 8 14 0 0
BITMAP
3C
00
E7
62
62
52
52
4A
4A
46
46
46
42
A0
ENDCHAR
STARTCHAR 00D2
ENCODING 210
SWIDTH 500 0
DWIDTH 8 0
BBX 6 14 1 0
BITMAP
60
10
30
48
84
84
84
84
84
84
84
84
48
30
ENDCHAR
STARTCHAR 00D3
ENCODING 211
SWIDTH 500 0
DWIDTH 8 0
BBX 6 14 1 0
BITMAP
18
20
30
48
84
84
84
84
84
84
84
84
48
30
ENDCHAR
STARTCHAR 00D4
ENCODING 212
SWIDTH 500 0
DWIDTH 8 0
BBX 6 14 1 0
BITMAP
30
48
30
48
84
84
84
84
84
84
84
84
48
30
ENDCHAR
STARTCHAR 00D5
ENCODING 213
SWIDTH 500 0
DWIDTH 8 0
BBX 6 14 1 0
BITMAP
78
00
30
48
84
84
84
84
84
84
84
84
48
30
ENDCHAR
STARTCHAR 00D6
ENCODING 214
SWIDTH 500 0
DWIDTH 8 0
BBX 6 13 1 0
BITMAP
48
30
48
84
84
84
84
84
84
84
84
48
30
ENDCHAR
STARTCHAR 00D7
ENCODING 215
SWIDTH 1000 0
DWIDTH 16 0
BBX 10 10 3 1
BITMAP
8040
4080
2100
1200
0C00
0C00
1200
2100
4080
80C0
ENDCHAR
STARTCHAR 00D8
ENCODING 216
SWIDTH 500 0
DWIDTH 8 0
BBX 7 13 0 0
BITMAP
02
1E
24
46
4A
4A
52
52
62
62
44
64
98
ENDCHAR
STARTCHAR 00D9
ENCODING 217
SWIDTH 500 0
DWIDTH 8 0
BBX 8 14 0 0
BITMAP
70
10
EF
42
42
42
42
42
42
42
42
42
64
3C
ENDCHAR
STARTCHAR 00DA
ENCODING 218
SWIDTH 500 0
DWIDTH 8 0
BBX 8 14 0 0
BITMAP
0C
10
E7
42
42
42
42
42
42
42
42
42
64
3C
ENDCHAR
STARTCHAR 00DB
ENCODING 219
SWIDTH 500 0
DWIDTH 8 0
BBX 8 14 0 0
BITMAP
18
28
C7
42
42
42
42
42
42
42
42
42
64
3C
ENDCHAR
STARTCHAR 00DC
ENCODING 220
SWIDTH 500 0
DWIDTH 8 0
BBX 8 13 0 0
BITMAP
24
C3
42
42
42
42
42
42
42
42
42
64
3C
ENDCHAR
STARTCHAR 00DD
ENCODING 221
SWIDTH 500 0
DWIDTH 8 0
BBX 7 13 1 1
BITMAP
1C
20
C6
44
64
28
28
10
10
10
10
10
10
ENDCHAR
STARTCHAR 00DE
ENCODING 222
SWIDTH 500 0
DWIDTH 8 0
BBX 7 11 1 1
BITMAP
E0
40
78
44
42
42
42
44
78
40
40
ENDCHAR
STARTCHAR 00DF
ENCODING 223
SWIDTH 500 0
DWIDTH 8 0
BBX 6 12 1 0
BITMAP
30
48
48
48
48
70
48
44
44
44
6C
B8
ENDCHAR
STARTCHAR 00E0
ENCODING 224
SWIDTH 500 0
DWIDTH 8 0
BBX 6 11 1 0
BITMAP
60
10
00
F0
88
08
78
88
88
8C
7C
ENDCHAR
STARTCHAR 00E1
ENCODING 225
SWIDTH 500 0
DWIDTH 8 0
BBX 6 11 1 0
BITMAP
18
20
00
F0
88
08
78
88
88
8C
7C
ENDCHAR
STARTCHAR 00E2
ENCODING 226
SWIDTH 500 0
DWIDTH 8 0
BBX 6 11 1 0
BITMAP
30
50
08
F0
88
08
78
88
88
8C
7C
ENDCHAR
STARTCHAR 00E3
ENCODING 227
SWIDTH 500 0
DWIDTH 8 0
BBX 6 10 1 1
BITMAP
78
00
F0
88
08
78
88
88
8C
7C
ENDCHAR
STARTCHAR 00E4
ENCODING 228
SWIDTH 500 0
DWIDTH 8 0
BBX 6 10 1 0
BITMAP
88
00
F0
88
08
78
88
88
8C
7C
ENDCHAR
STARTCHAR 00E5
ENCODING 229
SWIDTH 500 0
DWIDTH 8 0
BBX 6 11 1 0
BITMAP
70
50
20
F0
88
08
78
88
88
8C
7C
ENDCHAR
STARTCHAR 00E6
ENCODING 230
SWIDTH 500 0
DWIDTH 8 0
BBX 6 8 1 0
BITMAP
EC
D4
14
3C
D0
94
94
EC
ENDCHAR
STARTCHAR 00E7
ENCODING 231
SWIDTH 500 0
DWIDTH 8 0
BBX 6 10 1 -2
BITMAP
38
4C
80
80
80
84
44
38
38
38
ENDCHAR
STARTCHAR 00E8
ENCODING 232
SWIDTH 500 0
DWIDTH 8 0
BBX 6 11 1 0
BITMAP
60
10
00
70
48
84
FC
80
80
4C
78
ENDCHAR
STARTCHAR 00E9
ENCODING 233
SWIDTH 500 0
DWIDTH 8 0
BBX 6 11 1 0
BITMAP
18
20
00
70
48
84
FC
80
80
4C
78
ENDCHAR
STARTCHAR 00EA
ENCODING 234
SWIDTH 500 0
DWIDTH 8 0
BBX 6 11 1 0
BITMAP
30
48
00
70
48
84
FC
80
80
4C
78
ENDCHAR
STARTCHAR 00EB
ENCODING 235
SWIDTH 500 0
DWIDTH 8 0
BBX 6 10 1 0
BITMAP
48
00
70
48
84
FC
80
80
4C
78
ENDCHAR
STARTCHAR 00EC
ENCODING 236
SWIDTH 500 0
DWIDTH 8 0
BBX 4 10 2 1
BITMAP
C0
20
10
60
20
20
20
20
20
20
ENDCHAR
STARTCHAR 00ED
ENCODING 237
SWIDTH 500 0
DWIDTH 8 0
BBX 3 10 3 1
BITMAP
60
80
00
C0
40
40
40
40
40
40
ENDCHAR
STARTCHAR 00EE
ENCODING 238
SWIDTH 500 0
DWIDTH 8 0
BBX 4 10 2 1
BITMAP
20
50
80
60
20
20
20
20
20
20
ENDCHAR
STARTCHAR 00EF
ENCODING 239
SWIDTH 500 0
DWIDTH 8 0
BBX 4 10 2 1
BITMAP
90
00
20
60
20
20
20
20
20
20
ENDCHAR
STARTCHAR 00F0
ENCODING 240
SWIDTH 500 0
DWIDTH 8 0
BBX 6 12 1 1
BITMAP
58
20
D0
08
78
4C
84
84
84
84
48
70
ENDCHAR
STARTCHAR 00F1
ENCODING 241
SWIDTH 500 0
DWIDTH 8 0
BBX 6 9 1 2
BITMAP
78
00
B8
44
44
44
44
44
44
ENDCHAR
STARTCHAR 00F2
ENCODING 242
SWIDTH 500 0
DWIDTH 8 0
BBX 6 11 1 0
BITMAP
60
10
00
78
C8
84
84
84
84
48
78
ENDCHAR
STARTCHAR 00F3
ENCODING 243
SWIDTH 500 0
DWIDTH 8 0
BBX 6 11 1 0
BITMAP
18
20
00
78
C8
84
84
84
84
48
78
ENDCHAR
STARTCHAR 00F4
ENCODING 244
SWIDTH 500 0
DWIDTH 8 0
BBX 6 11 1 0
BITMAP
30
48
00
78
C8
84
84
84
84
48
78
ENDCHAR
STARTCHAR 00F5
ENCODING 245
SWIDTH 500 0
DWIDTH 8 0
BBX 6 10 1 1
BITMAP
78
00
78
C8
84
84
84
84
48
78
ENDCHAR
STARTCHAR 00F6
ENCODING 246
SWIDTH 500 0
DWIDTH 8 0
BBX 6 10 1 0
BITMAP
48
00
78
C8
84
84
84
84
48
78
ENDCHAR
STARTCHAR 00F7
ENCODING 247
SWIDTH 1000 0
DWIDTH 16 0
BBX 11 9 3 1
BITMAP
0600
0600
0000
0000
FFE0
0000
0000
0600
0600
ENDCHAR
STARTCHAR 00F8
ENCODING 248
SWIDTH 500 0
DWIDTH 8 0
BBX 6 9 1 0
BITMAP
04
78
CC
94
A4
A4
C4
48
B8
ENDCHAR
STARTCHAR 00F9
ENCODING 249
SWIDTH 500 0
DWIDTH 8 0
BBX 7 11 1 0
BITMAP
60
10
08
CC
44
44
44
44
44
4C
36
ENDCHAR
STARTCHAR 00FA
ENCODING 250
SWIDTH 500 0
DWIDTH 8 0
BBX 7 11 1 0
BITMAP
1C
10
20
CC
44
44
44
44
44
4C
36
ENDCHAR
STARTCHAR 00FB
ENCODING 251
SWIDTH 500 0
DWIDTH 8 0
BBX 7 11 1 0
BITMAP
10
28
00
CC
44
44
44
44
44
4C
36
ENDCHAR
STARTCHAR 00FC
ENCODING 252
SWIDTH 500 0
DWIDTH 8 0
BBX 7 10 1 0
BITMAP
48
44
CC
44
44
44
44
44
4C
36
ENDCHAR
STARTCHAR 00FD
ENCODING 253
SWIDTH 500 0
DWIDTH 8 0
BBX 8 13 0 -2
BITMAP
0C
10
00
E7
22
24
14
18
18
08
10
50
60
ENDCHAR
STARTCHAR 00FE
ENCODING 254
SWIDTH 500 0
DWIDTH 8 0
BBX 6 14 1 -2
BITMAP
C0
40
40
40
78
4C
44
44
44
44
4C
78
40
E0
ENDCHAR
STARTCHAR 00FF
ENCODING 255
SWIDTH 500 0
DWIDTH 8 0
BBX 8 12 0 -2
BITMAP
24
00
E7
22
24
14
18
18
08
10
50
60
ENDCHAR
STARTCHAR 0100
ENCODING 256
SWIDTH 500 0
DWIDTH 8 0
BBX 6 13 1 1
BITMAP
78
00
20
30
30
50
50
48
48
78
88
84
84
ENDCHAR
STARTCHAR 0101
ENCODING 257
SWIDTH 500 0
DWIDTH 8 0
BBX 6 11 1 0
BITMAP
78
00
00
70
C8
08
78
88
88
8C
7C
ENDCHAR
STARTCHAR 0102
ENCODING 258
SWIDTH 500 0
DWIDTH 8 0
BBX 6 13 1 1
BITMAP
48
30
20
30
30
50
50
48
48
78
88
84
84
ENDCHAR
STARTCHAR 0103
ENCODING 259
SWIDTH 500 0
DWIDTH 8 0
BBX 6 11 1 0
BITMAP
48
30
00
F0
88
08
78
88
88
8C
7C
ENDCHAR
STARTCHAR 0104
ENCODING 260
SWIDTH 500 0
DWIDTH 8 0
BBX 8 14 0 -2
BITMAP
10
18
18
28
28
24
24
3C
44
42
42
A5
04
07
ENDCHAR
STARTCHAR 0105
ENCODING 261
SWIDTH 500 0
DWIDTH 8 0
BBX 6 10 1 -2
BITMAP
F0
88
08
78
88
88
8C
7C
10
1C
ENDCHAR
STARTCHAR 0106
ENCODING 262
SWIDTH 500 0
DWIDTH 8 0
BBX 6 14 1 0
BITMAP
18
20
3C
44
84
80
80
80
80
80
84
44
44
38
ENDCHAR
STARTCHAR 0107
ENCODING 263
SWIDTH 500 0
DWIDTH 8 0
BBX 6 11 1 0
BITMAP
18
20
00
38
4C
80
80
80
84
44
38
ENDCHAR
STARTCHAR 0108
ENCODING 264
SWIDTH 500 0
DWIDTH 8 0
BBX 6 14 1 0
BITMAP
10
28
3C
44
84
80
80
80
80
80
84
44
44
38
ENDCHAR
STARTCHAR 0109
ENCODING 265
SWIDTH 500 0
DWIDTH 8 0
BBX 6 11 1 0
BITMAP
10
28
40
38
4C
80
80
80
84
44
38
ENDCHAR
STARTCHAR 010C
ENCODING 268
SWIDTH 500 0
DWIDTH 8 0
BBX 6 14 1 0
BITMAP
28
10
3C
44
44
80
80
80
80
80
84
44
44
38
ENDCHAR
STARTCHAR 010D
ENCODING 269
SWIDTH 500 0
DWIDTH 8 0
BBX 6 11 1 0
BITMAP
68
10
00
38
4C
80
80
80
84
44
38
ENDCHAR
STARTCHAR 010E
ENCODING 270
SWIDTH 500 0
DWIDTH 8 0
BBX 7 13 1 1
BITMAP
48
30
C8
44
42
42
42
42
42
42
44
44
48
ENDCHAR
STARTCHAR 010F
ENCODING 271
SWIDTH 500 0
DWIDTH 8 0
BBX 7 13 1 0
BITMAP
06
1E
0A
0C
08
78
48
88
88
88
88
C8
7C
ENDCHAR
STARTCHAR 0111
ENCODING 273
SWIDTH 500 0
DWIDTH 8 0
BBX 7 12 1 1
BITMAP
18
08
1E
08
78
48
88
88
88
88
48
76
ENDCHAR
STARTCHAR 0112
ENCODING 274
SWIDTH 500 0
DWIDTH 8 0
BBX 6 13 1 1
BITMAP
78
00
FC
44
44
40
48
78
48
40
44
44
FC
ENDCHAR
STARTCHAR 0113
ENCODING 275
SWIDTH 500 0
DWIDTH 8 0
BBX 6 11 1 0
BITMAP
78
00
00
70
48
84
FC
80
80
4C
78
ENDCHAR
STARTCHAR 0118
ENCODING 280
SWIDTH 500 0
DWIDTH 8 0
BBX 6 14 1 -2
BITMAP
FC
44
44
40
48
78
48
48
40
44
44
B8
20
38
ENDCHAR
STARTCHAR 0119
ENCODING 281
SWIDTH 500 0
DWIDTH 8 0
BBX 6 10 1 -2
BITMAP
70
48
84
FC
80
80
4C
30
20
38
ENDCHAR
STARTCHAR 011A
ENCODING 282
SWIDTH 500 0
DWIDTH 8 0
BBX 6 13 1 1
BITMAP
28
10
FC
44
44
40
48
78
48
40
44
44
FC
ENDCHAR
STARTCHAR 011B
ENCODING 283
SWIDTH 500 0
DWIDTH 8 0
BBX 6 11 1 0
BITMAP
48
30
00
70
48
84
FC
80
80
4C
78
ENDCHAR
STARTCHAR 011C
ENCODING 284
SWIDTH 500 0
DWIDTH 8 0
BBX 7 14 1 0
BITMAP
10
28
7C
44
C4
80
80
80
8E
84
84
C4
4C
30
ENDCHAR
STARTCHAR 011D
ENCODING 285
SWIDTH 500 0
DWIDTH 8 0
BBX 7 13 1 -2
BITMAP
30
50
08
7E
88
88
F0
80
C0
B8
84
84
78
ENDCHAR
STARTCHAR 0124
ENCODING 292
SWIDTH 500 0
DWIDTH 8 0
BBX 8 13 0 1
BITMAP
18
24
C3
42
42
42
42
7E
42
42
42
42
42
ENDCHAR
STARTCHAR 0125
ENCODING 293
SWIDTH 500 0
DWIDTH 8 0
BBX 6 13 1 1
BITMAP
10
28
40
C0
40
40
78
44
44
44
44
44
44
ENDCHAR
STARTCHAR 0127
ENCODING 295
SWIDTH 500 0
DWIDTH 8 0
BBX 7 11 0 2
BITMAP
E0
20
F0
20
3C
22
22
22
22
22
22
ENDCHAR
STARTCHAR 012A
ENCODING 298
SWIDTH 500 0
DWIDTH 8 0
BBX 4 13 2 1
BITMAP
F0
00
F0
20
20
20
20
20
20
20
20
20
60
ENDCHAR
STARTCHAR 012B
ENCODING 299
SWIDTH 500 0
DWIDTH 8 0
BBX 4 10 2 1
BITMAP
F0
00
20
60
20
20
20
20
20
20
ENDCHAR
STARTCHAR 0134
ENCODING 308
SWIDTH 500 0
DWIDTH 8 0
BBX 6 14 1 0
BITMAP
08
14
08
08
08
08
08
08
08
08
08
C8
90
70
ENDCHAR
STARTCHAR 0135
ENCODING 309
SWIDTH 500 0
DWIDTH 8 0
BBX 5 13 1 -2
BITMAP
30
48
00
30
10
10
10
10
10
10
10
90
E0
ENDCHAR
STARTCHAR 0139
ENCODING 313
SWIDTH 500 0
DWIDTH 8 0
BBX 6 13 1 1
BITMAP
18
20
C0
40
40
40
40
40
40
44
44
44
FC
ENDCHAR
STARTCHAR 013A
ENCODING 314
SWIDTH 500 0
DWIDTH 8 0
BBX 3 13 3 1
BITMAP
60
80
C0
40
40
40
40
40
40
40
40
40
40
ENDCHAR
STARTCHAR 013D
ENCODING 317
SWIDTH 500 0
DWIDTH 8 0
BBX 6 12 1 1
BITMAP
0C
E4
48
40
40
40
40
40
44
44
44
FC
ENDCHAR
STARTCHAR 013E
ENCODING 318
SWIDTH 500 0
DWIDTH 8 0
BBX 5 12 2 1
BITMAP
58
C8
50
40
40
40
40
40
40
40
40
40
ENDCHAR
STARTCHAR 0141
ENCODING 321
SWIDTH 500 0
DWIDTH 8 0
BBX 7 11 0 1
BITMAP
70
20
20
30
20
20
E0
22
22
22
7E
ENDCHAR
STARTCHAR 0142
ENCODING 322
SWIDTH 500 0
DWIDTH 8 0
BBX 5 12 2 1
BITMAP
20
60
20
20
28
30
20
E0
20
20
20
20
ENDCHAR
STARTCHAR 0143
ENCODING 323
SWIDTH 500 0
DWIDTH 8 0
BBX 8 14 0 0
BITMAP
0C
10
E7
62
62
52
52
4A
4A
46
46
46
42
A0
ENDCHAR
STARTCHAR 0144
ENCODING 324
SWIDTH 500 0
DWIDTH 8 0
BBX 6 10 1 1
BITMAP
1C
20
00
B8
44
44
44
44
44
44
ENDCHAR
STARTCHAR 0147
ENCODING 327
SWIDTH 500 0
DWIDTH 8 0
BBX 8 14 0 0
BITMAP
2C
18
E7
62
62
52
52
4A
4A
46
46
46
42
A0
ENDCHAR
STARTCHAR 0148
ENCODING 328
SWIDTH 500 0
DWIDTH 8 0
BBX 6 10 1 1
BITMAP
68
10
00
B8
44
44
44
44
44
44
ENDCHAR
STARTCHAR 014B
ENCODING 331
SWIDTH 500 0
DWIDTH 8 0
BBX 6 10 1 -1
BITMAP
B8
44
44
44
44
44
44
A4
14
18
ENDCHAR
STARTCHAR 014C
ENCODING 332
SWIDTH 500 0
DWIDTH 8 0
BBX 6 14 1 0
BITMAP
78
00
30
48
84
84
84
84
84
84
84
84
48
30
ENDCHAR
STARTCHAR 014D
ENCODING 333
SWIDTH 500 0
DWIDTH 8 0
BBX 6 11 1 0
BITMAP
78
00
00
78
C8
84
84
84
84
48
78
ENDCHAR
STARTCHAR 0150
ENCODING 336
SWIDTH 500 0
DWIDTH 8 0
BBX 7 14 1 0
BITMAP
3E
50
30
48
84
84
84
84
84
84
84
84
48
30
ENDCHAR
STARTCHAR 0151
ENCODING 337
SWIDTH 500 0
DWIDTH 8 0
BBX 7 11 1 0
BITMAP
3E
50
00
78
C8
84
84
84
84
48
78
ENDCHAR
STARTCHAR 0152
ENCODING 338
SWIDTH 500 0
DWIDTH 8 0
BBX 6 12 1 0
BITMAP
7C
54
94
90
98
98
98
90
94
94
5C
60
ENDCHAR
STARTCHAR 0153
ENCODING 339
SWIDTH 500 0
DWIDTH 8 0
BBX 6 8 1 0
BITMAP
78
94
94
9C
90
94
94
68
ENDCHAR
STARTCHAR 0154
ENCODING 340
SWIDTH 500 0
DWIDTH 8 0
BBX 7 13 1 1
BITMAP
1C
20
D8
44
44
44
4C
78
50
48
48
44
46
ENDCHAR
STARTCHAR 0155
ENCODING 341
SWIDTH 500 0
DWIDTH 8 0
BBX 6 10 2 1
BITMAP
38
40
00
BC
60
40
40
40
40
40
ENDCHAR
STARTCHAR 0158
ENCODING 344
SWIDTH 500 0
DWIDTH 8 0
BBX 7 13 1 1
BITMAP
48
30
C8
44
44
44
4C
78
50
48
48
44
46
ENDCHAR
STARTCHAR 0159
ENCODING 345
SWIDTH 500 0
DWIDTH 8 0
BBX 6 10 2 1
BITMAP
50
20
00
BC
60
40
40
40
40
40
ENDCHAR
STARTCHAR 015A
ENCODING 346
SWIDTH 500 0
DWIDTH 8 0
BBX 6 14 1 0
BITMAP
18
20
7C
84
84
80
40
30
08
04
84
84
CC
38
ENDCHAR
STARTCHAR 015B
ENCODING 347
SWIDTH 500 0
DWIDTH 8 0
BBX 5 11 1 0
BITMAP
18
20
40
78
88
80
40
30
88
88
70
ENDCHAR
STARTCHAR 015C
ENCODING 348
SWIDTH 500 0
DWIDTH 8 0
BBX 6 14 1 0
BITMAP
30
48
74
CC
84
80
40
20
18
04
84
84
CC
38
ENDCHAR
STARTCHAR 015D
ENCODING 349
SWIDTH 500 0
DWIDTH 8 0
BBX 5 11 1 0
BITMAP
20
50
08
78
88
80
40
30
88
88
70
ENDCHAR
STARTCHAR 015E
ENCODING 350
SWIDTH 500 0
DWIDTH 8 0
BBX 6 14 1 -1
BITMAP
7C
C4
84
80
40
30
08
84
84
CC
38
30
30
20
ENDCHAR
STARTCHAR 015F
ENCODING 351
SWIDTH 500 0
DWIDTH 8 0
BBX 5 10 1 -1
BITMAP
F8
88
80
60
18
88
70
30
30
20
ENDCHAR
STARTCHAR 0160
ENCODING 352
SWIDTH 500 0
DWIDTH 8 0
BBX 6 14 1 0
BITMAP
48
30
74
CC
84
80
40
20
18
04
84
84
C4
38
ENDCHAR
STARTCHAR 0161
ENCODING 353
SWIDTH 500 0
DWIDTH 8 0
BBX 5 11 1 0
BITMAP
58
20
00
78
88
80
40
30
88
88
70
ENDCHAR
STARTCHAR 0162
ENCODING 354
SWIDTH 500 0
DWIDTH 8 0
BBX 6 14 1 -2
BITMAP
FC
94
14
10
10
10
10
10
10
10
28
10
10
20
ENDCHAR
STARTCHAR 0163
ENCODING 355
SWIDTH 500 0
DWIDTH 8 0
BBX 6 12 1 -1
BITMAP
20
60
F8
20
20
20
20
24
38
30
30
20
ENDCHAR
STARTCHAR 0164
ENCODING 356
SWIDTH 500 0
DWIDTH 8 0
BBX 6 13 1 1
BITMAP
68
10
FC
94
94
10
10
10
10
10
10
10
10
ENDCHAR
STARTCHAR 0165
ENCODING 357
SWIDTH 500 0
DWIDTH 8 0
BBX 6 13 1 0
BITMAP
0C
0C
08
30
60
F8
20
20
20
20
20
2C
38
ENDCHAR
STARTCHAR 016A
ENCODING 362
SWIDTH 500 0
DWIDTH 8 0
BBX 8 14 0 0
BITMAP
3C
00
E7
42
42
42
42
42
42
42
42
42
64
3C
ENDCHAR
STARTCHAR 016B
ENCODING 363
SWIDTH 500 0
DWIDTH 8 0
BBX 7 11 1 0
BITMAP
78
00
44
CC
44
44
44
44
44
4C
76
ENDCHAR
STARTCHAR 016C
ENCODING 364
SWIDTH 500 0
DWIDTH 8 0
BBX 8 14 0 0
BITMAP
24
18
E7
42
42
42
42
42
42
42
42
42
64
3C
ENDCHAR
STARTCHAR 016D
ENCODING 365
SWIDTH 500 0
DWIDTH 8 0
BBX 7 11 1 0
BITMAP
48
38
44
CC
44
44
44
44
44
4C
36
ENDCHAR
STARTCHAR 016E
ENCODING 366
SWIDTH 500 0
DWIDTH 8 0
BBX 8 14 0 0
BITMAP
38
28
D7
42
42
42
42
42
42
42
42
42
64
3C
ENDCHAR
STARTCHAR 016F
ENCODING 367
SWIDTH 500 0
DWIDTH 8 0
BBX 7 11 1 0
BITMAP
30
10
44
CC
44
44
44
44
44
4C
36
ENDCHAR
STARTCHAR 0170
ENCODING 368
SWIDTH 500 0
DWIDTH 8 0
BBX 8 14 0 0
BITMAP
1F
28
C7
42
42
42
42
42
42
42
42
42
64
3C
ENDCHAR
STARTCHAR 0171
ENCODING 369
SWIDTH 500 0
DWIDTH 8 0
BBX 7 11 1 0
BITMAP
3E
40
CC
44
44
44
44
44
44
4C
36
ENDCHAR
STARTCHAR 0179
ENCODING 377
SWIDTH 500 0
DWIDTH 8 0
BBX 6 13 1 1
BITMAP
18
20
FC
84
08
08
10
20
20
40
44
84
FC
ENDCHAR
STARTCHAR 017A
ENCODING 378
SWIDTH 500 0
DWIDTH 8 0
BBX 6 10 1 1
BITMAP
18
20
00
FC
88
10
20
44
84
FC
ENDCHAR
STARTCHAR 017B
ENCODING 379
SWIDTH 500 0
DWIDTH 8 0
BBX 6 13 1 1
BITMAP
30
30
FC
84
08
08
10
20
20
40
44
84
FC
ENDCHAR
STARTCHAR 017C
ENCODING 380
SWIDTH 500 0
DWIDTH 8 0
BBX 6 10 1 1
BITMAP
30
30
00
FC
88
10
20
44
84
FC
ENDCHAR
STARTCHAR 017D
ENCODING 381
SWIDTH 500 0
DWIDTH 8 0
BBX 6 13 1 1
BITMAP
48
30
FC
84
08
08
10
20
20
40
44
84
FC
ENDCHAR
STARTCHAR 017E
ENCODING 382
SWIDTH 500 0
DWIDTH 8 0
BBX 6 10 1 1
BITMAP
48
30
00
FC
88
10
20
44
84
FC
ENDCHAR
STARTCHAR 0193
ENCODING 403
SWIDTH 500 0
DWIDTH 8 0
BBX 7 14 1 0
BITMAP
06
0A
38
48
88
80
80
80
9C
88
88
88
48
70
ENDCHAR
STARTCHAR 01C2
ENCODING 450
SWIDTH 500 0
DWIDTH 8 0
BBX 6 14 1 -2
BITMAP
20
20
20
20
FC
20
20
20
FC
20
20
20
20
20
ENDCHAR
STARTCHAR 01CD
ENCODING 461
SWIDTH 1000 0
DWIDTH 16 0
BBX 10 13 3 1
BITMAP
2200
1C00
0800
0C00
0C00
1600
1200
2300
2100
7F00
4180
8080
80C0
ENDCHAR
STARTCHAR 01CE
ENCODING 462
SWIDTH 1000 0
DWIDTH 16 0
BBX 8 11 5 0
BITMAP
4C
30
00
78
C4
04
3C
C4
84
8D
76
ENDCHAR
STARTCHAR 01D0
ENCODING 464
SWIDTH 1000 0
DWIDTH 16 0
BBX 5 10 6 2
BITMAP
D8
20
60
20
20
20
20
20
20
60
ENDCHAR
STARTCHAR 01D1
ENCODING 465
SWIDTH 1000 0
DWIDTH 16 0
BBX 10 13 3 1
BITMAP
1200
0C00
1E00
6180
4080
8040
8040
8040
8040
8040
4080
6180
1E00
ENDCHAR
STARTCHAR 01D2
ENCODING 466
SWIDTH 1000 0
DWIDTH 16 0
BBX 8 11 4 0
BITMAP
24
18
00
3C
42
81
81
81
83
42
3C
ENDCHAR
STARTCHAR 01D4
ENCODING 468
SWIDTH 1000 0
DWIDTH 16 0
BBX 8 11 4 1
BITMAP
3C
00
42
C6
42
42
42
42
42
3E
05
ENDCHAR
STARTCHAR 01D6
ENCODING 470
SWIDTH 1000 0
DWIDTH 16 0
BBX 8 12 4 0
BITMAP
3C
66
66
00
C6
42
42
42
42
42
66
3B
ENDCHAR
STARTCHAR 01D8
ENCODING 472
SWIDTH 1000 0
DWIDTH 16 0
BBX 8 12 4 0
BITMAP
0C
76
66
00
C6
42
42
42
42
42
66
3B
ENDCHAR
STARTCHAR 01DA
ENCODING 474
SWIDTH 1000 0
DWIDTH 16 0
BBX 8 12 4 0
BITMAP
24
7E
66
00
C6
42
42
42
42
42
66
3B
ENDCHAR
STARTCHAR 01DC
ENCODING 476
SWIDTH 1000 0
DWIDTH 16 0
BBX 8 12 4 0
BITMAP
70
6E
66
00
C6
42
42
42
42
42
66
3B
ENDCHAR
STARTCHAR 01F8
ENCODING 504
SWIDTH 500 0
DWIDTH 8 0
BBX 8 14 0 0
BITMAP
70
08
E7
62
62
52
52
4A
4A
46
46
46
42
A0
ENDCHAR
STARTCHAR 01F9
ENCODING 505
SWIDTH 500 0
DWIDTH 8 0
BBX 6 10 1 1
BITMAP
60
10
00
B8
44
44
44
44
44
44
ENDCHAR
STARTCHAR 01FD
ENCODING 509
SWIDTH 500 0
DWIDTH 8 0
BBX 6 11 1 0
BITMAP
1C
20
00
EC
D4
14
3C
D0
94
94
EC
ENDCHAR
STARTCHAR 0250
ENCODING 592
SWIDTH 500 0
DWIDTH 8 0
BBX 6 8 1 0
BITMAP
F8
44
44
48
70
44
44
38
ENDCHAR
STARTCHAR 0251
ENCODING 593
SWIDTH 500 0
DWIDTH 8 0
BBX 6 8 1 1
BITMAP
78
C8
88
88
88
88
4C
7C
ENDCHAR
STARTCHAR 0252
ENCODING 594
SWIDTH 500 0
DWIDTH 8 0
BBX 6 8 1 0
BITMAP
F8
4C
44
44
44
44
48
B8
ENDCHAR
STARTCHAR 0253
ENCODING 595
SWIDTH 500 0
DWIDTH 8 0
BBX 5 12 2 0
BITMAP
70
C8
88
80
F0
98
88
88
88
88
98
70
ENDCHAR
STARTCHAR 0254
ENCODING 596
SWIDTH 500 0
DWIDTH 8 0
BBX 6 8 1 0
BITMAP
78
88
04
04
04
C4
88
70
ENDCHAR
STARTCHAR 0255
ENCODING 597
SWIDTH 500 0
DWIDTH 8 0
BBX 6 8 1 0
BITMAP
38
4C
80
80
8C
B4
44
B8
ENDCHAR
STARTCHAR 0256
ENCODING 598
SWIDTH 500 0
DWIDTH 8 0
BBX 7 14 1 -2
BITMAP
18
08
08
08
78
48
88
88
88
88
C8
78
0A
06
ENDCHAR
STARTCHAR 0257
ENCODING 599
SWIDTH 500 0
DWIDTH 8 0
BBX 7 12 1 0
BITMAP
06
0A
08
08
78
48
88
88
88
88
C8
7C
ENDCHAR
STARTCHAR 0258
ENCODING 600
SWIDTH 500 0
DWIDTH 8 0
BBX 6 8 1 0
BITMAP
38
48
84
FC
04
04
88
70
ENDCHAR
STARTCHAR 0259
ENCODING 601
SWIDTH 500 0
DWIDTH 8 0
BBX 6 8 1 0
BITMAP
78
88
04
04
FC
84
48
38
ENDCHAR
STARTCHAR 025A
ENCODING 602
SWIDTH 500 0
DWIDTH 8 0
BBX 7 8 1 0
BITMAP
60
90
1A
36
D0
90
90
60
ENDCHAR
STARTCHAR 025C
ENCODING 604
SWIDTH 500 0
DWIDTH 8 0
BBX 6 8 1 0
BITMAP
F8
84
04
38
0C
04
8C
78
ENDCHAR
STARTCHAR 025E
ENCODING 606
SWIDTH 500 0
DWIDTH 8 0
BBX 6 8 1 0
BITMAP
38
44
84
98
84
84
44
38
ENDCHAR
STARTCHAR 025F
ENCODING 607
SWIDTH 500 0
DWIDTH 8 0
BBX 6 10 1 -2
BITMAP
38
10
10
10
10
7C
10
10
90
E0
ENDCHAR
STARTCHAR 0260
ENCODING 608
SWIDTH 500 0
DWIDTH 8 0
BBX 7 14 1 -2
BITMAP
06
0A
08
08
78
C8
88
88
88
78
08
C8
88
70
ENDCHAR
STARTCHAR 0261
ENCODING 609
SWIDTH 500 0
DWIDTH 8 0
BBX 5 10 1 -1
BITMAP
78
C8
88
88
88
78
08
88
98
70
ENDCHAR
STARTCHAR 0264
ENCODING 612
SWIDTH 500 0
DWIDTH 8 0
BBX 8 8 0 0
BITMAP
62
A5
18
10
18
18
18
18
ENDCHAR
STARTCHAR 0265
ENCODING 613
SWIDTH 500 0
DWIDTH 8 0
BBX 7 10 0 -2
BITMAP
EE
44
44
44
44
44
4C
34
04
0A
ENDCHAR
STARTCHAR 0266
ENCODING 614
SWIDTH 500 0
DWIDTH 8 0
BBX 5 11 2 1
BITMAP
70
98
80
80
F0
88
88
88
88
88
88
ENDCHAR
STARTCHAR 0267
ENCODING 615
SWIDTH 500 0
DWIDTH 8 0
BBX 6 14 1 -2
BITMAP
38
4C
40
40
78
44
44
44
44
44
44
A4
14
18
ENDCHAR
STARTCHAR 0268
ENCODING 616
SWIDTH 500 0
DWIDTH 8 0
BBX 4 11 2 1
BITMAP
60
60
00
20
60
20
20
F0
20
20
20
ENDCHAR
STARTCHAR 026C
ENCODING 620
SWIDTH 500 0
DWIDTH 8 0
BBX 4 11 2 1
BITMAP
60
20
20
20
E0
A0
70
20
20
20
20
ENDCHAR
STARTCHAR 026D
ENCODING 621
SWIDTH 500 0
DWIDTH 8 0
BBX 5 14 2 -1
BITMAP
C0
40
40
40
40
40
40
40
40
40
40
40
58
38
ENDCHAR
STARTCHAR 026E
ENCODING 622
SWIDTH 500 0
DWIDTH 8 0
BBX 7 14 1 -2
BITMAP
C0
40
40
40
7E
44
48
5C
66
42
42
A2
26
3C
ENDCHAR
STARTCHAR 026F
ENCODING 623
SWIDTH 500 0
DWIDTH 8 0
BBX 8 8 0 0
BITMAP
FB
4A
4A
4A
4A
4A
4A
7D
ENDCHAR
STARTCHAR 0270
ENCODING 624
SWIDTH 500 0
DWIDTH 8 0
BBX 8 10 0 -2
BITMAP
FB
4A
4A
4A
4A
4A
4A
7E
02
05
ENDCHAR
STARTCHAR 0271
ENCODING 625
SWIDTH 500 0
DWIDTH 8 0
BBX 7 10 0 -1
BITMAP
FE
4A
4A
4A
4A
4A
4A
B2
0A
06
ENDCHAR
STARTCHAR 0272
ENCODING 626
SWIDTH 500 0
DWIDTH 8 0
BBX 8 10 0 -1
BITMAP
6C
32
22
22
22
22
22
25
A0
C0
ENDCHAR
STARTCHAR 0273
ENCODING 627
SWIDTH 500 0
DWIDTH 8 0
BBX 8 10 0 -1
BITMAP
D8
64
44
44
44
44
44
A4
05
03
ENDCHAR
STARTCHAR 0275
ENCODING 629
SWIDTH 500 0
DWIDTH 8 0
BBX 6 8 1 0
BITMAP
78
C8
84
FC
84
84
48
78
ENDCHAR
STARTCHAR 0279
ENCODING 633
SWIDTH 500 0
DWIDTH 8 0
BBX 6 8 0 0
BITMAP
1C
08
08
08
08
08
D8
EC
ENDCHAR
STARTCHAR 027A
ENCODING 634
SWIDTH 500 0
DWIDTH 8 0
BBX 6 12 0 0
BITMAP
1C
08
08
08
08
08
08
08
08
08
D8
EC
ENDCHAR
STARTCHAR 027B
ENCODING 635
SWIDTH 500 0
DWIDTH 8 0
BBX 7 10 0 -2
BITMAP
1C
08
08
08
08
08
D8
E8
0A
06
ENDCHAR
STARTCHAR 027D
ENCODING 637
SWIDTH 500 0
DWIDTH 8 0
BBX 6 10 2 -1
BITMAP
BC
60
40
40
40
40
40
40
58
38
ENDCHAR
STARTCHAR 027E
ENCODING 638
SWIDTH 500 0
DWIDTH 8 0
BBX 4 7 3 1
BITMAP
70
90
80
80
80
80
80
ENDCHAR
STARTCHAR 0281
ENCODING 641
SWIDTH 500 0
DWIDTH 8 0
BBX 7 7 1 1
BITMAP
E6
48
48
78
44
44
F8
ENDCHAR
STARTCHAR 0282
ENCODING 642
SWIDTH 500 0
DWIDTH 8 0
BBX 5 10 1 -2
BITMAP
78
88
80
40
30
88
88
70
20
E0
ENDCHAR
STARTCHAR 0283
ENCODING 643
SWIDTH 500 0
DWIDTH 8 0
BBX 7 14 1 -2
BITMAP
0E
12
10
10
10
10
10
10
10
10
10
10
90
60
ENDCHAR
STARTCHAR 0284
ENCODING 644
SWIDTH 500 0
DWIDTH 8 0
BBX 6 14 1 -2
BITMAP
0C
14
10
10
10
10
10
10
10
78
10
10
90
E0
ENDCHAR
STARTCHAR 0288
ENCODING 648
SWIDTH 500 0
DWIDTH 8 0
BBX 6 12 1 -1
BITMAP
20
60
F8
20
20
20
20
20
20
20
2C
18
ENDCHAR
STARTCHAR 0289
ENCODING 649
SWIDTH 500 0
DWIDTH 8 0
BBX 7 8 1 1
BITMAP
CC
44
44
FE
44
44
44
3E
ENDCHAR
STARTCHAR 028A
ENCODING 650
SWIDTH 500 0
DWIDTH 8 0
BBX 6 8 1 0
BITMAP
CC
88
84
84
84
84
48
78
ENDCHAR
STARTCHAR 028B
ENCODING 651
SWIDTH 500 0
DWIDTH 8 0
BBX 6 8 1 1
BITMAP
C8
4C
44
44
44
44
48
30
ENDCHAR
STARTCHAR 028C
ENCODING 652
SWIDTH 500 0
DWIDTH 8 0
BBX 6 8 1 1
BITMAP
20
30
50
50
48
88
88
84
ENDCHAR
STARTCHAR 028D
ENCODING 653
SWIDTH 500 0
DWIDTH 8 0
BBX 8 8 0 1
BITMAP
24
24
24
6C
5A
92
92
9B
ENDCHAR
STARTCHAR 028E
ENCODING 654
SWIDTH 500 0
DWIDTH 8 0
BBX 7 11 1 1
BITMAP
0E
0E
10
20
20
30
50
50
88
88
84
ENDCHAR
STARTCHAR 0290
ENCODING 656
SWIDTH 500 0
DWIDTH 8 0
BBX 7 10 1 -2
BITMAP
F8
90
10
20
48
88
F8
08
0A
06
ENDCHAR
STARTCHAR 0291
ENCODING 657
SWIDTH 500 0
DWIDTH 8 0
BBX 6 8 1 -1
BITMAP
F8
88
10
20
4C
B4
FC
40
ENDCHAR
STARTCHAR 0292
ENCODING 658
SWIDTH 500 0
DWIDTH 8 0
BBX 5 10 1 -2
BITMAP
F8
90
20
40
F0
18
08
88
98
70
ENDCHAR
STARTCHAR 0294
ENCODING 660
SWIDTH 500 0
DWIDTH 8 0
BBX 4 11 2 1
BITMAP
E0
B0
10
10
10
20
40
40
40
40
40
ENDCHAR
STARTCHAR 0295
ENCODING 661
SWIDTH 500 0
DWIDTH 8 0
BBX 4 11 2 1
BITMAP
70
D0
80
80
80
40
20
20
20
20
20
ENDCHAR
STARTCHAR 0298
ENCODING 664
SWIDTH 500 0
DWIDTH 8 0
BBX 6 8 1 0
BITMAP
30
48
84
B4
B4
84
48
30
ENDCHAR
STARTCHAR 029D
ENCODING 669
SWIDTH 500 0
DWIDTH 8 0
BBX 6 14 1 -2
BITMAP
30
30
00
10
30
10
10
10
10
10
10
10
F8
EC
ENDCHAR
STARTCHAR 02A1
ENCODING 673
SWIDTH 500 0
DWIDTH 8 0
BBX 5 11 2 1
BITMAP
70
98
08
08
08
10
60
40
F0
40
40
ENDCHAR
STARTCHAR 02A2
ENCODING 674
SWIDTH 500 0
DWIDTH 8 0
BBX 5 11 1 1
BITMAP
70
C8
80
80
80
40
30
10
78
10
10
ENDCHAR
STARTCHAR 02C7
ENCODING 711
SWIDTH 500 0
DWIDTH 8 0
BBX 6 2 1 10
BITMAP
CC
30
ENDCHAR
STARTCHAR 02C8
ENCODING 712
SWIDTH 500 0
DWIDTH 8 0
BBX 1 2 4 12
BITMAP
80
80
ENDCHAR
STARTCHAR 02CC
ENCODING 716
SWIDTH 500 0
DWIDTH 8 0
BBX 1 2 4 -1
BITMAP
80
80
ENDCHAR
STARTCHAR 02D0
ENCODING 720
SWIDTH 500 0
DWIDTH 8 0
BBX 2 7 3 1
BITMAP
C0
80
00
00
00
80
C0
ENDCHAR
STARTCHAR 02D1
ENCODING 721
SWIDTH 500 0
DWIDTH 8 0
BBX 2 2 3 5
BITMAP
C0
80
ENDCHAR
STARTCHAR 02D8
ENCODING 728
SWIDTH 500 0
DWIDTH 8 0
BBX 6 2 1 10
BITMAP
8C
78
ENDCHAR
STARTCHAR 02D9
ENCODING 729
SWIDTH 500 0
DWIDTH 8 0
BBX 2 2 3 10
BITMAP
C0
C0
ENDCHAR
STARTCHAR 02DB
ENCODING 731
SWIDTH 500 0
DWIDTH 8 0
BBX 4 3 2 0
BITMAP
60
80
F0
ENDCHAR
STARTCHAR 02DC
ENCODING 732
SWIDTH 500 0
DWIDTH 8 0
BBX 6 2 1 10
BITMAP
64
98
ENDCHAR
STARTCHAR 02DD
ENCODING 733
SWIDTH 500 0
DWIDTH 8 0
BBX 6 2 1 10
BITMAP
6C
90
ENDCHAR
STARTCHAR 02DE
ENCODING 734
SWIDTH 500 0
DWIDTH 8 0
BBX 5 3 1 4
BITMAP
40
A8
18
ENDCHAR
STARTCHAR 02E5
ENCODING 741
SWIDTH 500 0
DWIDTH 8 0
BBX 4 16 2 -2
BITMAP
F0
10
10
10
10
10
10
10
10
10
10
10
10
10
10
10
ENDCHAR
STARTCHAR 02E6
ENCODING 742
SWIDTH 500 0
DWIDTH 8 0
BBX 4 16 2 -2
BITMAP
10
10
10
10
F0
10
10
10
10
10
10
10
10
10
10
10
ENDCHAR
STARTCHAR 02E7
ENCODING 743
SWIDTH 500 0
DWIDTH 8 0
BBX 4 16 2 -2
BITMAP
10
10
10
10
10
10
10
10
F0
10
10
10
10
10
10
10
ENDCHAR
STARTCHAR 02E8
ENCODING 744
SWIDTH 500 0
DWIDTH 8 0
BBX 4 16 2 -2
BITMAP
10
10
10
10
10
10
10
10
10
10
10
F0
10
10
10
10
ENDCHAR
STARTCHAR 02E9
ENCODING 745
SWIDTH 500 0
DWIDTH 8 0
BBX 4 16 2 -2
BITMAP
10
10
10
10
10
10
10
10
10
10
10
10
10
10
10
F0
ENDCHAR
STARTCHAR 0300
ENCODING 768
SWIDTH 500 0
DWIDTH 8 0
BBX 3 2 2 12
BITMAP
C0
20
ENDCHAR
STARTCHAR 0301
ENCODING 769
SWIDTH 500 0
DWIDTH 8 0
BBX 3 2 3 12
BITMAP
60
80
ENDCHAR
STARTCHAR 0302
ENCODING 770
SWIDTH 500 0
DWIDTH 8 0
BBX 4 2 2 12
BITMAP
60
90
ENDCHAR
STARTCHAR 0303
ENCODING 771
SWIDTH 500 0
DWIDTH 8 0
BBX 4 1 2 12
BITMAP
F0
ENDCHAR
STARTCHAR 0304
ENCODING 772
SWIDTH 500 0
DWIDTH 8 0
BBX 4 1 2 13
BITMAP
F0
ENDCHAR
STARTCHAR 0306
ENCODING 774
SWIDTH 500 0
DWIDTH 8 0
BBX 4 2 2 12
BITMAP
90
60
ENDCHAR
STARTCHAR 0308
ENCODING 776
SWIDTH 500 0
DWIDTH 8 0
BBX 4 1 2 12
BITMAP
90
ENDCHAR
STARTCHAR 030B
ENCODING 779
SWIDTH 500 0
DWIDTH 8 0
BBX 6 2 2 12
BITMAP
7C
A0
ENDCHAR
STARTCHAR 030C
ENCODING 780
SWIDTH 500 0
DWIDTH 8 0
BBX 4 2 2 12
BITMAP
90
60
ENDCHAR
STARTCHAR 030F
ENCODING 783
SWIDTH 500 0
DWIDTH 8 0
BBX 6 2 0 12
BITMAP
F8
24
ENDCHAR
STARTCHAR 0318
ENCODING 792
SWIDTH 500 0
DWIDTH 8 0
BBX 2 2 3 -2
BITMAP
C0
40
ENDCHAR
STARTCHAR 0319
ENCODING 793
SWIDTH 500 0
DWIDTH 8 0
BBX 2 2 3 -2
BITMAP
C0
80
ENDCHAR
STARTCHAR 031A
ENCODING 794
SWIDTH 500 0
DWIDTH 8 0
BBX 2 2 5 12
BITMAP
C0
40
ENDCHAR
STARTCHAR 031C
ENCODING 796
SWIDTH 500 0
DWIDTH 8 0
BBX 2 2 3 -1
BITMAP
C0
C0
ENDCHAR
STARTCHAR 031D
ENCODING 797
SWIDTH 500 0
DWIDTH 8 0
BBX 2 1 3 -1
BITMAP
C0
ENDCHAR
STARTCHAR 031E
ENCODING 798
SWIDTH 500 0
DWIDTH 8 0
BBX 2 2 3 -2
BITMAP
C0
40
ENDCHAR
STARTCHAR 031F
ENCODING 799
SWIDTH 500 0
DWIDTH 8 0
BBX 2 2 3 -2
BITMAP
C0
40
ENDCHAR
STARTCHAR 0320
ENCODING 800
SWIDTH 500 0
DWIDTH 8 0
BBX 2 1 3 -1
BITMAP
C0
ENDCHAR
STARTCHAR 0324
ENCODING 804
SWIDTH 500 0
DWIDTH 8 0
BBX 4 1 2 -1
BITMAP
90
ENDCHAR
STARTCHAR 0325
ENCODING 805
SWIDTH 500 0
DWIDTH 8 0
BBX 2 2 3 -2
BITMAP
C0
C0
ENDCHAR
STARTCHAR 0329
ENCODING 809
SWIDTH 500 0
DWIDTH 8 0
BBX 1 2 4 -2
BITMAP
80
80
ENDCHAR
STARTCHAR 032A
ENCODING 810
SWIDTH 500 0
DWIDTH 8 0
BBX 4 1 2 -1
BITMAP
F0
ENDCHAR
STARTCHAR 032C
ENCODING 812
SWIDTH 500 0
DWIDTH 8 0
BBX 4 1 2 -1
BITMAP
F0
ENDCHAR
STARTCHAR 032F
ENCODING 815
SWIDTH 500 0
DWIDTH 8 0
BBX 4 2 2 -2
BITMAP
60
90
ENDCHAR
STARTCHAR 0330
ENCODING 816
SWIDTH 500 0
DWIDTH 8 0
BBX 4 1 2 -2
BITMAP
F0
ENDCHAR
STARTCHAR 0334
ENCODING 820
SWIDTH 500 0
DWIDTH 8 0
BBX 4 1 2 5
BITMAP
F0
ENDCHAR
STARTCHAR 0339
ENCODING 825
SWIDTH 500 0
DWIDTH 8 0
BBX 2 2 3 -1
BITMAP
C0
C0
ENDCHAR
STARTCHAR 033A
ENCODING 826
SWIDTH 500 0
DWIDTH 8 0
BBX 4 1 2 -1
BITMAP
F0
ENDCHAR
STARTCHAR 033B
ENCODING 827
SWIDTH 500 0
DWIDTH 8 0
BBX 4 1 2 -1
BITMAP
F0
ENDCHAR
STARTCHAR 033C
ENCODING 828
SWIDTH 500 0
DWIDTH 8 0
BBX 4 1 2 -2
BITMAP
F0
ENDCHAR
STARTCHAR 033D
ENCODING 829
SWIDTH 500 0
DWIDTH 8 0
BBX 4 2 2 12
BITMAP
F0
F0
ENDCHAR
STARTCHAR 0361
ENCODING 865
SWIDTH 500 0
DWIDTH 8 0
BBX 8 3 0 11
BITMAP
3C
42
81
ENDCHAR
STARTCHAR 0391
ENCODING 913
SWIDTH 1000 0
DWIDTH 16 0
BBX 10 11 3 1
BITMAP
0800
0C00
1400
1600
1200
2300
2100
7F80
4180
8080
80C0
ENDCHAR
STARTCHAR 0392
ENCODING 914
SWIDTH 1000 0
DWIDTH 16 0
BBX 9 11 4 1
BITMAP
FE00
4300
4100
4100
4200
7C00
4300
4080
4080
4180
FE00
ENDCHAR
STARTCHAR 0393
ENCODING 915
SWIDTH 1000 0
DWIDTH 16 0
BBX 10 11 3 1
BITMAP
FFC0
2040
2040
2040
2000
2000
2000
2000
2000
2000
7000
ENDCHAR
STARTCHAR 0394
ENCODING 916
SWIDTH 1000 0
DWIDTH 16 0
BBX 10 11 3 2
BITMAP
0C00
0C00
1600
1200
2200
2100
4100
4080
8080
8040
FFC0
ENDCHAR
STARTCHAR 0395
ENCODING 917
SWIDTH 1000 0
DWIDTH 16 0
BBX 10 11 3 1
BITMAP
FF80
4080
4080
4000
4200
7E00
4200
4000
4040
40C0
FFC0
ENDCHAR
STARTCHAR 0396
ENCODING 918
SWIDTH 1000 0
DWIDTH 16 0
BBX 8 11 4 1
BITMAP
FF
83
82
04
08
10
10
21
41
81
FF
ENDCHAR
STARTCHAR 0397
ENCODING 919
SWIDTH 1000 0
DWIDTH 16 0
BBX 10 11 3 1
BITMAP
E1C0
4080
4080
4080
4080
7F80
4080
4080
4080
4080
4080
ENDCHAR
STARTCHAR 0398
ENCODING 920
SWIDTH 1000 0
DWIDTH 16 0
BBX 10 11 3 1
BITMAP
1E00
6180
4080
8040
C140
BF40
C140
8040
4080
6080
1F00
ENDCHAR
STARTCHAR 0399
ENCODING 921
SWIDTH 1000 0
DWIDTH 16 0
BBX 5 11 5 1
BITMAP
F8
20
20
20
20
20
20
20
20
20
70
ENDCHAR
STARTCHAR 039A
ENCODING 922
SWIDTH 1000 0
DWIDTH 16 0
BBX 10 11 3 1
BITMAP
E3C0
4200
4400
4800
4800
7C00
4400
4200
4100
4080
E0C0
ENDCHAR
STARTCHAR 039B
ENCODING 923
SWIDTH 1000 0
DWIDTH 16 0
BBX 10 11 3 2
BITMAP
0C00
0C00
1400
1200
2200
2300
4100
4100
8180
8080
C1C0
ENDCHAR
STARTCHAR 039C
ENCODING 924
SWIDTH 1000 0
DWIDTH 16 0
BBX 12 11 2 1
BITMAP
E030
6060
50A0
50A0
50A0
4920
4920
4520
4620
4620
C430
ENDCHAR
STARTCHAR 039D
ENCODING 925
SWIDTH 1000 0
DWIDTH 16 0
BBX 10 12 3 0
BITMAP
E1C0
6080
5080
4880
4880
4480
4480
4280
4180
4180
C080
2000
ENDCHAR
STARTCHAR 039E
ENCODING 926
SWIDTH 1000 0
DWIDTH 16 0
BBX 10 11 3 1
BITMAP
7F80
8080
0000
0000
4100
3F00
4100
0000
0000
8040
FFC0
ENDCHAR
STARTCHAR 039F
ENCODING 927
SWIDTH 1000 0
DWIDTH 16 0
BBX 10 11 3 1
BITMAP
1E00
6180
4080
8040
8040
8040
8040
8040
4080
6080
1F00
ENDCHAR
STARTCHAR 03A0
ENCODING 928
SWIDTH 1000 0
DWIDTH 16 0
BBX 10 11 3 1
BITMAP
FFC0
4080
4080
4080
4080
4080
4080
4080
4080
4080
4080
ENDCHAR
STARTCHAR 03A1
ENCODING 929
SWIDTH 1000 0
DWIDTH 16 0
BBX 9 11 4 1
BITMAP
FE00
4180
4080
4080
4180
7E00
4000
4000
4000
4000
E000
ENDCHAR
STARTCHAR 03A3
ENCODING 931
SWIDTH 1000 0
DWIDTH 16 0
BBX 10 11 3 1
BITMAP
FF80
C080
6080
1000
0800
0400
0800
3000
4040
80C0
FFC0
ENDCHAR
STARTCHAR 03A4
ENCODING 932
SWIDTH 1000 0
DWIDTH 16 0
BBX 10 11 3 1
BITMAP
FFC0
8840
0840
0840
0800
0800
0800
0800
0800
0800
0800
ENDCHAR
STARTCHAR 03A5
ENCODING 933
SWIDTH 1000 0
DWIDTH 16 0
BBX 11 11 2 1
BITMAP
3B80
4A40
8440
8420
0400
0400
0400
0400
0400
0400
0400
ENDCHAR
STARTCHAR 03A6
ENCODING 934
SWIDTH 1000 0
DWIDTH 16 0
BBX 11 11 2 1
BITMAP
0E00
0400
3F80
4440
8420
8420
8420
4440
2480
1F00
0C00
ENDCHAR
STARTCHAR 03A7
ENCODING 935
SWIDTH 1000 0
DWIDTH 16 0
BBX 11 11 2 1
BITMAP
F9E0
2080
1100
0900
0600
0600
0B00
0900
1080
2040
6060
ENDCHAR
STARTCHAR 03A8
ENCODING 936
SWIDTH 1000 0
DWIDTH 16 0
BBX 12 11 2 1
BITMAP
EE70
A450
2440
2440
2440
2440
2480
1500
0E00
0400
0600
ENDCHAR
STARTCHAR 03A9
ENCODING 937
SWIDTH 1000 0
DWIDTH 16 0
BBX 10 11 3 1
BITMAP
1E00
6180
4080
8040
8040
8040
8040
4080
2100
1240
F3C0
ENDCHAR
STARTCHAR 03B1
ENCODING 945
SWIDTH 1000 0
DWIDTH 16 0
BBX 9 7 4 1
BITMAP
1900
2600
4600
8400
8400
8D00
7780
ENDCHAR
STARTCHAR 03B2
ENCODING 946
SWIDTH 1000 0
DWIDTH 16 0
BBX 8 14 3 -2
BITMAP
0E
11
11
21
21
3E
42
41
41
43
7C
40
40
C0
ENDCHAR
STARTCHAR 03B3
ENCODING 947
SWIDTH 1000 0
DWIDTH 16 0
BBX 9 10 3 -2
BITMAP
7080
9100
0A00
0A00
0C00
0800
0800
0800
0800
0800
ENDCHAR
STARTCHAR 03B4
ENCODING 948
SWIDTH 1000 0
DWIDTH 16 0
BBX 8 11 4 1
BITMAP
3E
23
20
18
0C
32
42
82
86
8C
78
ENDCHAR
STARTCHAR 03B5
ENCODING 949
SWIDTH 1000 0
DWIDTH 16 0
BBX 7 7 4 1
BITMAP
3C
42
40
38
C0
80
7E
ENDCHAR
STARTCHAR 03B6
ENCODING 950
SWIDTH 1000 0
DWIDTH 16 0
BBX 7 14 4 -1
BITMAP
36
2C
10
20
40
40
80
80
80
80
60
1C
24
1C
ENDCHAR
STARTCHAR 03B7
ENCODING 951
SWIDTH 1000 0
DWIDTH 16 0
BBX 8 10 3 -2
BITMAP
7E
99
11
11
23
22
42
02
06
04
ENDCHAR
STARTCHAR 03B8
ENCODING 952
SWIDTH 1000 0
DWIDTH 16 0
BBX 7 11 4 1
BITMAP
1C
32
62
42
C2
FE
82
84
84
88
70
ENDCHAR
STARTCHAR 03B9
ENCODING 953
SWIDTH 1000 0
DWIDTH 16 0
BBX 5 7 5 1
BITMAP
30
20
40
80
80
88
F0
ENDCHAR
STARTCHAR 03BA
ENCODING 954
SWIDTH 1000 0
DWIDTH 16 0
BBX 8 7 4 1
BITMAP
33
2C
30
78
48
49
8E
ENDCHAR
STARTCHAR 03BB
ENCODING 955
SWIDTH 1000 0
DWIDTH 16 0
BBX 8 11 4 1
BITMAP
38
48
08
08
08
18
38
28
48
C9
86
ENDCHAR
STARTCHAR 03BC
ENCODING 956
SWIDTH 1000 0
DWIDTH 16 0
BBX 9 11 3 -2
BITMAP
2000
1180
2100
4300
4200
4200
4680
BB80
8000
8000
8000
ENDCHAR
STARTCHAR 03BD
ENCODING 957
SWIDTH 1000 0
DWIDTH 16 0
BBX 8 8 4 0
BITMAP
E3
21
21
23
26
2C
30
40
ENDCHAR
STARTCHAR 03BE
ENCODING 958
SWIDTH 1000 0
DWIDTH 16 0
BBX 6 14 5 -1
BITMAP
4C
30
20
40
40
3C
40
80
80
80
60
18
48
70
ENDCHAR
STARTCHAR 03BF
ENCODING 959
SWIDTH 1000 0
DWIDTH 16 0
BBX 6 7 5 1
BITMAP
38
4C
84
84
84
C8
70
ENDCHAR
STARTCHAR 03C0
ENCODING 960
SWIDTH 1000 0
DWIDTH 16 0
BBX 8 8 4 1
BITMAP
01
7F
A4
28
28
48
49
CE
ENDCHAR
STARTCHAR 03C1
ENCODING 961
SWIDTH 1000 0
DWIDTH 16 0
BBX 8 10 3 -2
BITMAP
0E
13
21
21
61
52
5C
40
40
C0
ENDCHAR
STARTCHAR 03C2
ENCODING 962
SWIDTH 500 0
DWIDTH 8 0
BBX 6 10 1 -2
BITMAP
78
C4
84
80
80
60
10
08
88
70
ENDCHAR
STARTCHAR 03C3
ENCODING 963
SWIDTH 1000 0
DWIDTH 16 0
BBX 8 8 5 1
BITMAP
3F
4C
84
84
84
84
C8
70
ENDCHAR
STARTCHAR 03C4
ENCODING 964
SWIDTH 1000 0
DWIDTH 16 0
BBX 8 8 4 1
BITMAP
01
7F
90
10
20
20
24
38
ENDCHAR
STARTCHAR 03C5
ENCODING 965
SWIDTH 1000 0
DWIDTH 16 0
BBX 9 7 3 1
BITMAP
7180
9180
1080
2080
2080
2100
1E00
ENDCHAR
STARTCHAR 03C6
ENCODING 966
SWIDTH 1000 0
DWIDTH 16 0
BBX 8 13 4 -2
BITMAP
04
04
08
3E
49
91
91
91
92
64
38
20
20
ENDCHAR
STARTCHAR 03C7
ENCODING 967
SWIDTH 1000 0
DWIDTH 16 0
BBX 8 10 4 -2
BITMAP
63
92
14
18
08
10
30
49
4A
86
ENDCHAR
STARTCHAR 03C8
ENCODING 968
SWIDTH 1000 0
DWIDTH 16 0
BBX 9 13 4 -2
BITMAP
0400
0400
2600
4900
4880
8880
9080
9080
9100
7600
2800
2000
2000
ENDCHAR
STARTCHAR 03C9
ENCODING 969
SWIDTH 1000 0
DWIDTH 16 0
BBX 10 7 3 2
BITMAP
3080
4040
8440
8440
8440
88C0
7780
ENDCHAR
STARTCHAR 0401
ENCODING 1025
SWIDTH 1000 0
DWIDTH 16 0
BBX 10 13 3 1
BITMAP
3300
3300
FF80
4080
4080
4000
4200
7E00
4200
4000
4040
40C0
FFC0
ENDCHAR
STARTCHAR 0410
ENCODING 1040
SWIDTH 1000 0
DWIDTH 16 0
BBX 10 11 3 1
BITMAP
0800
0C00
1400
1600
1200
2300
2100
7F80
4180
8080
80C0
ENDCHAR
STARTCHAR 0411
ENCODING 1041
SWIDTH 1000 0
DWIDTH 16 0
BBX 9 11 4 1
BITMAP
FF00
4100
4100
4000
4000
7E00
4180
4080
4080
4180
FE00
ENDCHAR
STARTCHAR 0412
ENCODING 1042
SWIDTH 1000 0
DWIDTH 16 0
BBX 9 11 4 1
BITMAP
FE00
4300
4100
4100
4200
7C00
4300
4080
4080
4180
FE00
ENDCHAR
STARTCHAR 0413
ENCODING 1043
SWIDTH 1000 0
DWIDTH 16 0
BBX 10 11 3 1
BITMAP
FFC0
2040
2040
2040
2000
2000
2000
2000
2000
2000
7000
ENDCHAR
STARTCHAR 0414
ENCODING 1044
SWIDTH 1000 0
DWIDTH 16 0
BBX 12 13 2 -2
BITMAP
3FF0
1040
1040
1040
1040
1040
2040
2040
2040
4040
FFF0
8010
8010
ENDCHAR
STARTCHAR 0415
ENCODING 1045
SWIDTH 1000 0
DWIDTH 16 0
BBX 10 11 3 1
BITMAP
FF80
4080
4080
4000
4200
7E00
4200
4000
4040
40C0
FFC0
ENDCHAR
STARTCHAR 0416
ENCODING 1046
SWIDTH 1000 0
DWIDTH 16 0
BBX 13 11 1 1
BITMAP
C718
A228
2220
2240
1240
0F80
1240
3260
2220
4210
C218
ENDCHAR
STARTCHAR 0417
ENCODING 1047
SWIDTH 1000 0
DWIDTH 16 0
BBX 9 11 4 1
BITMAP
3E00
6300
4100
0100
0200
1C00
0300
0080
8080
C080
FF00
ENDCHAR
STARTCHAR 0418
ENCODING 1048
SWIDTH 1000 0
DWIDTH 16 0
BBX 10 11 3 1
BITMAP
E1C0
4080
4080
4380
4480
4880
5080
6080
4080
4080
E1C0
ENDCHAR
STARTCHAR 0419
ENCODING 1049
SWIDTH 1000 0
DWIDTH 16 0
BBX 10 13 3 1
BITMAP
1200
1C00
E1C0
4080
4080
4380
4480
4880
5080
6080
4080
4080
E1C0
ENDCHAR
STARTCHAR 041A
ENCODING 1050
SWIDTH 1000 0
DWIDTH 16 0
BBX 10 11 3 2
BITMAP
E1C0
42C0
4200
4400
4800
7C00
4400
4200
4100
4080
E0C0
ENDCHAR
STARTCHAR 041B
ENCODING 1051
SWIDTH 1000 0
DWIDTH 16 0
BBX 11 11 2 1
BITMAP
1FE0
0840
0840
0840
0840
0840
0840
0840
C840
D040
7040
ENDCHAR
STARTCHAR 041C
ENCODING 1052
SWIDTH 1000 0
DWIDTH 16 0
BBX 12 11 2 1
BITMAP
E070
60A0
50A0
5120
5920
8920
8A20
8620
8420
8420
C030
ENDCHAR
STARTCHAR 041D
ENCODING 1053
SWIDTH 1000 0
DWIDTH 16 0
BBX 10 11 3 1
BITMAP
E1C0
4080
4080
4080
4080
7F80
4080
4080
4080
4080
4080
ENDCHAR
STARTCHAR 041E
ENCODING 1054
SWIDTH 1000 0
DWIDTH 16 0
BBX 10 11 3 1
BITMAP
1E00
6180
4080
8040
8040
8040
8040
8040
4080
6080
1F00
ENDCHAR
STARTCHAR 041F
ENCODING 1055
SWIDTH 1000 0
DWIDTH 16 0
BBX 10 11 3 1
BITMAP
FFC0
4080
4080
4080
4080
4080
4080
4080
4080
4080
4080
ENDCHAR
STARTCHAR 0420
ENCODING 1056
SWIDTH 1000 0
DWIDTH 16 0
BBX 9 11 4 1
BITMAP
FE00
4180
4080
4080
4180
7E00
4000
4000
4000
4000
E000
ENDCHAR
STARTCHAR 0421
ENCODING 1057
SWIDTH 1000 0
DWIDTH 16 0
BBX 10 11 3 1
BITMAP
1F00
30C0
4040
C000
8000
8000
8000
8000
4040
2040
1FC0
ENDCHAR
STARTCHAR 0422
ENCODING 1058
SWIDTH 1000 0
DWIDTH 16 0
BBX 10 11 3 1
BITMAP
FFC0
8840
0840
0840
0800
0800
0800
0800
0800
0800
0800
ENDCHAR
STARTCHAR 0423
ENCODING 1059
SWIDTH 1000 0
DWIDTH 16 0
BBX 11 11 3 1
BITMAP
F1E0
2080
3100
1100
1A00
0A00
0C00
0400
0800
C800
F000
ENDCHAR
STARTCHAR 0424
ENCODING 1060
SWIDTH 1000 0
DWIDTH 16 0
BBX 11 11 2 1
BITMAP
0E00
0400
3F80
4440
8420
8420
8420
4440
2480
1F00
0C00
ENDCHAR
STARTCHAR 0425
ENCODING 1061
SWIDTH 1000 0
DWIDTH 16 0
BBX 11 11 2 1
BITMAP
F9E0
2080
1100
0900
0600
0600
0B00
0900
1080
2040
6060
ENDCHAR
STARTCHAR 0426
ENCODING 1062
SWIDTH 1000 0
DWIDTH 16 0
BBX 11 13 3 -2
BITMAP
E1E0
4080
4080
4080
4080
4080
4080
4080
4080
4080
FFE0
0020
0020
ENDCHAR
STARTCHAR 0427
ENCODING 1063
SWIDTH 1000 0
DWIDTH 16 0
BBX 10 11 3 1
BITMAP
F3C0
4080
4080
4080
4080
6080
3F80
0080
0080
0080
01C0
ENDCHAR
STARTCHAR 0428
ENCODING 1064
SWIDTH 1000 0
DWIDTH 16 0
BBX 12 11 2 1
BITMAP
EE70
4420
4420
4420
4420
4420
4420
4420
4420
4420
FFF0
ENDCHAR
STARTCHAR 0429
ENCODING 1065
SWIDTH 1000 0
DWIDTH 16 0
BBX 13 13 2 -2
BITMAP
EE78
4420
4420
4420
4420
4420
4420
4420
4420
4420
FFF8
0008
0008
ENDCHAR
STARTCHAR 042A
ENCODING 1066
SWIDTH 1000 0
DWIDTH 16 0
BBX 12 11 2 1
BITMAP
FE00
8800
0800
0800
0800
0FC0
0830
0810
0810
0830
3FC0
ENDCHAR
STARTCHAR 042B
ENCODING 1067
SWIDTH 1000 0
DWIDTH 16 0
BBX 12 11 2 1
BITMAP
F070
4020
4020
4020
4020
7E20
41A0
40A0
40A0
41A0
FE70
ENDCHAR
STARTCHAR 042C
ENCODING 1068
SWIDTH 1000 0
DWIDTH 16 0
BBX 9 11 4 1
BITMAP
F000
4000
4000
4000
4000
7E00
4180
4080
4080
4180
FE00
ENDCHAR
STARTCHAR 042D
ENCODING 1069
SWIDTH 1000 0
DWIDTH 16 0
BBX 10 11 3 1
BITMAP
7C00
C300
8180
0080
00C0
78C0
07C0
00C0
0080
8380
FE00
ENDCHAR
STARTCHAR 042E
ENCODING 1070
SWIDTH 1000 0
DWIDTH 16 0
BBX 13 11 2 1
BITMAP
E3E0
4630
4410
4808
4808
7808
4808
4808
4C10
4630
43E0
ENDCHAR
STARTCHAR 042F
ENCODING 1071
SWIDTH 1000 0
DWIDTH 16 0
BBX 10 12 3 0
BITMAP
1FC0
6080
4080
4080
6080
1F80
0C80
0880
1080
2080
4080
8340
ENDCHAR
STARTCHAR 0430
ENCODING 1072
SWIDTH 1000 0
DWIDTH 16 0
BBX 8 7 5 0
BITMAP
78
C4
04
3C
C4
84
FF
ENDCHAR
STARTCHAR 0431
ENCODING 1073
SWIDTH 1000 0
DWIDTH 16 0
BBX 8 11 4 2
BITMAP
01
3E
60
40
BC
C2
81
81
81
42
3C
ENDCHAR
STARTCHAR 0432
ENCODING 1074
SWIDTH 1000 0
DWIDTH 16 0
BBX 8 7 4 1
BITMAP
FC
42
42
7C
43
41
FE
ENDCHAR
STARTCHAR 0433
ENCODING 1075
SWIDTH 1000 0
DWIDTH 16 0
BBX 7 7 5 1
BITMAP
FE
42
42
40
40
40
40
ENDCHAR
STARTCHAR 0434
ENCODING 1076
SWIDTH 1000 0
DWIDTH 16 0
BBX 10 9 3 -2
BITMAP
3FC0
1100
1100
2100
2100
4100
FFC0
8040
0040
ENDCHAR
STARTCHAR 0435
ENCODING 1077
SWIDTH 1000 0
DWIDTH 16 0
BBX 8 7 4 1
BITMAP
3C
42
C2
FF
80
40
3E
ENDCHAR
STARTCHAR 0436
ENCODING 1078
SWIDTH 1000 0
DWIDTH 16 0
BBX 11 7 3 1
BITMAP
CE60
2480
2500
3E80
2480
4440
C460
ENDCHAR
STARTCHAR 0437
ENCODING 1079
SWIDTH 1000 0
DWIDTH 16 0
BBX 7 8 5 0
BITMAP
F8
84
04
38
06
02
F4
08
ENDCHAR
STARTCHAR 0438
ENCODING 1080
SWIDTH 1000 0
DWIDTH 16 0
BBX 8 7 4 1
BITMAP
E7
42
4E
52
62
42
42
ENDCHAR
STARTCHAR 0439
ENCODING 1081
SWIDTH 1000 0
DWIDTH 16 0
BBX 8 10 4 1
BITMAP
24
3C
00
E7
42
4E
52
62
42
42
ENDCHAR
STARTCHAR 043A
ENCODING 1082
SWIDTH 1000 0
DWIDTH 16 0
BBX 8 7 4 1
BITMAP
E3
44
48
78
44
42
43
ENDCHAR
STARTCHAR 043B
ENCODING 1083
SWIDTH 1000 0
DWIDTH 16 0
BBX 9 7 3 1
BITMAP
3F80
1100
1100
1100
1100
9100
E100
ENDCHAR
STARTCHAR 043C
ENCODING 1084
SWIDTH 1000 0
DWIDTH 16 0
BBX 10 7 3 1
BITMAP
E1C0
6180
5280
5280
4C80
4C80
4880
ENDCHAR
STARTCHAR 043D
ENCODING 1085
SWIDTH 1000 0
DWIDTH 16 0
BBX 8 7 4 1
BITMAP
E7
42
42
7E
42
42
42
ENDCHAR
STARTCHAR 043E
ENCODING 1086
SWIDTH 1000 0
DWIDTH 16 0
BBX 8 7 4 1
BITMAP
3C
42
81
81
81
42
3C
ENDCHAR
STARTCHAR 043F
ENCODING 1087
SWIDTH 1000 0
DWIDTH 16 0
BBX 8 7 4 1
BITMAP
FF
42
42
42
42
42
42
ENDCHAR
STARTCHAR 0440
ENCODING 1088
SWIDTH 1000 0
DWIDTH 16 0
BBX 8 10 4 -1
BITMAP
FC
42
41
41
41
42
7C
40
40
E0
ENDCHAR
STARTCHAR 0441
ENCODING 1089
SWIDTH 1000 0
DWIDTH 16 0
BBX 7 7 4 1
BITMAP
3C
42
80
80
80
42
3C
ENDCHAR
STARTCHAR 0442
ENCODING 1090
SWIDTH 1000 0
DWIDTH 16 0
BBX 8 7 4 1
BITMAP
FF
89
09
08
08
08
08
ENDCHAR
STARTCHAR 0443
ENCODING 1091
SWIDTH 1000 0
DWIDTH 16 0
BBX 9 10 4 -2
BITMAP
E780
4200
2200
2400
1400
0800
0800
5000
5000
6000
ENDCHAR
STARTCHAR 0444
ENCODING 1092
SWIDTH 1000 0
DWIDTH 16 0
BBX 9 14 4 -2
BITMAP
1800
0800
0800
0800
7F00
8980
8880
8880
8880
C980
7F00
0800
0800
1C00
ENDCHAR
STARTCHAR 0445
ENCODING 1093
SWIDTH 1000 0
DWIDTH 16 0
BBX 9 7 3 1
BITMAP
F380
1200
0C00
0C00
1200
2300
6180
ENDCHAR
STARTCHAR 0446
ENCODING 1094
SWIDTH 1000 0
DWIDTH 16 0
BBX 8 9 4 -2
BITMAP
E7
42
42
42
42
42
FF
01
01
ENDCHAR
STARTCHAR 0447
ENCODING 1095
SWIDTH 1000 0
DWIDTH 16 0
BBX 8 7 4 1
BITMAP
E7
42
42
42
3E
02
02
ENDCHAR
STARTCHAR 0448
ENCODING 1096
SWIDTH 1000 0
DWIDTH 16 0
BBX 12 7 2 1
BITMAP
E770
4220
4220
4220
4220
4220
FFF0
ENDCHAR
STARTCHAR 0449
ENCODING 1097
SWIDTH 1000 0
DWIDTH 16 0
BBX 12 9 2 -2
BITMAP
E770
4220
4220
4220
4220
4220
FFF0
0010
0010
ENDCHAR
STARTCHAR 044A
ENCODING 1098
SWIDTH 1000 0
DWIDTH 16 0
BBX 8 7 4 1
BITMAP
F0
20
20
3E
21
21
7E
ENDCHAR
STARTCHAR 044B
ENCODING 1099
SWIDTH 1000 0
DWIDTH 16 0
BBX 10 7 3 1
BITMAP
E1C0
4080
4080
7C80
4280
4280
FDC0
ENDCHAR
STARTCHAR 044C
ENCODING 1100
SWIDTH 1000 0
DWIDTH 16 0
BBX 7 7 4 1
BITMAP
E0
40
40
7C
42
42
FC
ENDCHAR
STARTCHAR 044D
ENCODING 1101
SWIDTH 1000 0
DWIDTH 16 0
BBX 7 7 5 1
BITMAP
FC
86
02
7E
82
04
F8
ENDCHAR
STARTCHAR 044E
ENCODING 1102
SWIDTH 1000 0
DWIDTH 16 0
BBX 11 7 3 1
BITMAP
E780
4C40
4820
7820
4820
4C40
4780
ENDCHAR
STARTCHAR 044F
ENCODING 1103
SWIDTH 1000 0
DWIDTH 16 0
BBX 8 8 4 0
BITMAP
3F
42
42
3E
12
22
42
85
ENDCHAR
STARTCHAR 0451
ENCODING 1105
SWIDTH 1000 0
DWIDTH 16 0
BBX 8 10 4 1
BITMAP
66
66
00
3C
42
C2
FF
80
40
3E
ENDCHAR
STARTCHAR 1E3E
ENCODING 7742
SWIDTH 500 0
DWIDTH 8 0
BBX 8 13 0 1
BITMAP
0C
10
E3
66
66
66
6A
5A
5A
5A
5A
52
52
ENDCHAR
STARTCHAR 1E3F
ENCODING 7743
SWIDTH 500 0
DWIDTH 8 0
BBX 7 10 0 1
BITMAP
0C
10
00
FE
4A
4A
4A
4A
4A
4A
ENDCHAR
STARTCHAR 1F70
ENCODING 8048
SWIDTH 500 0
DWIDTH 8 0
BBX 6 11 1 0
BITMAP
60
10
00
78
C8
88
88
88
88
4C
7C
ENDCHAR
STARTCHAR 1F71
ENCODING 8049
SWIDTH 500 0
DWIDTH 8 0
BBX 6 11 1 0
BITMAP
18
20
00
78
C8
88
88
88
88
4C
7C
ENDCHAR
STARTCHAR 1F72
ENCODING 8050
SWIDTH 500 0
DWIDTH 8 0
BBX 6 11 1 0
BITMAP
60
10
00
7C
84
80
70
C0
84
C4
78
ENDCHAR
STARTCHAR 1F73
ENCODING 8051
SWIDTH 500 0
DWIDTH 8 0
BBX 6 11 1 0
BITMAP
18
20
00
7C
84
80
70
C0
84
C4
78
ENDCHAR
STARTCHAR 2010
ENCODING 8208
SWIDTH 1000 0
DWIDTH 16 0
BBX 6 1 5 5
BITMAP
FC
ENDCHAR
STARTCHAR 2013
ENCODING 8211
SWIDTH 500 0
DWIDTH 8 0
BBX 4 1 2 5
BITMAP
F0
ENDCHAR
STARTCHAR 2014
ENCODING 8212
SWIDTH 1000 0
DWIDTH 16 0
BBX 14 1 1 5
BITMAP
FFFC
ENDCHAR
STARTCHAR 2015
ENCODING 8213
SWIDTH 1000 0
DWIDTH 16 0
BBX 14 1 1 5
BITMAP
FFFC
ENDCHAR
STARTCHAR 2016
ENCODING 8214
SWIDTH 1000 0
DWIDTH 16 0
BBX 4 16 6 -2
BITMAP
90
90
90
90
90
90
90
90
90
90
90
90
90
90
90
90
ENDCHAR
STARTCHAR 2018
ENCODING 8216
SWIDTH 1000 0
DWIDTH 16 0
BBX 3 4 12 10
BITMAP
60
C0
E0
E0
ENDCHAR
STARTCHAR 2019
ENCODING 8217
SWIDTH 1000 0
DWIDTH 16 0
BBX 3 5 1 8
BITMAP
E0
E0
40
40
80
ENDCHAR
STARTCHAR 201C
ENCODING 8220
SWIDTH 1000 0
DWIDTH 16 0
BBX 6 4 9 10
BITMAP
6C
98
DC
DC
ENDCHAR
STARTCHAR 201D
ENCODING 8221
SWIDTH 1000 0
DWIDTH 16 0
BBX 6 5 1 8
BITMAP
EC
EC
4C
48
90
ENDCHAR
STARTCHAR 2020
ENCODING 8224
SWIDTH 1000 0
DWIDTH 16 0
BBX 7 14 5 -1
BITMAP
38
38
D6
FE
10
38
10
10
10
10
10
10
10
10
ENDCHAR
STARTCHAR 2021
ENCODING 8225
SWIDTH 1000 0
DWIDTH 16 0
BBX 6 15 5 -1
BITMAP
30
30
30
FC
30
20
20
20
20
20
30
EC
FC
30
30
ENDCHAR
STARTCHAR 2022
ENCODING 8226
SWIDTH 500 0
DWIDTH 8 0
BBX 3 3 2 5
BITMAP
E0
E0
E0
ENDCHAR
STARTCHAR 2025
ENCODING 8229
SWIDTH 1000 0
DWIDTH 16 0
BBX 10 2 3 5
BITMAP
C0C0
C0C0
ENDCHAR
STARTCHAR 2026
ENCODING 8230
SWIDTH 1000 0
DWIDTH 16 0
BBX 12 2 2 5
BITMAP
C630
C630
ENDCHAR
STARTCHAR 2030
ENCODING 8240
SWIDTH 1000 0
DWIDTH 16 0
BBX 14 14 1 -1
BITMAP
0100
6100
9200
9200
9400
9400
6800
0B18
14A4
14A4
24A4
24A4
4318
4000
ENDCHAR
STARTCHAR 2032
ENCODING 8242
SWIDTH 1000 0
DWIDTH 16 0
BBX 2 4 1 8
BITMAP
40
80
80
80
ENDCHAR
STARTCHAR 2033
ENCODING 8243
SWIDTH 1000 0
DWIDTH 16 0
BBX 4 4 1 8
BITMAP
50
90
A0
A0
ENDCHAR
STARTCHAR 203B
ENCODING 8251
SWIDTH 1000 0
DWIDTH 16 0
BBX 12 12 2 0
BITMAP
8610
4620
2040
1080
0900
C630
C630
0900
1080
2040
4620
8610
ENDCHAR
STARTCHAR 203C
ENCODING 8252
SWIDTH 500 0
DWIDTH 8 0
BBX 5 14 2 -1
BITMAP
90
90
90
90
90
90
90
90
90
90
00
00
D8
D8
ENDCHAR
STARTCHAR 203E
ENCODING 8254
SWIDTH 1000 0
DWIDTH 16 0
BBX 0 0 0 14
BITMAP
ENDCHAR
STARTCHAR 203F
ENCODING 8255
SWIDTH 500 0
DWIDTH 8 0
BBX 6 1 1 0
BITMAP
FC
ENDCHAR
STARTCHAR 2042
ENCODING 8258
SWIDTH 500 0
DWIDTH 8 0
BBX 8 10 0 1
BITMAP
10
34
18
34
00
44
DD
66
FF
44
ENDCHAR
STARTCHAR 2047
ENCODING 8263
SWIDTH 500 0
DWIDTH 8 0
BBX 7 14 1 -1
BITMAP
4C
B2
B2
B2
22
64
48
48
48
48
00
00
CC
4C
ENDCHAR
STARTCHAR 2048
ENCODING 8264
SWIDTH 500 0
DWIDTH 8 0
BBX 8 14 0 -1
BITMAP
72
8A
CA
CA
0A
12
22
22
22
22
00
00
63
23
ENDCHAR
STARTCHAR 2049
ENCODING 8265
SWIDTH 500 0
DWIDTH 8 0
BBX 7 14 0 -1
BITMAP
DC
E2
F2
F2
C2
C4
C8
88
88
88
00
00
D8
D8
ENDCHAR
STARTCHAR 2051
ENCODING 8273
SWIDTH 1000 0
DWIDTH 16 0
BBX 4 12 6 0
BITMAP
40
D0
60
D0
40
00
00
40
D0
60
F0
40
ENDCHAR
STARTCHAR 20AC
ENCODING 8364
SWIDTH 500 0
DWIDTH 8 0
BBX 6 12 1 0
BITMAP
3C
24
44
40
F8
40
F8
40
44
44
24
38
ENDCHAR
STARTCHAR 2103
ENCODING 8451
SWIDTH 1000 0
DWIDTH 16 0
BBX 14 12 0 2
BITMAP
F000
93E8
E418
0808
1000
1000
1000
1000
1004
0808
0410
03E0
ENDCHAR
STARTCHAR 210F
ENCODING 8463
SWIDTH 500 0
DWIDTH 8 0
BBX 7 12 1 0
BITMAP
60
20
38
40
D8
68
48
48
88
8C
8E
0C
ENDCHAR
STARTCHAR 2113
ENCODING 8467
SWIDTH 500 0
DWIDTH 8 0
BBX 7 12 0 0
BITMAP
06
0A
12
12
24
24
28
28
32
62
A4
18
ENDCHAR
STARTCHAR 2116
ENCODING 8470
SWIDTH 1000 0
DWIDTH 16 0
BBX 14 12 1 0
BITMAP
CE00
6400
6400
64E0
55B0
5510
5510
4D10
4D10
45BC
44EC
A000
ENDCHAR
STARTCHAR 2121
ENCODING 8481
SWIDTH 1000 0
DWIDTH 16 0
BBX 14 11 1 1
BITMAP
F800
2800
2800
27B8
2290
2210
2290
2390
2290
2294
2294
ENDCHAR
STARTCHAR 2127
ENCODING 8487
SWIDTH 500 0
DWIDTH 8 0
BBX 6 12 1 0
BITMAP
CC
54
48
88
84
84
84
84
84
84
48
30
ENDCHAR
STARTCHAR 212B
ENCODING 8491
SWIDTH 1000 0
DWIDTH 16 0
BBX 10 13 3 1
BITMAP
1C00
1400
0C00
0C00
0C00
1400
1200
2200
2300
3F00
4100
8080
80C0
ENDCHAR
STARTCHAR 2135
ENCODING 8501
SWIDTH 500 0
DWIDTH 8 0
BBX 6 12 1 1
BITMAP
88
88
C4
4C
30
70
90
88
8C
84
84
08
ENDCHAR
STARTCHAR 2153
ENCODING 8531
SWIDTH 500 0
DWIDTH 8 0
BBX 7 14 0 -1
BITMAP
C2
44
44
44
48
48
50
BE
22
24
42
42
8A
8E
ENDCHAR
STARTCHAR 2154
ENCODING 8532
SWIDTH 500 0
DWIDTH 8 0
BBX 6 15 1 -2
BITMAP
60
A4
A8
28
48
90
90
F0
1C
24
48
44
44
94
9C
ENDCHAR
STARTCHAR 2155
ENCODING 8533
SWIDTH 500 0
DWIDTH 8 0
BBX 7 14 0 -1
BITMAP
C2
44
44
48
48
48
50
BE
28
28
4E
42
82
8C
ENDCHAR
STARTCHAR 2160
ENCODING 8544
SWIDTH 1000 0
DWIDTH 16 0
BBX 5 11 5 1
BITMAP
F8
20
20
20
20
20
20
20
20
20
70
ENDCHAR
STARTCHAR 2161
ENCODING 8545
SWIDTH 1000 0
DWIDTH 16 0
BBX 10 11 3 1
BITMAP
FFC0
2100
2100
2100
2100
2100
2100
2100
2100
2100
FFC0
ENDCHAR
STARTCHAR 2162
ENCODING 8546
SWIDTH 1000 0
DWIDTH 16 0
BBX 12 11 2 1
BITMAP
FFF0
4420
4420
4420
4420
4420
4420
4420
4420
4420
FFF0
ENDCHAR
STARTCHAR 2163
ENCODING 8547
SWIDTH 1000 0
DWIDTH 16 0
BBX 14 12 1 0
BITMAP
FF1C
2408
2210
2210
2210
2120
2120
2120
20C0
20C0
7080
8800
ENDCHAR
STARTCHAR 2164
ENCODING 8548
SWIDTH 1000 0
DWIDTH 16 0
BBX 12 11 2 0
BITMAP
F8F0
2040
3040
1080
1080
1880
0900
0D00
0600
0600
0200
ENDCHAR
STARTCHAR 2165
ENCODING 8549
SWIDTH 1000 0
DWIDTH 16 0
BBX 14 12 1 0
BITMAP
F1FC
4090
2110
2110
2110
1210
1210
1210
0C10
0C10
0838
0044
ENDCHAR
STARTCHAR 2166
ENCODING 8550
SWIDTH 1000 0
DWIDTH 16 0
BBX 15 12 0 0
BITMAP
F3FE
2124
2124
3124
1224
1224
1224
0C24
0C24
0C24
047C
0002
ENDCHAR
STARTCHAR 2167
ENCODING 8551
SWIDTH 1000 0
DWIDTH 16 0
BBX 15 12 0 0
BITMAP
F3FE
2254
2254
3254
3254
1454
1454
1454
0C54
0854
0854
00AA
ENDCHAR
STARTCHAR 2168
ENCODING 8552
SWIDTH 1000 0
DWIDTH 16 0
BBX 13 11 2 1
BITMAP
FF78
4420
4240
4340
4180
4080
41C0
4240
4260
4430
FE78
ENDCHAR
STARTCHAR 2169
ENCODING 8553
SWIDTH 1000 0
DWIDTH 16 0
BBX 11 11 2 1
BITMAP
F9E0
2080
1100
0900
0600
0600
0B00
0900
1080
2040
6060
ENDCHAR
STARTCHAR 216A
ENCODING 8554
SWIDTH 1000 0
DWIDTH 16 0
BBX 13 11 1 1
BITMAP
FBF8
2110
1210
1410
0C10
0810
1410
1210
2210
4110
41B0
ENDCHAR
STARTCHAR 216B
ENCODING 8555
SWIDTH 1000 0
DWIDTH 16 0
BBX 14 11 1 1
BITMAP
F7FC
4248
2448
1848
1848
0848
1848
2448
2448
4248
C34C
ENDCHAR
STARTCHAR 2170
ENCODING 8560
SWIDTH 1000 0
DWIDTH 16 0
BBX 3 11 7 2
BITMAP
60
60
00
40
C0
40
40
40
40
40
40
ENDCHAR
STARTCHAR 2171
ENCODING 8561
SWIDTH 1000 0
DWIDTH 16 0
BBX 8 11 4 2
BITMAP
63
63
00
42
C6
42
42
42
42
42
42
ENDCHAR
STARTCHAR 2172
ENCODING 8562
SWIDTH 1000 0
DWIDTH 16 0
BBX 11 11 3 2
BITMAP
6660
6660
0000
CCC0
4440
4440
4440
4440
4440
4440
FFE0
ENDCHAR
STARTCHAR 2173
ENCODING 8563
SWIDTH 1000 0
DWIDTH 16 0
BBX 12 12 3 1
BITMAP
6000
6000
0000
0000
DEF0
4840
4440
4480
4280
4300
4100
A000
ENDCHAR
STARTCHAR 2174
ENCODING 8564
SWIDTH 1000 0
DWIDTH 16 0
BBX 9 7 3 0
BITMAP
F380
2100
3100
1200
1A00
0C00
0C00
ENDCHAR
STARTCHAR 2175
ENCODING 8565
SWIDTH 1000 0
DWIDTH 16 0
BBX 12 12 2 1
BITMAP
0030
0030
0000
0000
F7E0
4220
2220
2420
1420
1820
0820
0050
ENDCHAR
STARTCHAR 2176
ENCODING 8566
SWIDTH 1000 0
DWIDTH 16 0
BBX 14 12 1 1
BITMAP
006C
006C
0000
0000
F7D8
4248
2248
2448
1448
1848
0848
00B4
ENDCHAR
STARTCHAR 2177
ENCODING 8567
SWIDTH 1000 0
DWIDTH 16 0
BBX 14 12 1 0
BITMAP
00FC
00FC
0000
0000
E7F8
42A8
24A8
24A8
18A8
18A8
10A8
0154
ENDCHAR
STARTCHAR 2178
ENCODING 8568
SWIDTH 1000 0
DWIDTH 16 0
BBX 11 11 3 2
BITMAP
6000
6000
0000
0000
CEE0
4280
4300
4100
4280
4440
4860
ENDCHAR
STARTCHAR 2179
ENCODING 8569
SWIDTH 1000 0
DWIDTH 16 0
BBX 9 7 3 1
BITMAP
F380
1200
0C00
0C00
1200
2300
6180
ENDCHAR
STARTCHAR 217A
ENCODING 8570
SWIDTH 1000 0
DWIDTH 16 0
BBX 12 11 2 2
BITMAP
0030
0030
0000
0000
F760
2420
1820
0820
3420
2620
4320
ENDCHAR
STARTCHAR 217B
ENCODING 8571
SWIDTH 1000 0
DWIDTH 16 0
BBX 14 11 1 2
BITMAP
006C
006C
0000
0000
F7D8
1448
1848
1848
2448
4448
424C
ENDCHAR
STARTCHAR 2190
ENCODING 8592
SWIDTH 1000 0
DWIDTH 16 0
BBX 14 6 1 3
BITMAP
1800
2000
4000
FFFC
4000
3000
ENDCHAR
STARTCHAR 2191
ENCODING 8593
SWIDTH 1000 0
DWIDTH 16 0
BBX 6 14 5 0
BITMAP
10
38
58
94
14
10
10
10
10
10
10
10
10
10
ENDCHAR
STARTCHAR 2192
ENCODING 8594
SWIDTH 1000 0
DWIDTH 16 0
BBX 14 6 1 3
BITMAP
0060
0010
0008
FFFC
0008
0030
ENDCHAR
STARTCHAR 2193
ENCODING 8595
SWIDTH 1000 0
DWIDTH 16 0
BBX 6 14 5 -2
BITMAP
10
10
10
10
10
10
10
10
10
14
94
58
38
10
ENDCHAR
STARTCHAR 2194
ENCODING 8596
SWIDTH 500 0
DWIDTH 8 0
BBX 8 5 0 3
BITMAP
24
42
FF
42
24
ENDCHAR
STARTCHAR 2196
ENCODING 8598
SWIDTH 500 0
DWIDTH 8 0
BBX 6 12 1 1
BITMAP
40
70
A8
A4
90
10
10
08
08
08
04
04
ENDCHAR
STARTCHAR 2197
ENCODING 8599
SWIDTH 500 0
DWIDTH 8 0
BBX 6 12 1 1
BITMAP
08
38
54
94
24
20
20
40
40
80
80
80
ENDCHAR
STARTCHAR 2198
ENCODING 8600
SWIDTH 500 0
DWIDTH 8 0
BBX 6 12 1 0
BITMAP
80
80
40
40
40
20
20
24
14
D8
38
08
ENDCHAR
STARTCHAR 2199
ENCODING 8601
SWIDTH 500 0
DWIDTH 8 0
BBX 6 12 1 0
BITMAP
04
04
08
08
08
10
10
A0
A0
AC
70
40
ENDCHAR
STARTCHAR 21C4
ENCODING 8644
SWIDTH 500 0
DWIDTH 8 0
BBX 6 12 1 0
BITMAP
30
08
FC
08
08
10
20
40
FC
40
40
20
ENDCHAR
STARTCHAR 21D2
ENCODING 8658
SWIDTH 1000 0
DWIDTH 16 0
BBX 14 8 1 2
BITMAP
0040
0020
FFF0
0008
000C
FFF0
0020
0040
ENDCHAR
STARTCHAR 21D4
ENCODING 8660
SWIDTH 1000 0
DWIDTH 16 0
BBX 14 8 1 2
BITMAP
0840
1020
3FF0
C00C
C00C
3FF0
1020
0840
ENDCHAR
STARTCHAR 21E6
ENCODING 8678
SWIDTH 500 0
DWIDTH 8 0
BBX 7 6 0 3
BITMAP
10
70
8E
5E
30
10
ENDCHAR
STARTCHAR 21E7
ENCODING 8679
SWIDTH 500 0
DWIDTH 8 0
BBX 6 13 1 1
BITMAP
20
50
50
88
FC
30
30
30
30
30
30
30
30
ENDCHAR
STARTCHAR 21E8
ENCODING 8680
SWIDTH 500 0
DWIDTH 8 0
BBX 6 6 1 3
BITMAP
10
18
E4
F8
18
20
ENDCHAR
STARTCHAR 21E9
ENCODING 8681
SWIDTH 500 0
DWIDTH 8 0
BBX 6 13 1 -1
BITMAP
30
30
30
30
30
30
30
30
CC
48
50
30
20
ENDCHAR
STARTCHAR 2200
ENCODING 8704
SWIDTH 1000 0
DWIDTH 16 0
BBX 14 14 1 -1
BITMAP
8004
8008
4008
4010
2010
1FE0
1020
1040
0840
0880
0480
0500
0300
0200
ENDCHAR
STARTCHAR 2202
ENCODING 8706
SWIDTH 1000 0
DWIDTH 16 0
BBX 8 12 4 0
BITMAP
1E
62
01
01
01
3D
47
83
86
86
CC
78
ENDCHAR
STARTCHAR 2203
ENCODING 8707
SWIDTH 1000 0
DWIDTH 16 0
BBX 11 12 2 0
BITMAP
FFE0
0020
0020
0020
0020
0020
FFE0
0020
0020
0020
0020
FFE0
ENDCHAR
STARTCHAR 2205
ENCODING 8709
SWIDTH 500 0
DWIDTH 8 0
BBX 6 8 1 2
BITMAP
0C
78
94
94
A4
AC
78
80
ENDCHAR
STARTCHAR 2207
ENCODING 8711
SWIDTH 1000 0
DWIDTH 16 0
BBX 12 12 2 -1
BITMAP
FFF0
4020
4020
2040
2040
1080
1080
0900
0900
0600
0600
0400
ENDCHAR
STARTCHAR 2208
ENCODING 8712
SWIDTH 1000 0
DWIDTH 16 0
BBX 12 11 2 1
BITMAP
1FF0
2000
4000
8000
8000
8000
FFF0
8000
8000
6000
1FF0
ENDCHAR
STARTCHAR 2209
ENCODING 8713
SWIDTH 500 0
DWIDTH 8 0
BBX 6 11 1 1
BITMAP
08
3C
50
90
90
90
FC
A0
A0
60
3C
ENDCHAR
STARTCHAR 220B
ENCODING 8715
SWIDTH 1000 0
DWIDTH 16 0
BBX 12 11 2 1
BITMAP
FF80
0040
0020
0010
0010
0010
FFF0
0010
0020
0040
FF80
ENDCHAR
STARTCHAR 2212
ENCODING 8722
SWIDTH 500 0
DWIDTH 8 0
BBX 6 1 1 5
BITMAP
FC
ENDCHAR
STARTCHAR 2213
ENCODING 8723
SWIDTH 500 0
DWIDTH 8 0
BBX 6 10 1 1
BITMAP
FC
00
10
10
10
10
FC
10
10
10
ENDCHAR
STARTCHAR 221A
ENCODING 8730
SWIDTH 1000 0
DWIDTH 16 0
BBX 16 15 0 -1
BITMAP
01FF
0100
0100
0200
0200
0200
0400
4400
4400
6800
A800
2800
1000
1000
2000
ENDCHAR
STARTCHAR 221D
ENCODING 8733
SWIDTH 1000 0
DWIDTH 16 0
BBX 14 6 1 3
BITMAP
7870
C488
8304
8300
C48C
7870
ENDCHAR
STARTCHAR 221E
ENCODING 8734
SWIDTH 1000 0
DWIDTH 16 0
BBX 14 6 1 3
BITMAP
7878
C48C
8304
8304
C48C
7878
ENDCHAR
STARTCHAR 221F
ENCODING 8735
SWIDTH 1000 0
DWIDTH 16 0
BBX 13 13 2 0
BITMAP
8000
8000
8000
8000
8000
8000
8000
8000
8000
8000
8000
8000
FFF8
ENDCHAR
STARTCHAR 2220
ENCODING 8736
SWIDTH 1000 0
DWIDTH 16 0
BBX 13 13 2 1
BITMAP
0008
0010
0020
0040
0080
0100
0200
0400
0800
1000
2000
4000
FFF8
ENDCHAR
STARTCHAR 2225
ENCODING 8741
SWIDTH 1000 0
DWIDTH 16 0
BBX 8 14 4 -1
BITMAP
0D
0A
0A
12
14
14
24
28
28
48
50
50
90
A0
ENDCHAR
STARTCHAR 2226
ENCODING 8742
SWIDTH 500 0
DWIDTH 8 0
BBX 8 14 0 -1
BITMAP
0B
0A
0A
92
54
34
14
28
2C
4A
52
50
50
90
ENDCHAR
STARTCHAR 2227
ENCODING 8743
SWIDTH 1000 0
DWIDTH 16 0
BBX 14 13 1 1
BITMAP
0200
0300
0500
0480
0840
0840
1020
1020
2010
2010
4008
4008
8004
ENDCHAR
STARTCHAR 2228
ENCODING 8744
SWIDTH 1000 0
DWIDTH 16 0
BBX 14 13 1 -1
BITMAP
8004
4008
4008
2010
2010
1020
1020
0840
0840
0480
0500
0300
0200
ENDCHAR
STARTCHAR 2229
ENCODING 8745
SWIDTH 1000 0
DWIDTH 16 0
BBX 12 12 2 0
BITMAP
1F80
3040
4020
C010
8010
8010
8010
8010
8010
8010
8010
8010
ENDCHAR
STARTCHAR 222A
ENCODING 8746
SWIDTH 1000 0
DWIDTH 16 0
BBX 12 12 2 0
BITMAP
8010
8010
8010
8010
8010
8010
8010
8010
C030
4020
30C0
1F80
ENDCHAR
STARTCHAR 222B
ENCODING 8747
SWIDTH 1000 0
DWIDTH 16 0
BBX 8 14 4 -1
BITMAP
07
09
08
08
08
08
18
18
10
10
10
10
90
E0
ENDCHAR
STARTCHAR 222C
ENCODING 8748
SWIDTH 1000 0
DWIDTH 16 0
BBX 14 14 1 -1
BITMAP
039C
05AC
0840
0840
0840
0840
0840
0840
0840
0840
0840
1080
D680
E700
ENDCHAR
STARTCHAR 222E
ENCODING 8750
SWIDTH 1000 0
DWIDTH 16 0
BBX 8 14 4 -1
BITMAP
07
09
08
08
08
3C
2C
34
18
10
10
10
90
E0
ENDCHAR
STARTCHAR 2234
ENCODING 8756
SWIDTH 1000 0
DWIDTH 16 0
BBX 10 10 3 1
BITMAP
0C00
0C00
0000
0000
0000
0000
0000
0000
C0C0
C0C0
ENDCHAR
STARTCHAR 2235
ENCODING 8757
SWIDTH 1000 0
DWIDTH 16 0
BBX 10 10 3 1
BITMAP
C0C0
C0C0
0000
0000
0000
0000
0000
0000
0C00
0C00
ENDCHAR
STARTCHAR 223D
ENCODING 8765
SWIDTH 1000 0
DWIDTH 16 0
BBX 14 6 1 3
BITMAP
7878
C08C
8104
8204
C40C
7878
ENDCHAR
STARTCHAR 2243
ENCODING 8771
SWIDTH 500 0
DWIDTH 8 0
BBX 6 4 1 5
BITMAP
FC
00
00
FC
ENDCHAR
STARTCHAR 2245
ENCODING 8773
SWIDTH 500 0
DWIDTH 8 0
BBX 6 7 1 3
BITMAP
60
9C
00
00
FC
00
FC
ENDCHAR
STARTCHAR 2248
ENCODING 8776
SWIDTH 500 0
DWIDTH 8 0
BBX 7 5 0 3
BITMAP
72
0C
00
32
CC
ENDCHAR
STARTCHAR 2252
ENCODING 8786
SWIDTH 1000 0
DWIDTH 16 0
BBX 11 10 3 1
BITMAP
3000
3000
0000
FFE0
0000
0000
FFE0
0000
0180
0180
ENDCHAR
STARTCHAR 2260
ENCODING 8800
SWIDTH 1000 0
DWIDTH 16 0
BBX 11 11 3 1
BITMAP
0180
0100
0100
0200
FFE0
0400
0400
FFE0
0800
1000
2000
ENDCHAR
STARTCHAR 2261
ENCODING 8801
SWIDTH 1000 0
DWIDTH 16 0
BBX 11 8 3 2
BITMAP
FFE0
0000
0000
0000
FFE0
0000
0000
FFE0
ENDCHAR
STARTCHAR 2262
ENCODING 8802
SWIDTH 500 0
DWIDTH 8 0
BBX 6 10 1 1
BITMAP
08
FC
10
10
10
FC
20
FC
40
40
ENDCHAR
STARTCHAR 2266
ENCODING 8806
SWIDTH 1000 0
DWIDTH 16 0
BBX 12 13 2 1
BITMAP
0030
01C0
0E00
7000
B000
0E00
01C0
0030
0000
FFF0
0000
0000
FFF0
ENDCHAR
STARTCHAR 2267
ENCODING 8807
SWIDTH 1000 0
DWIDTH 16 0
BBX 12 13 2 1
BITMAP
C000
3800
0700
00E0
00D0
0700
3800
C000
0000
FFF0
0000
0000
FFF0
ENDCHAR
STARTCHAR 226A
ENCODING 8810
SWIDTH 1000 0
DWIDTH 16 0
BBX 14 14 1 -1
BITMAP
00CC
0110
0260
0480
1900
2200
4C00
CC00
2200
1100
0C80
0240
0130
0088
ENDCHAR
STARTCHAR 226B
ENCODING 8811
SWIDTH 1000 0
DWIDTH 16 0
BBX 13 14 2 -1
BITMAP
9800
4400
3200
0900
04C0
0220
0190
0198
0220
0440
0980
1200
6400
8800
ENDCHAR
STARTCHAR 2276
ENCODING 8822
SWIDTH 500 0
DWIDTH 8 0
BBX 7 12 0 0
BITMAP
02
04
18
60
30
4C
32
0C
06
18
60
80
ENDCHAR
STARTCHAR 2277
ENCODING 8823
SWIDTH 500 0
DWIDTH 8 0
BBX 7 12 0 0
BITMAP
80
60
18
06
0C
32
4C
30
60
18
06
02
ENDCHAR
STARTCHAR 2282
ENCODING 8834
SWIDTH 1000 0
DWIDTH 16 0
BBX 12 11 2 1
BITMAP
1FF0
2000
4000
8000
8000
8000
8000
8000
4000
2000
1FF0
ENDCHAR
STARTCHAR 2283
ENCODING 8835
SWIDTH 1000 0
DWIDTH 16 0
BBX 12 11 2 1
BITMAP
FF80
0040
0020
0010
0010
0010
0010
0010
0020
0040
FF80
ENDCHAR
STARTCHAR 2284
ENCODING 8836
SWIDTH 500 0
DWIDTH 8 0
BBX 6 11 1 1
BITMAP
08
3C
70
D0
90
90
90
A0
A0
60
3C
ENDCHAR
STARTCHAR 2285
ENCODING 8837
SWIDTH 500 0
DWIDTH 8 0
BBX 6 11 1 0
BITMAP
F0
18
18
24
24
24
24
2C
58
F0
40
ENDCHAR
STARTCHAR 2286
ENCODING 8838
SWIDTH 1000 0
DWIDTH 16 0
BBX 12 12 2 0
BITMAP
3FF0
6000
C000
8000
8000
8000
C000
6000
3FF0
0000
0000
FFF0
ENDCHAR
STARTCHAR 2287
ENCODING 8839
SWIDTH 1000 0
DWIDTH 16 0
BBX 12 12 2 0
BITMAP
FFC0
0060
0030
0010
0010
0010
0030
0060
FFC0
0000
0000
FFF0
ENDCHAR
STARTCHAR 228A
ENCODING 8842
SWIDTH 500 0
DWIDTH 8 0
BBX 6 11 1 0
BITMAP
3C
40
80
80
80
80
40
3C
10
FC
20
ENDCHAR
STARTCHAR 228B
ENCODING 8843
SWIDTH 500 0
DWIDTH 8 0
BBX 6 11 1 0
BITMAP
F0
08
04
04
04
04
08
F0
10
FC
20
ENDCHAR
STARTCHAR 2295
ENCODING 8853
SWIDTH 500 0
DWIDTH 8 0
BBX 6 6 1 3
BITMAP
78
DC
94
FC
9C
78
ENDCHAR
STARTCHAR 2296
ENCODING 8854
SWIDTH 500 0
DWIDTH 8 0
BBX 6 7 1 2
BITMAP
70
48
84
FC
84
8C
78
ENDCHAR
STARTCHAR 2297
ENCODING 8855
SWIDTH 500 0
DWIDTH 8 0
BBX 8 7 0 2
BITMAP
3C
66
99
99
A5
42
3C
ENDCHAR
STARTCHAR 22A5
ENCODING 8869
SWIDTH 1000 0
DWIDTH 16 0
BBX 14 13 1 0
BITMAP
0100
0100
0100
0100
0100
0100
0100
0100
0100
0100
0100
0100
FFFC
ENDCHAR
STARTCHAR 22BF
ENCODING 8895
SWIDTH 1000 0
DWIDTH 16 0
BBX 13 13 1 1
BITMAP
0008
0018
0028
0048
0088
0108
0208
0408
0808
1008
2008
4008
FFF8
ENDCHAR
STARTCHAR 22DA
ENCODING 8922
SWIDTH 500 0
DWIDTH 8 0
BBX 7 13 0 -1
BITMAP
02
0C
30
70
0C
02
7E
80
60
1C
06
38
40
ENDCHAR
STARTCHAR 22DB
ENCODING 8923
SWIDTH 500 0
DWIDTH 8 0
BBX 7 13 0 -1
BITMAP
40
30
0C
0E
30
C0
7E
02
04
38
60
1C
02
ENDCHAR
STARTCHAR 2305
ENCODING 8965
SWIDTH 500 0
DWIDTH 8 0
BBX 6 7 1 2
BITMAP
FC
20
30
30
48
48
84
ENDCHAR
STARTCHAR 2306
ENCODING 8966
SWIDTH 500 0
DWIDTH 8 0
BBX 6 9 1 1
BITMAP
FC
00
FC
20
30
30
48
48
84
ENDCHAR
STARTCHAR 2312
ENCODING 8978
SWIDTH 1000 0
DWIDTH 16 0
BBX 16 4 0 9
BITMAP
0FF0
300C
C003
0001
ENDCHAR
STARTCHAR 2318
ENCODING 8984
SWIDTH 1000 0
DWIDTH 16 0
BBX 16 15 0 -1
BITMAP
700E
8811
8811
8811
7FFE
0810
0810
0810
0810
0810
7FFE
8811
8811
8811
700E
ENDCHAR
STARTCHAR 23BE
ENCODING 9150
SWIDTH 1000 0
DWIDTH 16 0
BBX 8 16 8 -2
BITMAP
FF
80
80
80
80
80
80
80
80
80
80
80
80
80
80
80
ENDCHAR
STARTCHAR 23BF
ENCODING 9151
SWIDTH 1000 0
DWIDTH 16 0
BBX 8 16 8 -2
BITMAP
80
80
80
80
80
80
80
80
80
80
80
80
80
80
80
FF
ENDCHAR
STARTCHAR 23C0
ENCODING 9152
SWIDTH 1000 0
DWIDTH 16 0
BBX 13 16 2 -2
BITMAP
0200
0200
0F80
3260
4210
4210
8208
8208
8208
8208
4210
4210
2220
1FC0
0200
0200
ENDCHAR
STARTCHAR 23C1
ENCODING 9153
SWIDTH 1000 0
DWIDTH 16 0
BBX 16 16 0 -2
BITMAP
FFFF
0080
01C0
0EB0
1088
1088
2084
2084
2084
2084
2084
1088
0890
07E0
0080
0080
ENDCHAR
STARTCHAR 23C2
ENCODING 9154
SWIDTH 1000 0
DWIDTH 16 0
BBX 16 16 0 -2
BITMAP
0080
0080
03E0
0C90
1088
2084
2084
2084
2084
2084
1088
1088
0C90
03E0
0080
FFFF
ENDCHAR
STARTCHAR 23C3
ENCODING 9155
SWIDTH 1000 0
DWIDTH 16 0
BBX 15 16 1 -2
BITMAP
0100
0100
0100
0380
0580
0540
0920
1120
1110
2110
4108
4104
7FFC
8102
0100
0100
ENDCHAR
STARTCHAR 23C4
ENCODING 9156
SWIDTH 1000 0
DWIDTH 16 0
BBX 16 16 0 -2
BITMAP
FFFF
0080
0080
01C0
02C0
02A0
04A0
0890
0890
1088
2084
2084
7FFE
0080
0080
0080
ENDCHAR
STARTCHAR 23C5
ENCODING 9157
SWIDTH 1000 0
DWIDTH 16 0
BBX 16 16 0 -2
BITMAP
0080
0080
0080
01C0
02C0
02A0
04A0
0890
0888
1088
2084
2084
7FFE
0080
0080
FFFF
ENDCHAR
STARTCHAR 23C6
ENCODING 9158
SWIDTH 1000 0
DWIDTH 16 0
BBX 15 16 1 -2
BITMAP
0100
0100
0100
0100
0100
0100
7900
8700
0182
017C
0100
0100
0100
0100
0100
0100
ENDCHAR
STARTCHAR 23C7
ENCODING 9159
SWIDTH 1000 0
DWIDTH 16 0
BBX 16 16 0 -2
BITMAP
FFFF
0080
0080
0080
0080
0080
3C80
4380
00C2
00BC
0080
0080
0080
0080
0080
0080
ENDCHAR
STARTCHAR 23C8
ENCODING 9160
SWIDTH 1000 0
DWIDTH 16 0
BBX 16 16 0 -2
BITMAP
0080
0080
0080
0080
0080
0080
3E80
4180
00C2
00BC
0080
0080
0080
0080
0080
FFFF
ENDCHAR
STARTCHAR 23C9
ENCODING 9161
SWIDTH 1000 0
DWIDTH 16 0
BBX 16 16 0 -2
BITMAP
FFFF
0080
0080
0080
0080
0080
0080
0080
0080
0080
0080
0080
0080
0080
0080
0080
ENDCHAR
STARTCHAR 23CA
ENCODING 9162
SWIDTH 1000 0
DWIDTH 16 0
BBX 16 16 0 -2
BITMAP
0080
0080
0080
0080
0080
0080
0080
0080
0080
0080
0080
0080
0080
0080
0080
FFFF
ENDCHAR
STARTCHAR 23CB
ENCODING 9163
SWIDTH 1000 0
DWIDTH 16 0
BBX 8 16 0 -2
BITMAP
FF
01
01
01
01
01
01
01
01
01
01
01
01
01
01
01
ENDCHAR
STARTCHAR 23CC
ENCODING 9164
SWIDTH 1000 0
DWIDTH 16 0
BBX 8 16 0 -2
BITMAP
01
01
01
01
01
01
01
01
01
01
01
01
01
01
01
FF
ENDCHAR
STARTCHAR 23CE
ENCODING 9166
SWIDTH 1000 0
DWIDTH 16 0
BBX 13 13 1 -1
BITMAP
00F8
0088
0088
0088
0488
1C88
2788
4008
C018
27F0
1400
0C00
0400
ENDCHAR
STARTCHAR 2423
ENCODING 9251
SWIDTH 1000 0
DWIDTH 16 0
BBX 12 3 2 0
BITMAP
8010
8010
FFF0
ENDCHAR
STARTCHAR 2460
ENCODING 9312
SWIDTH 1000 0
DWIDTH 16 0
BBX 15 14 1 -1
BITMAP
07C0
1830
2108
4304
C104
8102
8102
8102
8102
8104
4104
2388
1010
0FE0
ENDCHAR
STARTCHAR 2461
ENCODING 9313
SWIDTH 1000 0
DWIDTH 16 0
BBX 14 14 1 -1
BITMAP
0FC0
3060
2790
48C8
8C4C
8044
8084
8104
8204
8444
8848
4FD0
3020
0FC0
ENDCHAR
STARTCHAR 2462
ENCODING 9314
SWIDTH 1000 0
DWIDTH 16 0
BBX 14 15 1 -1
BITMAP
07C0
1860
2010
4788
4C48
8C44
8044
8384
80C4
8024
8C28
4868
27D0
1020
0FC0
ENDCHAR
STARTCHAR 2463
ENCODING 9315
SWIDTH 1000 0
DWIDTH 16 0
BBX 15 15 1 -2
BITMAP
0FC0
3030
4098
4184
8284
8482
8882
9082
9FE2
8082
8084
41C4
2208
1830
07C0
ENDCHAR
STARTCHAR 2464
ENCODING 9316
SWIDTH 1000 0
DWIDTH 16 0
BBX 14 14 1 -1
BITMAP
0FC0
3070
47D8
4808
880C
8B84
8CC4
8044
8044
8848
8888
4790
3020
0FC0
ENDCHAR
STARTCHAR 2465
ENCODING 9317
SWIDTH 1000 0
DWIDTH 16 0
BBX 14 14 1 -1
BITMAP
0FC0
3070
4398
44C8
880C
8804
8F84
8CC4
8844
8848
84C8
4390
3020
0FC0
ENDCHAR
STARTCHAR 2466
ENCODING 9318
SWIDTH 1000 0
DWIDTH 16 0
BBX 14 15 1 -1
BITMAP
0F80
1040
2030
4FC8
4888
9084
8084
8104
8104
8104
8208
8208
4210
3020
0FC0
ENDCHAR
STARTCHAR 2467
ENCODING 9319
SWIDTH 1000 0
DWIDTH 16 0
BBX 14 14 1 -1
BITMAP
0FC0
3070
4798
4848
884C
8C84
8304
8484
8844
8848
8848
4790
3020
0FC0
ENDCHAR
STARTCHAR 2468
ENCODING 9320
SWIDTH 1000 0
DWIDTH 16 0
BBX 14 14 1 -1
BITMAP
0FC0
3070
4798
4C88
884C
8844
8CC4
87C4
8044
8C48
8888
4710
3020
0FC0
ENDCHAR
STARTCHAR 2469
ENCODING 9321
SWIDTH 1000 0
DWIDTH 16 0
BBX 15 15 1 -2
BITMAP
07C0
1830
2018
58E4
48A4
8912
8912
8912
8912
8912
88A4
48E4
3408
1830
07C0
ENDCHAR
STARTCHAR 246A
ENCODING 9322
SWIDTH 1000 0
DWIDTH 16 0
BBX 14 15 1 -2
BITMAP
0780
1860
2010
58C8
4848
8844
8844
8844
8844
8844
8848
4848
34B0
1060
0F80
ENDCHAR
STARTCHAR 246B
ENCODING 9323
SWIDTH 1000 0
DWIDTH 16 0
BBX 14 15 1 -2
BITMAP
0F80
1060
28D0
5928
8928
8824
8844
8844
8884
8924
8928
5DE8
2010
1860
0780
ENDCHAR
STARTCHAR 246C
ENCODING 9324
SWIDTH 1000 0
DWIDTH 16 0
BBX 14 16 1 -2
BITMAP
0780
1860
2010
59C8
4928
8824
8824
88C4
8824
8814
8914
8938
5CE8
2010
1820
07C0
ENDCHAR
STARTCHAR 246D
ENCODING 9325
SWIDTH 1000 0
DWIDTH 16 0
BBX 14 16 1 -2
BITMAP
0780
1860
2010
5848
48C8
8944
8944
8A44
8A44
8BF4
8844
8848
5CE8
2010
1820
07C0
ENDCHAR
STARTCHAR 246E
ENCODING 9326
SWIDTH 1000 0
DWIDTH 16 0
BBX 15 16 1 -2
BITMAP
07C0
1820
2010
59E8
4904
8902
8902
89E2
8812
8812
8912
8934
5CE4
2008
1830
07C0
ENDCHAR
STARTCHAR 246F
ENCODING 9327
SWIDTH 1000 0
DWIDTH 16 0
BBX 15 15 1 -2
BITMAP
07C0
1830
2018
5874
48B4
8902
89E2
8912
8912
8912
8994
48E4
3408
1830
07C0
ENDCHAR
STARTCHAR 2470
ENCODING 9328
SWIDTH 1000 0
DWIDTH 16 0
BBX 14 16 1 -2
BITMAP
0780
1840
2030
59E8
4928
8A44
8844
8844
8884
8884
8884
8888
5C88
2010
1860
0780
ENDCHAR
STARTCHAR 2471
ENCODING 9329
SWIDTH 1000 0
DWIDTH 16 0
BBX 15 15 1 -2
BITMAP
07C0
1830
2018
58E4
4914
8912
88A2
88E2
8932
8912
8914
48E4
3408
1830
07C0
ENDCHAR
STARTCHAR 2472
ENCODING 9330
SWIDTH 1000 0
DWIDTH 16 0
BBX 15 15 1 -2
BITMAP
07C0
1830
2018
58E4
4914
8912
8912
88F2
8812
8832
8924
49E4
3408
1830
07C0
ENDCHAR
STARTCHAR 2473
ENCODING 9331
SWIDTH 1000 0
DWIDTH 16 0
BBX 16 15 0 -2
BITMAP
07E0
1818
2E3C
514E
594A
8149
8249
8449
8449
8949
514A
7F32
3004
1818
07E0
ENDCHAR
STARTCHAR 24D0
ENCODING 9424
SWIDTH 1000 0
DWIDTH 16 0
BBX 15 14 0 -1
BITMAP
07E0
1838
200C
4004
8786
8442
81C2
8642
8442
47F4
4004
2008
1810
07E0
ENDCHAR
STARTCHAR 24D1
ENCODING 9425
SWIDTH 1000 0
DWIDTH 16 0
BBX 15 14 1 -1
BITMAP
0FC0
3030
4C08
4404
8406
87C2
8462
8422
8422
8464
47C4
2008
1010
0FE0
ENDCHAR
STARTCHAR 24D2
ENCODING 9426
SWIDTH 1000 0
DWIDTH 16 0
BBX 14 14 1 -1
BITMAP
0FC0
3070
4018
4008
870C
8C84
8804
8804
8C44
8788
8008
4010
3020
0FC0
ENDCHAR
STARTCHAR 24D3
ENCODING 9427
SWIDTH 1000 0
DWIDTH 16 0
BBX 14 14 1 -1
BITMAP
0FC0
3070
4198
4088
808C
8F84
9884
9084
9084
9888
8F88
4050
3020
0FC0
ENDCHAR
STARTCHAR 24D4
ENCODING 9428
SWIDTH 1000 0
DWIDTH 16 0
BBX 14 15 1 -1
BITMAP
0780
1860
2010
4008
4788
8484
8844
8FC4
8804
8844
8488
8388
4010
3020
0FC0
ENDCHAR
STARTCHAR 24D5
ENCODING 9429
SWIDTH 1000 0
DWIDTH 16 0
BBX 14 15 1 -1
BITMAP
0780
1860
2010
43C8
42C8
8204
8784
8204
8204
8204
8208
8208
4510
3020
0FC0
ENDCHAR
STARTCHAR 24D6
ENCODING 9430
SWIDTH 1000 0
DWIDTH 16 0
BBX 14 14 1 -1
BITMAP
0FC0
3070
4018
4FE8
888C
8884
8704
8404
8BC4
8848
8788
4010
3020
0FC0
ENDCHAR
STARTCHAR 24D7
ENCODING 9431
SWIDTH 1000 0
DWIDTH 16 0
BBX 14 15 1 -1
BITMAP
0780
1860
2010
4C08
4408
8404
8784
8444
8444
8444
8448
4448
2AB0
1820
07C0
ENDCHAR
STARTCHAR 24D8
ENCODING 9432
SWIDTH 1000 0
DWIDTH 16 0
BBX 15 15 1 -1
BITMAP
07C0
1820
2018
4104
4004
8002
8302
8102
8102
8102
8104
4104
2288
1830
07C0
ENDCHAR
STARTCHAR 24D9
ENCODING 9433
SWIDTH 1000 0
DWIDTH 16 0
BBX 14 14 1 -1
BITMAP
0FC0
3070
4118
4008
830C
8104
8104
8104
8104
8108
8D08
4E10
3020
0FC0
ENDCHAR
STARTCHAR 24DA
ENCODING 9434
SWIDTH 1000 0
DWIDTH 16 0
BBX 14 14 1 -1
BITMAP
0FC0
3070
4C18
4408
840C
84E4
8484
8504
8684
8488
4468
2A90
1020
0FC0
ENDCHAR
STARTCHAR 24DB
ENCODING 9435
SWIDTH 1000 0
DWIDTH 16 0
BBX 15 15 1 -1
BITMAP
07C0
1820
2018
4304
4104
8102
8102
8102
8102
8102
8104
4104
2288
1830
07C0
ENDCHAR
STARTCHAR 24DC
ENCODING 9436
SWIDTH 1000 0
DWIDTH 16 0
BBX 14 14 1 -1
BITMAP
0FC0
3060
4010
4008
BFEC
9124
9124
9124
9124
9128
AAD8
4010
3020
0FC0
ENDCHAR
STARTCHAR 24DD
ENCODING 9437
SWIDTH 1000 0
DWIDTH 16 0
BBX 14 14 1 -1
BITMAP
0FC0
3070
4018
4008
8F8C
8444
8444
8444
8444
8448
4AA8
2010
1020
0FC0
ENDCHAR
STARTCHAR 24DE
ENCODING 9438
SWIDTH 1000 0
DWIDTH 16 0
BBX 14 14 1 -1
BITMAP
0FC0
3070
4018
4008
878C
8844
8844
8844
8C44
8788
8008
4010
3020
0FC0
ENDCHAR
STARTCHAR 24DF
ENCODING 9439
SWIDTH 1000 0
DWIDTH 16 0
BBX 14 15 1 -1
BITMAP
07C0
1860
2010
4008
4FC8
8464
8424
8424
8464
87C4
8408
4408
2A10
1820
07C0
ENDCHAR
STARTCHAR 24E0
ENCODING 9440
SWIDTH 1000 0
DWIDTH 16 0
BBX 14 15 1 -1
BITMAP
0F80
1060
2010
4008
4F88
9884
9084
9084
9884
8F84
8088
8088
4150
3020
0FC0
ENDCHAR
STARTCHAR 24E1
ENCODING 9441
SWIDTH 1000 0
DWIDTH 16 0
BBX 15 14 1 -1
BITMAP
0FC0
3030
4008
4004
86C6
8302
8202
8202
8202
8204
4504
2008
1010
0FE0
ENDCHAR
STARTCHAR 24E2
ENCODING 9442
SWIDTH 1000 0
DWIDTH 16 0
BBX 15 14 0 -1
BITMAP
07E0
1830
2008
4004
87C6
8442
8702
81C2
8442
8C84
4304
2008
1810
07E0
ENDCHAR
STARTCHAR 24E3
ENCODING 9443
SWIDTH 1000 0
DWIDTH 16 0
BBX 15 15 1 -1
BITMAP
07C0
1820
2018
420C
4204
8782
8202
8202
8202
8202
8284
83C4
4008
3010
0FE0
ENDCHAR
STARTCHAR 24E4
ENCODING 9444
SWIDTH 1000 0
DWIDTH 16 0
BBX 16 14 0 -1
BITMAP
07E0
1818
200C
4002
8C63
8421
8421
8421
8421
83E2
4012
2004
1808
07F0
ENDCHAR
STARTCHAR 24E5
ENCODING 9445
SWIDTH 1000 0
DWIDTH 16 0
BBX 14 14 1 -1
BITMAP
0FC0
3070
4018
4008
9CEC
8884
8484
8484
8304
8308
8008
6010
1020
0FC0
ENDCHAR
STARTCHAR 24E6
ENCODING 9446
SWIDTH 1000 0
DWIDTH 16 0
BBX 14 15 1 -1
BITMAP
0780
1860
2010
4008
4008
BBB4
9124
8B44
8AC4
8CC4
8488
8008
6010
1020
0FC0
ENDCHAR
STARTCHAR 24E7
ENCODING 9447
SWIDTH 1000 0
DWIDTH 16 0
BBX 14 14 1 -1
BITMAP
0FC0
3070
4010
4008
9EEC
8684
8304
8304
8484
8844
94A8
4010
3020
0FC0
ENDCHAR
STARTCHAR 24E8
ENCODING 9448
SWIDTH 1000 0
DWIDTH 16 0
BBX 14 15 1 -1
BITMAP
0780
1860
2010
4008
4EE8
8444
8284
8284
8104
8104
8E08
4E08
2010
1020
0FC0
ENDCHAR
STARTCHAR 24E9
ENCODING 9449
SWIDTH 1000 0
DWIDTH 16 0
BBX 15 14 0 -1
BITMAP
07E0
1838
200C
4004
87E6
88C2
8182
8102
8222
8424
43C4
2008
1810
07E0
ENDCHAR
STARTCHAR 24EB
ENCODING 9451
SWIDTH 1000 0
DWIDTH 16 0
BBX 14 15 1 -2
BITMAP
0780
1FE0
3FF0
6738
77B8
F7BC
F7BC
F7BC
F7BC
F7BC
77B8
77B8
3FF0
1FE0
0780
ENDCHAR
STARTCHAR 24EC
ENCODING 9452
SWIDTH 1000 0
DWIDTH 16 0
BBX 15 15 1 -2
BITMAP
07C0
1FF0
3F18
76EC
766C
F7EE
F7DE
F7DE
F7BE
F77E
77EC
620C
3FF8
1FF0
07C0
ENDCHAR
STARTCHAR 24ED
ENCODING 9453
SWIDTH 1000 0
DWIDTH 16 0
BBX 14 16 1 -2
BITMAP
0780
1FE0
3FF0
66F8
76D8
F7DC
F7DC
F73C
F7DC
F7EC
F6EC
76E8
63D8
3FF0
1FE0
0780
ENDCHAR
STARTCHAR 24EE
ENCODING 9454
SWIDTH 1000 0
DWIDTH 16 0
BBX 14 16 1 -2
BITMAP
0780
1FC0
3FF0
67B8
77B8
F7BC
F7BC
F7BC
F6BC
F70C
F7BC
77B8
6398
3FF0
1FE0
0780
ENDCHAR
STARTCHAR 24EF
ENCODING 9455
SWIDTH 1000 0
DWIDTH 16 0
BBX 15 16 1 -2
BITMAP
07C0
0FE0
3FF8
6708
77FC
F7FE
F6FE
F75E
F7EE
F7EE
F66E
766C
63DC
3FF8
1FF0
07C0
ENDCHAR
STARTCHAR 24F0
ENCODING 9456
SWIDTH 1000 0
DWIDTH 16 0
BBX 15 15 1 -2
BITMAP
07C0
1FF0
3FF8
67EC
776C
F6FE
F69E
F66E
F6EE
F6EE
76EC
775C
3FF8
1FF0
07C0
ENDCHAR
STARTCHAR 24F1
ENCODING 9457
SWIDTH 1000 0
DWIDTH 16 0
BBX 15 16 1 -2
BITMAP
07C0
1FE0
3FF0
6608
76EC
F7FE
F7DE
F7DE
F7FE
F7BE
F7BE
77BC
63BC
3FF8
1FF0
07C0
ENDCHAR
STARTCHAR 24F2
ENCODING 9458
SWIDTH 1000 0
DWIDTH 16 0
BBX 15 15 1 -2
BITMAP
07C0
1FF0
3FF8
67FC
76EC
F6EE
F75E
F7BE
F6CE
F6EE
76EC
777C
3FF8
1FF0
07C0
ENDCHAR
STARTCHAR 24F3
ENCODING 9459
SWIDTH 1000 0
DWIDTH 16 0
BBX 15 15 1 -2
BITMAP
07C0
1FF0
3FF8
675C
76EC
F6EE
F6EE
F76E
F7EE
F7EE
767C
76DC
3FF8
1FF0
07C0
ENDCHAR
STARTCHAR 24F4
ENCODING 9460
SWIDTH 1000 0
DWIDTH 16 0
BBX 14 15 1 -2
BITMAP
0F80
3FE0
2710
5B58
DAE8
FAEC
FEEC
F6EC
EEEC
FEEC
5BF8
4358
3FF0
1FE0
0780
ENDCHAR
STARTCHAR 24F5
ENCODING 9461
SWIDTH 1000 0
DWIDTH 16 0
BBX 15 14 1 -1
BITMAP
0FC0
3FF0
7038
C30C
C10A
8106
8106
8106
8106
C10A
C10C
6114
3AF8
1FE0
ENDCHAR
STARTCHAR 24F6
ENCODING 9462
SWIDTH 1000 0
DWIDTH 16 0
BBX 14 14 1 -1
BITMAP
1FC0
2FA0
77F0
CCD8
4C54
8C4C
808C
810C
820C
4454
C858
6FE8
3890
1F60
ENDCHAR
STARTCHAR 24F7
ENCODING 9463
SWIDTH 1000 0
DWIDTH 16 0
BBX 15 15 1 -1
BITMAP
0FC0
3FF0
7038
C78C
CC4C
8C46
8046
8386
80C6
8026
CC2C
C86C
67D8
3870
1FE0
ENDCHAR
STARTCHAR 24F8
ENCODING 9464
SWIDTH 1000 0
DWIDTH 16 0
BBX 14 15 1 -1
BITMAP
0780
1FE0
3870
6098
C198
428C
848C
888C
908C
9FCC
C094
C098
6170
38E0
1F40
ENDCHAR
STARTCHAR 24F9
ENCODING 9465
SWIDTH 1000 0
DWIDTH 16 0
BBX 16 15 0 -1
BITMAP
07E0
1BD8
2C34
53EA
640A
A405
C5C5
C665
C025
C025
642A
644A
3394
1C68
0FB0
ENDCHAR
STARTCHAR 24FA
ENCODING 9466
SWIDTH 1000 0
DWIDTH 16 0
BBX 16 15 0 -1
BITMAP
07E0
1BD8
3C3C
71CE
626A
A405
C405
C7C5
C665
C425
A42A
626A
31D4
1C68
0BB0
ENDCHAR
STARTCHAR 24FB
ENCODING 9467
SWIDTH 1000 0
DWIDTH 16 0
BBX 15 15 0 -1
BITMAP
07C0
1FF0
3838
67EC
644C
C846
C086
C086
C086
C086
610A
610C
3118
1C70
0FE0
ENDCHAR
STARTCHAR 24FC
ENCODING 9468
SWIDTH 1000 0
DWIDTH 16 0
BBX 16 15 0 -1
BITMAP
07E0
1BD8
3C3C
73CE
642A
A425
C645
C185
C245
C425
A42A
666A
33D4
1C68
0BB0
ENDCHAR
STARTCHAR 24FD
ENCODING 9469
SWIDTH 1000 0
DWIDTH 16 0
BBX 16 15 0 -1
BITMAP
07E0
1BD8
3C3C
73CE
664A
A425
C425
C665
C3A5
C025
A62A
644A
3394
1C68
0BB0
ENDCHAR
STARTCHAR 24FE
ENCODING 9470
SWIDTH 1000 0
DWIDTH 16 0
BBX 16 15 0 -1
BITMAP
07E0
1FD8
3834
6C6A
649A
C495
C495
C495
C495
C495
649A
646C
3A14
1C78
0FA0
ENDCHAR
STARTCHAR 2500
ENCODING 9472
SWIDTH 1000 0
DWIDTH 16 0
BBX 16 1 0 5
BITMAP
FFFF
ENDCHAR
STARTCHAR 2501
ENCODING 9473
SWIDTH 1000 0
DWIDTH 16 0
BBX 16 2 0 5
BITMAP
FFFF
FFFF
ENDCHAR
STARTCHAR 2502
ENCODING 9474
SWIDTH 1000 0
DWIDTH 16 0
BBX 1 16 8 -2
BITMAP
80
80
80
80
80
80
80
80
80
80
80
80
80
80
80
80
ENDCHAR
STARTCHAR 2503
ENCODING 9475
SWIDTH 1000 0
DWIDTH 16 0
BBX 2 16 7 -2
BITMAP
C0
C0
C0
C0
C0
C0
C0
C0
C0
C0
C0
C0
C0
C0
C0
C0
ENDCHAR
STARTCHAR 250C
ENCODING 9484
SWIDTH 1000 0
DWIDTH 16 0
BBX 8 8 8 -2
BITMAP
FF
80
80
80
80
80
80
80
ENDCHAR
STARTCHAR 250F
ENCODING 9487
SWIDTH 1000 0
DWIDTH 16 0
BBX 9 9 7 -2
BITMAP
FF80
FF80
C000
C000
C000
C000
C000
C000
C000
ENDCHAR
STARTCHAR 2510
ENCODING 9488
SWIDTH 1000 0
DWIDTH 16 0
BBX 8 8 0 -2
BITMAP
FF
01
01
01
01
01
01
01
ENDCHAR
STARTCHAR 2513
ENCODING 9491
SWIDTH 1000 0
DWIDTH 16 0
BBX 9 9 0 -2
BITMAP
FF80
FF80
0180
0180
0180
0180
0180
0180
0180
ENDCHAR
STARTCHAR 2514
ENCODING 9492
SWIDTH 1000 0
DWIDTH 16 0
BBX 8 9 8 5
BITMAP
80
80
80
80
80
80
80
80
FF
ENDCHAR
STARTCHAR 2517
ENCODING 9495
SWIDTH 1000 0
DWIDTH 16 0
BBX 9 9 7 5
BITMAP
C000
C000
C000
C000
C000
C000
C000
FF80
FF80
ENDCHAR
STARTCHAR 2518
ENCODING 9496
SWIDTH 1000 0
DWIDTH 16 0
BBX 8 9 0 5
BITMAP
01
01
01
01
01
01
01
01
FF
ENDCHAR
STARTCHAR 251B
ENCODING 9499
SWIDTH 1000 0
DWIDTH 16 0
BBX 9 9 0 5
BITMAP
0180
0180
0180
0180
0180
0180
0180
FF80
FF80
ENDCHAR
STARTCHAR 251C
ENCODING 9500
SWIDTH 1000 0
DWIDTH 16 0
BBX 8 16 8 -2
BITMAP
80
80
80
80
80
80
80
80
FF
80
80
80
80
80
80
80
ENDCHAR
STARTCHAR 251D
ENCODING 9501
SWIDTH 1000 0
DWIDTH 16 0
BBX 8 16 8 -2
BITMAP
80
80
80
80
80
80
80
FF
FF
80
80
80
80
80
80
80
ENDCHAR
STARTCHAR 2520
ENCODING 9504
SWIDTH 1000 0
DWIDTH 16 0
BBX 9 16 7 -2
BITMAP
C000
C000
C000
C000
C000
C000
C000
C000
FF80
C000
C000
C000
C000
C000
C000
C000
ENDCHAR
STARTCHAR 2523
ENCODING 9507
SWIDTH 1000 0
DWIDTH 16 0
BBX 9 16 7 -2
BITMAP
C000
C000
C000
C000
C000
C000
C000
FF80
FF80
C000
C000
C000
C000
C000
C000
C000
ENDCHAR
STARTCHAR 2524
ENCODING 9508
SWIDTH 1000 0
DWIDTH 16 0
BBX 8 16 0 -2
BITMAP
01
01
01
01
01
01
01
01
FF
01
01
01
01
01
01
01
ENDCHAR
STARTCHAR 2525
ENCODING 9509
SWIDTH 1000 0
DWIDTH 16 0
BBX 8 16 0 -2
BITMAP
01
01
01
01
01
01
01
FF
FF
01
01
01
01
01
01
01
ENDCHAR
STARTCHAR 2528
ENCODING 9512
SWIDTH 1000 0
DWIDTH 16 0
BBX 9 16 0 -2
BITMAP
0180
0180
0180
0180
0180
0180
0180
0180
FF80
0180
0180
0180
0180
0180
0180
0180
ENDCHAR
STARTCHAR 252B
ENCODING 9515
SWIDTH 1000 0
DWIDTH 16 0
BBX 9 16 0 -2
BITMAP
0180
0180
0180
0180
0180
0180
0180
FF80
FF80
0180
0180
0180
0180
0180
0180
0180
ENDCHAR
STARTCHAR 252C
ENCODING 9516
SWIDTH 1000 0
DWIDTH 16 0
BBX 16 8 0 -2
BITMAP
FFFF
0080
0080
0080
0080
0080
0080
0080
ENDCHAR
STARTCHAR 252F
ENCODING 9519
SWIDTH 1000 0
DWIDTH 16 0
BBX 16 9 0 -2
BITMAP
FFFF
FFFF
0080
0080
0080
0080
0080
0080
0080
ENDCHAR
STARTCHAR 2530
ENCODING 9520
SWIDTH 1000 0
DWIDTH 16 0
BBX 16 8 0 -2
BITMAP
FFFF
0180
0180
0180
0180
0180
0180
0180
ENDCHAR
STARTCHAR 2533
ENCODING 9523
SWIDTH 1000 0
DWIDTH 16 0
BBX 16 9 0 -2
BITMAP
FFFF
FFFF
0180
0180
0180
0180
0180
0180
0180
ENDCHAR
STARTCHAR 2534
ENCODING 9524
SWIDTH 1000 0
DWIDTH 16 0
BBX 16 9 0 5
BITMAP
0080
0080
0080
0080
0080
0080
0080
0080
FFFF
ENDCHAR
STARTCHAR 2537
ENCODING 9527
SWIDTH 1000 0
DWIDTH 16 0
BBX 16 9 0 5
BITMAP
0080
0080
0080
0080
0080
0080
0080
FFFF
FFFF
ENDCHAR
STARTCHAR 2538
ENCODING 9528
SWIDTH 1000 0
DWIDTH 16 0
BBX 16 9 0 5
BITMAP
0180
0180
0180
0180
0180
0180
0180
0180
FFFF
ENDCHAR
STARTCHAR 253B
ENCODING 9531
SWIDTH 1000 0
DWIDTH 16 0
BBX 16 9 0 5
BITMAP
0180
0180
0180
0180
0180
0180
0180
FFFF
FFFF
ENDCHAR
STARTCHAR 253C
ENCODING 9532
SWIDTH 1000 0
DWIDTH 16 0
BBX 16 16 0 -2
BITMAP
0080
0080
0080
0080
0080
0080
0080
0080
FFFF
0080
0080
0080
0080
0080
0080
0080
ENDCHAR
STARTCHAR 253F
ENCODING 9535
SWIDTH 1000 0
DWIDTH 16 0
BBX 16 16 0 -2
BITMAP
0080
0080
0080
0080
0080
0080
0080
FFFF
FFFF
0080
0080
0080
0080
0080
0080
0080
ENDCHAR
STARTCHAR 2542
ENCODING 9538
SWIDTH 1000 0
DWIDTH 16 0
BBX 16 16 0 -2
BITMAP
0180
0180
0180
0180
0180
0180
0180
0180
FFFF
0180
0180
0180
0180
0180
0180
0180
ENDCHAR
STARTCHAR 254B
ENCODING 9547
SWIDTH 1000 0
DWIDTH 16 0
BBX 16 16 0 -2
BITMAP
0180
0180
0180
0180
0180
0180
0180
FFFF
FFFF
0180
0180
0180
0180
0180
0180
0180
ENDCHAR
STARTCHAR 25A0
ENCODING 9632
SWIDTH 1000 0
DWIDTH 16 0
BBX 12 12 2 0
BITMAP
FFF0
FFF0
FFF0
FFF0
FFF0
FFF0
FFF0
FFF0
FFF0
FFF0
FFF0
FFF0
ENDCHAR
STARTCHAR 25A1
ENCODING 9633
SWIDTH 1000 0
DWIDTH 16 0
BBX 12 12 2 0
BITMAP
FFF0
8010
8010
8010
8010
8010
8010
8010
8010
8010
8010
FFF0
ENDCHAR
STARTCHAR 25B1
ENCODING 9649
SWIDTH 500 0
DWIDTH 8 0
BBX 6 4 1 4
BITMAP
7C
84
88
F8
ENDCHAR
STARTCHAR 25B2
ENCODING 9650
SWIDTH 1000 0
DWIDTH 16 0
BBX 12 12 2 1
BITMAP
0400
0600
0F00
0F00
1F80
1F80
3FC0
3FC0
7FE0
7FE0
FFF0
FFF0
ENDCHAR
STARTCHAR 25B3
ENCODING 9651
SWIDTH 1000 0
DWIDTH 16 0
BBX 12 13 2 0
BITMAP
0400
0600
0600
0900
0900
1080
2080
2040
4040
4020
8020
8010
FFF0
ENDCHAR
STARTCHAR 25B6
ENCODING 9654
SWIDTH 500 0
DWIDTH 8 0
BBX 7 8 1 2
BITMAP
C0
E0
F0
FC
FE
F0
E0
80
ENDCHAR
STARTCHAR 25B7
ENCODING 9655
SWIDTH 500 0
DWIDTH 8 0
BBX 7 8 1 2
BITMAP
C0
A0
98
84
86
98
A0
C0
ENDCHAR
STARTCHAR 25BC
ENCODING 9660
SWIDTH 1000 0
DWIDTH 16 0
BBX 12 12 2 -1
BITMAP
FFF0
FFF0
7FE0
7FE0
3FC0
3FC0
1F80
1F80
0F00
0F00
0600
0400
ENDCHAR
STARTCHAR 25BD
ENCODING 9661
SWIDTH 1000 0
DWIDTH 16 0
BBX 12 13 2 -1
BITMAP
FFF0
8010
8020
4020
4040
2040
2080
1080
0900
0900
0600
0600
0400
ENDCHAR
STARTCHAR 25C0
ENCODING 9664
SWIDTH 500 0
DWIDTH 8 0
BBX 7 9 0 1
BITMAP
02
06
0E
1E
7E
FE
1E
0E
02
ENDCHAR
STARTCHAR 25C1
ENCODING 9665
SWIDTH 500 0
DWIDTH 8 0
BBX 7 9 0 1
BITMAP
02
06
0A
32
42
C2
32
0A
06
ENDCHAR
STARTCHAR 25C6
ENCODING 9670
SWIDTH 1000 0
DWIDTH 16 0
BBX 14 14 1 -1
BITMAP
0300
0780
0FC0
1FE0
3FF0
7FF8
FFFC
FFFC
7FF8
3FF0
1FE0
0FC0
0780
0300
ENDCHAR
STARTCHAR 25C7
ENCODING 9671
SWIDTH 1000 0
DWIDTH 16 0
BBX 14 14 1 -1
BITMAP
0300
0480
0840
1020
2010
4008
8004
8004
4008
2010
1020
0840
0480
0300
ENDCHAR
STARTCHAR 25C9
ENCODING 9673
SWIDTH 500 0
DWIDTH 8 0
BBX 8 8 0 2
BITMAP
3C
42
99
BD
BD
99
42
3C
ENDCHAR
STARTCHAR 25CB
ENCODING 9675
SWIDTH 1000 0
DWIDTH 16 0
BBX 14 14 1 -1
BITMAP
0FC0
1860
2010
4008
C00C
8004
8004
8004
8004
C00C
4008
2010
1860
0FC0
ENDCHAR
STARTCHAR 25CE
ENCODING 9678
SWIDTH 1000 0
DWIDTH 16 0
BBX 14 14 1 -1
BITMAP
0FC0
1860
2010
4788
C84C
9024
9024
9024
9024
4848
4788
2010
1860
0780
ENDCHAR
STARTCHAR 25CF
ENCODING 9679
SWIDTH 1000 0
DWIDTH 16 0
BBX 13 13 1 -1
BITMAP
0F80
3FE0
7FF0
7FF0
FFF8
FFF8
FFF8
FFF8
FFF8
7FF0
7FF0
3FE0
0F80
ENDCHAR
STARTCHAR 25D0
ENCODING 9680
SWIDTH 500 0
DWIDTH 8 0
BBX 8 8 0 2
BITMAP
3C
72
F1
F1
F1
F2
72
3C
ENDCHAR
STARTCHAR 25D1
ENCODING 9681
SWIDTH 500 0
DWIDTH 8 0
BBX 8 8 0 2
BITMAP
3C
4E
8F
8F
8F
8F
6E
3C
ENDCHAR
STARTCHAR 25D2
ENCODING 9682
SWIDTH 500 0
DWIDTH 8 0
BBX 8 8 0 2
BITMAP
3C
42
81
81
FF
FF
7E
3C
ENDCHAR
STARTCHAR 25D3
ENCODING 9683
SWIDTH 500 0
DWIDTH 8 0
BBX 8 8 0 2
BITMAP
3C
7E
FF
FF
81
82
42
3C
ENDCHAR
STARTCHAR 25E6
ENCODING 9702
SWIDTH 500 0
DWIDTH 8 0
BBX 4 4 2 4
BITMAP
60
90
90
60
ENDCHAR
STARTCHAR 25EF
ENCODING 9711
SWIDTH 1000 0
DWIDTH 16 0
BBX 14 14 1 -1
BITMAP
0FC0
3070
4018
4008
800C
8004
8004
8004
8004
8008
8008
4010
3020
0FC0
ENDCHAR
STARTCHAR 2600
ENCODING 9728
SWIDTH 1000 0
DWIDTH 16 0
BBX 15 15 1 -1
BITMAP
0100
0100
4108
2010
17A0
0FC0
1FE0
1FE0
DFEE
1FE0
0FC0
0780
3010
4108
0100
ENDCHAR
STARTCHAR 2601
ENCODING 9729
SWIDTH 1000 0
DWIDTH 16 0
BBX 14 11 1 -1
BITMAP
0F00
1F80
1FD8
1FFC
3FFC
7FFC
FFF8
FFFC
FDFC
78F8
0070
ENDCHAR
STARTCHAR 2602
ENCODING 9730
SWIDTH 1000 0
DWIDTH 16 0
BBX 15 14 1 -1
BITMAP
0100
0FE0
3FF8
7FFC
7FFC
9112
1122
0100
0100
0100
0100
0100
0900
0700
ENDCHAR
STARTCHAR 2603
ENCODING 9731
SWIDTH 1000 0
DWIDTH 16 0
BBX 14 15 1 -1
BITMAP
8200
82CC
1120
0210
4E14
11E0
2490
A010
15A4
2210
C008
8208
8008
8208
4010
ENDCHAR
STARTCHAR 2605
ENCODING 9733
SWIDTH 1000 0
DWIDTH 16 0
BBX 16 15 0 -2
BITMAP
0100
0100
0180
0180
0180
03C0
FFFF
1FFC
0FF0
07E0
07E0
0FF0
0E70
0810
1008
ENDCHAR
STARTCHAR 2606
ENCODING 9734
SWIDTH 1000 0
DWIDTH 16 0
BBX 16 16 0 -2
BITMAP
0100
0100
0180
0180
0280
0240
FE7F
2004
1008
0C30
0820
0910
0AD0
1430
1818
2008
ENDCHAR
STARTCHAR 260E
ENCODING 9742
SWIDTH 1000 0
DWIDTH 16 0
BBX 14 12 1 0
BITMAP
3FF0
FFFC
E85C
CFCC
1FE0
1860
3030
3030
7038
F87C
FFFC
FFFC
ENDCHAR
STARTCHAR 2616
ENCODING 9750
SWIDTH 1000 0
DWIDTH 16 0
BBX 13 13 1 1
BITMAP
0300
0CC0
3030
4010
4010
4008
4008
4008
4008
4008
4008
8008
7FF8
ENDCHAR
STARTCHAR 2617
ENCODING 9751
SWIDTH 1000 0
DWIDTH 16 0
BBX 12 13 2 0
BITMAP
0600
0F00
3FC0
7FE0
7FE0
FFF0
FFF0
FFF0
FFF0
FFF0
FFF0
FFF0
FFF0
ENDCHAR
STARTCHAR 261E
ENCODING 9758
SWIDTH 1000 0
DWIDTH 16 0
BBX 14 6 1 3
BITMAP
FFFC
937C
A4A0
BBA0
B360
ADC0
ENDCHAR
STARTCHAR 2640
ENCODING 9792
SWIDTH 1000 0
DWIDTH 16 0
BBX 10 14 3 -1
BITMAP
0E00
1100
2080
2080
2080
1100
0E00
0400
0400
FFC0
0400
0400
0400
0400
ENDCHAR
STARTCHAR 2642
ENCODING 9794
SWIDTH 1000 0
DWIDTH 16 0
BBX 12 12 2 0
BITMAP
01F0
0030
0050
0090
0110
3A00
4400
8200
8200
8200
4400
3800
ENDCHAR
STARTCHAR 2660
ENCODING 9824
SWIDTH 500 0
DWIDTH 8 0
BBX 6 9 1 3
BITMAP
30
30
78
FC
FC
FC
FC
30
30
ENDCHAR
STARTCHAR 2661
ENCODING 9825
SWIDTH 500 0
DWIDTH 8 0
BBX 6 8 1 1
BITMAP
FC
A4
84
84
88
48
50
30
ENDCHAR
STARTCHAR 2662
ENCODING 9826
SWIDTH 500 0
DWIDTH 8 0
BBX 6 10 1 1
BITMAP
20
30
48
88
84
84
88
48
30
20
ENDCHAR
STARTCHAR 2663
ENCODING 9827
SWIDTH 500 0
DWIDTH 8 0
BBX 8 9 0 2
BITMAP
18
3C
3C
7E
FF
FF
7E
18
18
ENDCHAR
STARTCHAR 2664
ENCODING 9828
SWIDTH 500 0
DWIDTH 8 0
BBX 6 10 1 2
BITMAP
20
30
48
48
84
84
B4
FC
50
30
ENDCHAR
STARTCHAR 2665
ENCODING 9829
SWIDTH 500 0
DWIDTH 8 0
BBX 6 8 1 1
BITMAP
FC
FC
FC
FC
F8
78
70
30
ENDCHAR
STARTCHAR 2666
ENCODING 9830
SWIDTH 500 0
DWIDTH 8 0
BBX 6 10 1 1
BITMAP
20
30
78
78
FC
FC
78
78
30
20
ENDCHAR
STARTCHAR 2667
ENCODING 9831
SWIDTH 500 0
DWIDTH 8 0
BBX 8 9 0 2
BITMAP
18
24
24
66
81
81
7E
28
18
ENDCHAR
STARTCHAR 2668
ENCODING 9832
SWIDTH 1000 0
DWIDTH 16 0
BBX 14 12 1 1
BITMAP
0200
1240
1240
1240
1240
0920
0920
4928
8924
9244
6408
1FF0
ENDCHAR
STARTCHAR 2669
ENCODING 9833
SWIDTH 500 0
DWIDTH 8 0
BBX 3 9 2 2
BITMAP
20
20
20
20
20
20
20
E0
E0
ENDCHAR
STARTCHAR 266A
ENCODING 9834
SWIDTH 1000 0
DWIDTH 16 0
BBX 11 14 3 -1
BITMAP
0800
0C00
0E00
0B00
09C0
0860
0820
0820
0840
0880
0800
7800
F800
F000
ENDCHAR
STARTCHAR 266B
ENCODING 9835
SWIDTH 500 0
DWIDTH 8 0
BBX 6 10 1 1
BITMAP
04
3C
24
24
24
24
24
2C
EC
E0
ENDCHAR
STARTCHAR 266C
ENCODING 9836
SWIDTH 500 0
DWIDTH 8 0
BBX 6 10 1 1
BITMAP
04
3C
2C
34
24
24
24
2C
EC
E0
ENDCHAR
STARTCHAR 266D
ENCODING 9837
SWIDTH 1000 0
DWIDTH 16 0
BBX 6 13 6 -1
BITMAP
80
80
80
80
80
B8
C4
84
84
88
88
90
E0
ENDCHAR
STARTCHAR 266E
ENCODING 9838
SWIDTH 500 0
DWIDTH 8 0
BBX 4 9 2 2
BITMAP
80
80
F0
90
90
B0
D0
10
10
ENDCHAR
STARTCHAR 266F
ENCODING 9839
SWIDTH 1000 0
DWIDTH 16 0
BBX 10 14 3 -1
BITMAP
0200
1200
1200
12C0
1F80
F200
1200
1200
13C0
7E00
D200
1200
1200
1000
ENDCHAR
STARTCHAR 2713
ENCODING 10003
SWIDTH 1000 0
DWIDTH 16 0
BBX 10 11 4 1
BITMAP
0040
0080
0080
0100
0200
0200
8400
8800
5000
6000
2000
ENDCHAR
STARTCHAR 2756
ENCODING 10070
SWIDTH 1000 0
DWIDTH 16 0
BBX 14 14 1 -1
BITMAP
0300
0780
0FC0
0FC0
37B0
7B78
FCFC
FCFC
7B78
37B0
0FC0
0FC0
0780
0300
ENDCHAR
STARTCHAR 2776
ENCODING 10102
SWIDTH 1000 0
DWIDTH 16 0
BBX 15 14 1 -1
BITMAP
07C0
1FF0
3EF8
7EFC
FEFC
FEFE
FEFE
FEFE
FEFE
7EFC
7EFC
3C78
1FF0
07C0
ENDCHAR
STARTCHAR 2777
ENCODING 10103
SWIDTH 1000 0
DWIDTH 16 0
BBX 14 14 1 -1
BITMAP
0FC0
1FE0
3870
7738
F3BC
FFBC
FF7C
FEFC
FDFC
FBFC
7FB8
3030
1FE0
0FC0
ENDCHAR
STARTCHAR 2778
ENCODING 10104
SWIDTH 1000 0
DWIDTH 16 0
BBX 14 15 1 -1
BITMAP
07C0
1FE0
3FF0
7BF8
77B8
F3BC
FF3C
FCFC
FF3C
FF9C
7398
7718
3830
1FE0
0780
ENDCHAR
STARTCHAR 2779
ENCODING 10105
SWIDTH 1000 0
DWIDTH 16 0
BBX 15 15 1 -2
BITMAP
0FC0
1FF0
3F78
7F7C
FD7C
FB7E
F77E
FF7E
E01E
FF7E
7F7C
7E3C
3FF8
1FF0
07C0
ENDCHAR
STARTCHAR 277A
ENCODING 10106
SWIDTH 1000 0
DWIDTH 16 0
BBX 14 14 1 -1
BITMAP
0FC0
3FF0
7838
77F8
F7FC
F47C
F33C
FFBC
FFBC
77B8
77F8
3870
1FE0
0FC0
ENDCHAR
STARTCHAR 277B
ENCODING 10107
SWIDTH 1000 0
DWIDTH 16 0
BBX 14 14 1 -1
BITMAP
0FC0
3FF0
7F78
7BB8
FFFC
F7FC
FB7C
F7BC
F7BC
77B8
7B38
3C70
1FE0
0FC0
ENDCHAR
STARTCHAR 277C
ENCODING 10108
SWIDTH 1000 0
DWIDTH 16 0
BBX 14 15 1 -1
BITMAP
0F80
1FC0
3FF0
7038
77F8
FF7C
FF7C
FEFC
FEFC
FEFC
7DF8
7DF8
3DF0
1FE0
0FC0
ENDCHAR
STARTCHAR 277D
ENCODING 10109
SWIDTH 1000 0
DWIDTH 16 0
BBX 14 14 1 -1
BITMAP
0FC0
3FF0
7B78
77B8
F7BC
F37C
FCFC
FB7C
F7BC
77B8
77B8
3870
1FE0
0FC0
ENDCHAR
STARTCHAR 277E
ENCODING 10110
SWIDTH 1000 0
DWIDTH 16 0
BBX 14 14 1 -1
BITMAP
0FC0
3FF0
7B78
77F8
F7BC
F7BC
F7BC
FBBC
FFBC
73B8
7778
38F0
1FE0
0FC0
ENDCHAR
STARTCHAR 277F
ENCODING 10111
SWIDTH 1000 0
DWIDTH 16 0
BBX 15 15 0 -2
BITMAP
07C0
1FF0
3FF8
675C
77FC
F6EE
F6EE
F6EE
F6EE
F6EE
77EC
775C
3FF8
1FF0
07C0
ENDCHAR
STARTCHAR 2934
ENCODING 10548
SWIDTH 500 0
DWIDTH 8 0
BBX 6 12 1 1
BITMAP
10
38
54
10
10
10
10
10
10
10
30
E0
ENDCHAR
STARTCHAR 2935
ENCODING 10549
SWIDTH 500 0
DWIDTH 8 0
BBX 6 12 1 -1
BITMAP
E0
30
10
10
10
10
10
10
10
54
38
10
ENDCHAR
STARTCHAR 29BF
ENCODING 10687
SWIDTH 1000 0
DWIDTH 16 0
BBX 14 14 1 -1
BITMAP
0FC0
1860
2010
4008
C00C
8304
8784
8784
8304
4008
4008
2010
1860
0780
ENDCHAR
STARTCHAR 29FA
ENCODING 10746
SWIDTH 500 0
DWIDTH 8 0
BBX 6 8 1 2
BITMAP
48
48
48
48
FC
48
48
48
ENDCHAR
STARTCHAR 29FB
ENCODING 10747
SWIDTH 500 0
DWIDTH 8 0
BBX 6 8 1 2
BITMAP
58
58
58
58
FC
58
58
58
ENDCHAR
STARTCHAR 3000
ENCODING 12288
SWIDTH 1000 0
DWIDTH 16 0
BBX 0 0 0 0
BITMAP
ENDCHAR
STARTCHAR 3001
ENCODING 12289
SWIDTH 1000 0
DWIDTH 16 0
BBX 3 3 1 0
BITMAP
C0
60
20
ENDCHAR
STARTCHAR 3002
ENCODING 12290
SWIDTH 1000 0
DWIDTH 16 0
BBX 4 4 1 -1
BITMAP
60
90
90
60
ENDCHAR
STARTCHAR 3003
ENCODING 12291
SWIDTH 1000 0
DWIDTH 16 0
BBX 7 7 4 2
BITMAP
32
26
24
24
48
88
90
ENDCHAR
STARTCHAR 3005
ENCODING 12293
SWIDTH 1000 0
DWIDTH 16 0
BBX 11 10 2 2
BITMAP
0800
0400
0800
0840
17E0
2080
2100
CE00
0200
0100
ENDCHAR
STARTCHAR 3006
ENCODING 12294
SWIDTH 1000 0
DWIDTH 16 0
BBX 10 12 3 0
BITMAP
0080
0040
0180
0200
3C00
4400
4A00
9200
A000
A000
C000
8000
ENDCHAR
STARTCHAR 3007
ENCODING 12295
SWIDTH 1000 0
DWIDTH 16 0
BBX 12 13 2 0
BITMAP
0F00
10C0
6060
4020
8010
8010
8010
8010
8010
4020
6060
30C0
0F00
ENDCHAR
STARTCHAR 3008
ENCODING 12296
SWIDTH 1000 0
DWIDTH 16 0
BBX 6 14 9 -1
BITMAP
04
08
10
20
20
40
80
80
40
20
20
10
08
04
ENDCHAR
STARTCHAR 3009
ENCODING 12297
SWIDTH 1000 0
DWIDTH 16 0
BBX 6 14 1 -1
BITMAP
80
40
20
20
10
08
04
04
08
10
20
20
40
80
ENDCHAR
STARTCHAR 300A
ENCODING 12298
SWIDTH 1000 0
DWIDTH 16 0
BBX 6 14 9 -1
BITMAP
14
14
28
50
50
A0
A0
A0
A0
50
50
28
14
14
ENDCHAR
STARTCHAR 300B
ENCODING 12299
SWIDTH 1000 0
DWIDTH 16 0
BBX 6 14 1 -1
BITMAP
A0
A0
50
50
28
14
14
14
14
28
50
50
A0
A0
ENDCHAR
STARTCHAR 300C
ENCODING 12300
SWIDTH 1000 0
DWIDTH 16 0
BBX 4 11 11 2
BITMAP
F0
80
80
80
80
80
80
80
80
80
80
ENDCHAR
STARTCHAR 300D
ENCODING 12301
SWIDTH 1000 0
DWIDTH 16 0
BBX 4 11 1 -1
BITMAP
10
10
10
10
10
10
10
10
10
10
F0
ENDCHAR
STARTCHAR 300E
ENCODING 12302
SWIDTH 1000 0
DWIDTH 16 0
BBX 6 11 9 2
BITMAP
FC
84
BC
A0
A0
A0
A0
A0
A0
A0
E0
ENDCHAR
STARTCHAR 300F
ENCODING 12303
SWIDTH 1000 0
DWIDTH 16 0
BBX 6 11 1 -1
BITMAP
1C
14
14
14
14
14
14
14
F4
84
FC
ENDCHAR
STARTCHAR 3010
ENCODING 12304
SWIDTH 1000 0
DWIDTH 16 0
BBX 3 14 11 -1
BITMAP
E0
C0
C0
80
80
80
80
80
80
80
80
C0
C0
E0
ENDCHAR
STARTCHAR 3011
ENCODING 12305
SWIDTH 1000 0
DWIDTH 16 0
BBX 3 14 2 -1
BITMAP
E0
60
60
20
20
20
20
20
20
20
20
60
60
E0
ENDCHAR
STARTCHAR 3012
ENCODING 12306
SWIDTH 1000 0
DWIDTH 16 0
BBX 12 13 2 -1
BITMAP
FFF0
FFF0
0000
0000
FFF0
FFF0
0600
0600
0600
0600
0600
0600
0600
ENDCHAR
STARTCHAR 3013
ENCODING 12307
SWIDTH 1000 0
DWIDTH 16 0
BBX 12 7 2 3
BITMAP
FFF0
FFF0
FFF0
0000
0000
FFF0
FFF0
ENDCHAR
STARTCHAR 3014
ENCODING 12308
SWIDTH 1000 0
DWIDTH 16 0
BBX 4 14 11 -1
BITMAP
30
C0
80
80
80
80
80
80
80
80
80
80
C0
30
ENDCHAR
STARTCHAR 3015
ENCODING 12309
SWIDTH 1000 0
DWIDTH 16 0
BBX 4 14 1 -1
BITMAP
C0
30
10
10
10
10
10
10
10
10
10
10
30
C0
ENDCHAR
STARTCHAR 3016
ENCODING 12310
SWIDTH 1000 0
DWIDTH 16 0
BBX 5 14 10 -1
BITMAP
F8
90
90
A0
A0
A0
A0
A0
A0
A0
A0
90
90
F8
ENDCHAR
STARTCHAR 3017
ENCODING 12311
SWIDTH 1000 0
DWIDTH 16 0
BBX 5 14 1 -1
BITMAP
F8
88
48
48
28
28
28
28
28
28
48
48
88
F8
ENDCHAR
STARTCHAR 3018
ENCODING 12312
SWIDTH 1000 0
DWIDTH 16 0
BBX 5 14 10 -1
BITMAP
18
68
90
A0
A0
A0
A0
A0
A0
A0
A0
98
48
38
ENDCHAR
STARTCHAR 3019
ENCODING 12313
SWIDTH 1000 0
DWIDTH 16 0
BBX 5 14 1 -1
BITMAP
C0
B0
48
28
28
28
28
28
28
28
28
C8
90
E0
ENDCHAR
STARTCHAR 301C
ENCODING 12316
SWIDTH 1000 0
DWIDTH 16 0
BBX 14 4 1 4
BITMAP
1C00
660C
8188
00F0
ENDCHAR
STARTCHAR 301D
ENCODING 12317
SWIDTH 1000 0
DWIDTH 16 0
BBX 5 6 10 8
BITMAP
40
20
98
40
30
08
ENDCHAR
STARTCHAR 301F
ENCODING 12319
SWIDTH 1000 0
DWIDTH 16 0
BBX 4 6 1 -1
BITMAP
80
60
10
C0
20
10
ENDCHAR
STARTCHAR 3020
ENCODING 12320
SWIDTH 1000 0
DWIDTH 16 0
BBX 14 11 1 0
BITMAP
7FF8
0000
7FF8
0200
FA74
AA54
B274
8A48
4888
3730
0FC0
ENDCHAR
STARTCHAR 3033
ENCODING 12339
SWIDTH 1000 0
DWIDTH 16 0
BBX 6 14 4 -2
BITMAP
10
0C
04
08
08
10
10
20
20
40
40
40
80
80
ENDCHAR
STARTCHAR 3034
ENCODING 12340
SWIDTH 1000 0
DWIDTH 16 0
BBX 9 14 4 -2
BITMAP
1000
0C00
0400
0800
0800
1000
1000
2200
2580
4380
4100
4000
8000
8000
ENDCHAR
STARTCHAR 3035
ENCODING 12341
SWIDTH 1000 0
DWIDTH 16 0
BBX 7 14 4 0
BITMAP
80
80
40
40
20
10
10
08
08
04
04
06
06
02
ENDCHAR
STARTCHAR 303B
ENCODING 12347
SWIDTH 1000 0
DWIDTH 16 0
BBX 7 10 4 2
BITMAP
20
10
0C
10
20
30
18
06
18
E0
ENDCHAR
STARTCHAR 303C
ENCODING 12348
SWIDTH 1000 0
DWIDTH 16 0
BBX 14 14 1 -1
BITMAP
FFFC
800C
8014
8024
8044
8084
8104
8204
8404
8804
9004
A004
C004
FFFC
ENDCHAR
STARTCHAR 303D
ENCODING 12349
SWIDTH 1000 0
DWIDTH 16 0
BBX 11 14 3 -1
BITMAP
6000
A600
1A00
0200
0100
0100
0100
0080
0080
0080
0040
0040
0020
0020
ENDCHAR
STARTCHAR 3041
ENCODING 12353
SWIDTH 1000 0
DWIDTH 16 0
BBX 10 12 3 -1
BITMAP
1000
0800
8B00
7C00
1200
1F80
3440
5440
9840
90C0
F080
0700
ENDCHAR
STARTCHAR 3042
ENCODING 12354
SWIDTH 1000 0
DWIDTH 16 0
BBX 12 14 2 -1
BITMAP
0C00
0400
4980
3E00
0900
0FC0
1920
2910
4A10
8C10
8810
F820
08C0
0300
ENDCHAR
STARTCHAR 3043
ENCODING 12355
SWIDTH 1000 0
DWIDTH 16 0
BBX 11 9 3 0
BITMAP
8000
8180
8040
8060
9020
9020
A000
6000
2000
ENDCHAR
STARTCHAR 3044
ENCODING 12356
SWIDTH 1000 0
DWIDTH 16 0
BBX 14 10 1 1
BITMAP
8000
4060
4010
4008
400C
4C0C
4804
5000
3000
1000
ENDCHAR
STARTCHAR 3045
ENCODING 12357
SWIDTH 1000 0
DWIDTH 16 0
BBX 9 11 3 -1
BITMAP
1E00
1000
0000
8F00
7180
0080
0080
0080
0100
0200
1C00
ENDCHAR
STARTCHAR 3046
ENCODING 12358
SWIDTH 1000 0
DWIDTH 16 0
BBX 9 14 3 0
BITMAP
2000
1E00
1000
0000
0E00
B100
C080
0080
0080
0080
0100
0200
0C00
7000
ENDCHAR
STARTCHAR 3047
ENCODING 12359
SWIDTH 1000 0
DWIDTH 16 0
BBX 10 12 3 -1
BITMAP
2000
1E00
1000
0200
4F00
3200
0C00
1C00
3200
6200
C200
81C0
ENDCHAR
STARTCHAR 3048
ENCODING 12360
SWIDTH 1000 0
DWIDTH 16 0
BBX 12 13 2 0
BITMAP
1000
0F80
0800
0000
4380
3D00
0200
0400
0E00
1100
2100
C100
80F0
ENDCHAR
STARTCHAR 3049
ENCODING 12361
SWIDTH 1000 0
DWIDTH 16 0
BBX 11 10 2 1
BITMAP
3000
10C0
1420
F820
1000
17C0
3820
D020
9020
77C0
ENDCHAR
STARTCHAR 304A
ENCODING 12362
SWIDTH 1000 0
DWIDTH 16 0
BBX 13 12 2 1
BITMAP
3080
1070
1618
FC08
1000
1000
17E0
3830
D010
9010
D020
73C0
ENDCHAR
STARTCHAR 304B
ENCODING 12363
SWIDTH 1000 0
DWIDTH 16 0
BBX 14 12 1 1
BITMAP
0C00
0400
0860
9F10
6888
0884
108C
10B4
2080
2900
4700
4200
ENDCHAR
STARTCHAR 304C
ENCODING 12364
SWIDTH 1000 0
DWIDTH 16 0
BBX 15 14 1 0
BITMAP
0008
0026
0C1A
0408
0860
9F10
6888
0884
108C
10B4
2080
2900
4700
4200
ENDCHAR
STARTCHAR 304D
ENCODING 12365
SWIDTH 1000 0
DWIDTH 16 0
BBX 11 13 3 0
BITMAP
1800
0800
0980
7E00
8460
02C0
FF00
0100
0180
0380
4000
2000
1F80
ENDCHAR
STARTCHAR 304E
ENCODING 12366
SWIDTH 1000 0
DWIDTH 16 0
BBX 13 13 3 1
BITMAP
1830
0868
09A0
7E00
8460
02C0
FF00
0100
0180
0380
4000
2000
1F80
ENDCHAR
STARTCHAR 304F
ENCODING 12367
SWIDTH 1000 0
DWIDTH 16 0
BBX 8 14 4 -1
BITMAP
04
02
0C
10
20
C0
80
40
30
18
0C
06
03
01
ENDCHAR
STARTCHAR 3050
ENCODING 12368
SWIDTH 1000 0
DWIDTH 16 0
BBX 10 14 4 -1
BITMAP
0400
0200
0C00
1080
2240
C100
8000
4000
3000
1800
0C00
0600
0300
0100
ENDCHAR
STARTCHAR 3051
ENCODING 12369
SWIDTH 1000 0
DWIDTH 16 0
BBX 12 14 2 -2
BITMAP
80C0
4040
4040
4040
4FF0
8040
8040
8040
A040
A040
C080
4080
4100
0200
ENDCHAR
STARTCHAR 3052
ENCODING 12370
SWIDTH 1000 0
DWIDTH 16 0
BBX 14 15 2 -2
BITMAP
0010
80CC
4074
4050
4040
4FF0
8040
8040
8040
A040
A040
C080
4080
4100
0200
ENDCHAR
STARTCHAR 3053
ENCODING 12371
SWIDTH 1000 0
DWIDTH 16 0
BBX 11 11 2 1
BITMAP
2000
1F80
0200
0C00
0000
0000
0000
0000
8000
6000
1FE0
ENDCHAR
STARTCHAR 3054
ENCODING 12372
SWIDTH 1000 0
DWIDTH 16 0
BBX 13 13 2 1
BITMAP
0010
0048
2030
1F90
0200
0C00
0000
0000
0000
0000
8000
6000
1FE0
ENDCHAR
STARTCHAR 3055
ENCODING 12373
SWIDTH 1000 0
DWIDTH 16 0
BBX 11 13 2 0
BITMAP
0C00
0400
0460
0380
FE00
0100
0080
0080
01C0
4040
2000
1000
0F80
ENDCHAR
STARTCHAR 3056
ENCODING 12374
SWIDTH 1000 0
DWIDTH 16 0
BBX 14 14 2 0
BITMAP
0008
0C24
0410
0470
0380
FE00
0100
0080
0080
01C0
4040
2000
1000
0F80
ENDCHAR
STARTCHAR 3057
ENCODING 12375
SWIDTH 1000 0
DWIDTH 16 0
BBX 11 13 3 0
BITMAP
8000
6000
2000
6000
4000
4000
4000
4040
4060
4040
4080
2100
1E00
ENDCHAR
STARTCHAR 3058
ENCODING 12376
SWIDTH 1000 0
DWIDTH 16 0
BBX 11 13 3 0
BITMAP
8000
6000
2180
6240
4100
4000
4000
4040
4060
4040
4080
2100
1E00
ENDCHAR
STARTCHAR 3059
ENCODING 12377
SWIDTH 1000 0
DWIDTH 16 0
BBX 15 15 0 -1
BITMAP
0180
0080
0080
87FE
7880
0380
0480
0440
0440
03C0
00C0
0080
0080
0100
0200
ENDCHAR
STARTCHAR 305A
ENCODING 12378
SWIDTH 1000 0
DWIDTH 16 0
BBX 15 16 0 -2
BITMAP
0004
019A
0084
0080
87FE
7880
0380
0480
0440
0440
03C0
00C0
0080
0080
0100
0200
ENDCHAR
STARTCHAR 305B
ENCODING 12379
SWIDTH 1000 0
DWIDTH 16 0
BBX 15 13 0 0
BITMAP
0040
1020
0820
0820
08FE
FF20
0820
0920
08C0
0840
0800
0418
03F8
ENDCHAR
STARTCHAR 305C
ENCODING 12380
SWIDTH 1000 0
DWIDTH 16 0
BBX 15 14 0 0
BITMAP
0004
0052
102C
0824
0820
08FE
FF20
0820
0920
08C0
0840
0800
0418
03F8
ENDCHAR
STARTCHAR 305D
ENCODING 12381
SWIDTH 1000 0
DWIDTH 16 0
BBX 12 12 2 1
BITMAP
3FC0
0180
0200
0C00
13F0
EE00
0400
0800
0800
0800
0400
03C0
ENDCHAR
STARTCHAR 305E
ENCODING 12382
SWIDTH 1000 0
DWIDTH 16 0
BBX 14 14 2 0
BITMAP
0018
0024
3FD0
0180
0200
0C00
13F0
EE00
0400
0800
0800
0800
0400
03C0
ENDCHAR
STARTCHAR 305F
ENCODING 12383
SWIDTH 1000 0
DWIDTH 16 0
BBX 12 13 2 0
BITMAP
0800
0400
0800
8F00
7000
11E0
2680
2000
2000
4000
4400
8200
81F0
ENDCHAR
STARTCHAR 3060
ENCODING 12384
SWIDTH 1000 0
DWIDTH 16 0
BBX 12 13 2 1
BITMAP
0820
0450
0820
8F00
7000
11E0
2680
2000
2000
4000
4400
8200
81F0
ENDCHAR
STARTCHAR 3061
ENCODING 12385
SWIDTH 1000 0
DWIDTH 16 0
BBX 11 14 2 -1
BITMAP
1800
0800
1300
FE00
1000
2000
2000
27C0
3820
2020
0020
0040
0380
0C00
ENDCHAR
STARTCHAR 3062
ENCODING 12386
SWIDTH 1000 0
DWIDTH 16 0
BBX 12 14 2 0
BITMAP
1830
08D0
1340
FE00
1000
2000
2000
27C0
3820
2020
0020
0040
0380
0C00
ENDCHAR
STARTCHAR 3063
ENCODING 12387
SWIDTH 1000 0
DWIDTH 16 0
BBX 11 8 2 0
BITMAP
0FC0
F060
0020
0020
0020
0040
0180
0E00
ENDCHAR
STARTCHAR 3064
ENCODING 12388
SWIDTH 1000 0
DWIDTH 16 0
BBX 13 9 1 1
BITMAP
03E0
9C10
6008
0008
0008
0010
0010
0060
0780
ENDCHAR
STARTCHAR 3065
ENCODING 12389
SWIDTH 1000 0
DWIDTH 16 0
BBX 15 13 1 1
BITMAP
000C
0012
0008
0000
03E0
9C10
6008
0008
0008
0010
0010
0060
0780
ENDCHAR
STARTCHAR 3066
ENCODING 12390
SWIDTH 1000 0
DWIDTH 16 0
BBX 13 12 1 0
BITMAP
0078
8F80
7100
0200
0400
0400
0400
0400
0400
0600
0230
01F0
ENDCHAR
STARTCHAR 3067
ENCODING 12391
SWIDTH 1000 0
DWIDTH 16 0
BBX 14 12 1 0
BITMAP
0078
8F80
7100
0208
0424
0410
0400
0400
0400
0600
0230
01F0
ENDCHAR
STARTCHAR 3068
ENCODING 12392
SWIDTH 1000 0
DWIDTH 16 0
BBX 10 13 3 0
BITMAP
7000
3000
3000
1080
1180
1600
1800
2000
4000
8000
8000
C0C0
3FC0
ENDCHAR
STARTCHAR 3069
ENCODING 12393
SWIDTH 1000 0
DWIDTH 16 0
BBX 12 13 3 1
BITMAP
7030
30D0
3020
1080
1180
1600
1800
2000
4000
8000
8000
C0C0
3FC0
ENDCHAR
STARTCHAR 306A
ENCODING 12394
SWIDTH 1000 0
DWIDTH 16 0
BBX 12 13 2 0
BITMAP
1800
0800
8EC0
7030
10D0
2100
2100
4100
C100
8F00
10E0
1090
0F00
ENDCHAR
STARTCHAR 306B
ENCODING 12395
SWIDTH 1000 0
DWIDTH 16 0
BBX 12 12 2 1
BITMAP
4000
27E0
6080
4300
4000
8000
8000
A000
C800
C400
43F0
4000
ENDCHAR
STARTCHAR 306C
ENCODING 12396
SWIDTH 1000 0
DWIDTH 16 0
BBX 13 13 2 0
BITMAP
0400
4200
4200
2F80
3460
6430
6410
A810
9810
91F0
9A30
ABC8
C000
ENDCHAR
STARTCHAR 306D
ENCODING 12397
SWIDTH 1000 0
DWIDTH 16 0
BBX 14 13 1 0
BITMAP
1800
0800
0800
0CE0
7D10
0A08
0C08
1808
2808
48E8
E918
9914
08E4
ENDCHAR
STARTCHAR 306E
ENCODING 12398
SWIDTH 1000 0
DWIDTH 16 0
BBX 13 11 1 0
BITMAP
0FC0
1220
2210
4208
8608
8408
8408
8808
5010
2020
01C0
ENDCHAR
STARTCHAR 306F
ENCODING 12399
SWIDTH 1000 0
DWIDTH 16 0
BBX 13 13 2 0
BITMAP
8100
4080
4080
40B0
8FE0
8080
8080
8080
C080
C780
88F0
8898
8F00
ENDCHAR
STARTCHAR 3070
ENCODING 12400
SWIDTH 1000 0
DWIDTH 16 0
BBX 13 14 2 0
BITMAP
0010
8148
40B0
4090
40B0
8FE0
8080
8080
8080
C080
C780
88F0
8898
8F00
ENDCHAR
STARTCHAR 3071
ENCODING 12401
SWIDTH 1000 0
DWIDTH 16 0
BBX 13 14 2 0
BITMAP
0010
8128
40A8
4098
40B0
8FE0
8080
8080
8080
C080
C780
88F0
8898
8F00
ENDCHAR
STARTCHAR 3072
ENCODING 12402
SWIDTH 1000 0
DWIDTH 16 0
BBX 14 13 1 0
BITMAP
0040
0640
9C20
6C50
0830
102C
1024
2020
2020
2060
2040
10C0
0F00
ENDCHAR
STARTCHAR 3073
ENCODING 12403
SWIDTH 1000 0
DWIDTH 16 0
BBX 15 13 1 1
BITMAP
0046
065A
9C28
6C50
0830
102C
1024
2020
2020
2060
2040
10C0
0F00
ENDCHAR
STARTCHAR 3074
ENCODING 12404
SWIDTH 1000 0
DWIDTH 16 0
BBX 15 13 1 1
BITMAP
005E
0652
9C3C
6C50
0830
102C
1024
2020
2020
2060
2040
10C0
0F00
ENDCHAR
STARTCHAR 3075
ENCODING 12405
SWIDTH 1000 0
DWIDTH 16 0
BBX 15 13 0 0
BITMAP
0400
0380
00E0
0300
0000
0100
0110
0088
0C84
9042
6042
0440
0380
ENDCHAR
STARTCHAR 3076
ENCODING 12406
SWIDTH 1000 0
DWIDTH 16 0
BBX 15 13 0 0
BITMAP
0400
0384
00FA
0304
0000
0100
0110
0088
0C84
9042
6042
0440
0380
ENDCHAR
STARTCHAR 3077
ENCODING 12407
SWIDTH 1000 0
DWIDTH 16 0
BBX 15 13 0 0
BITMAP
0400
038E
00EA
030C
0000
0100
0110
0088
0C84
9042
6042
0440
0380
ENDCHAR
STARTCHAR 3078
ENCODING 12408
SWIDTH 1000 0
DWIDTH 16 0
BBX 14 8 1 2
BITMAP
0600
0B00
1180
30C0
A060
4030
001C
0004
ENDCHAR
STARTCHAR 3079
ENCODING 12409
SWIDTH 1000 0
DWIDTH 16 0
BBX 14 10 1 3
BITMAP
0020
0050
0620
0B00
1180
30C0
A060
4030
001C
0004
ENDCHAR
STARTCHAR 307A
ENCODING 12410
SWIDTH 1000 0
DWIDTH 16 0
BBX 14 10 1 2
BITMAP
0070
0050
0670
0B00
1180
30C0
A060
4030
001C
0004
ENDCHAR
STARTCHAR 307B
ENCODING 12411
SWIDTH 1000 0
DWIDTH 16 0
BBX 13 12 2 1
BITMAP
4FE0
4080
4080
4080
8FF8
8080
8080
A080
C780
C8F0
C888
4700
ENDCHAR
STARTCHAR 307C
ENCODING 12412
SWIDTH 1000 0
DWIDTH 16 0
BBX 14 14 2 0
BITMAP
0008
0024
4FD0
40A0
4080
4080
8FF8
8080
8080
A080
C780
C8F0
C888
4700
ENDCHAR
STARTCHAR 307D
ENCODING 12413
SWIDTH 1000 0
DWIDTH 16 0
BBX 14 14 2 0
BITMAP
0018
0014
4FDC
40A0
4080
4080
8FF8
8080
8080
A080
C780
C8F0
C888
4700
ENDCHAR
STARTCHAR 307E
ENCODING 12414
SWIDTH 1000 0
DWIDTH 16 0
BBX 10 13 3 0
BITMAP
0C00
0400
0400
FFC0
0400
0400
7FC0
0400
0400
7C00
8780
8440
7800
ENDCHAR
STARTCHAR 307F
ENCODING 12415
SWIDTH 1000 0
DWIDTH 16 0
BBX 14 13 1 -1
BITMAP
1380
1D80
0100
0300
0230
0C10
77D0
C830
8818
9024
6040
0080
0300
ENDCHAR
STARTCHAR 3080
ENCODING 12416
SWIDTH 1000 0
DWIDTH 16 0
BBX 14 13 1 1
BITMAP
1800
0800
8F20
7818
0804
3824
481C
8800
9840
F020
1020
1030
0FE0
ENDCHAR
STARTCHAR 3081
ENCODING 12417
SWIDTH 1000 0
DWIDTH 16 0
BBX 14 14 1 -1
BITMAP
0300
2100
1100
17E0
1918
3208
5204
5404
8C04
8804
9C08
6410
0060
0380
ENDCHAR
STARTCHAR 3082
ENCODING 12418
SWIDTH 1000 0
DWIDTH 16 0
BBX 11 14 2 -1
BITMAP
1800
0800
0800
8B00
7C00
1000
1000
D740
3820
1020
1020
1020
0840
0780
ENDCHAR
STARTCHAR 3083
ENCODING 12419
SWIDTH 1000 0
DWIDTH 16 0
BBX 12 12 2 -1
BITMAP
0800
0600
6000
11E0
1E10
3810
C830
09E0
0400
0400
0200
0200
ENDCHAR
STARTCHAR 3084
ENCODING 12420
SWIDTH 1000 0
DWIDTH 16 0
BBX 14 14 1 -1
BITMAP
0400
3300
1100
10F8
0F0C
1804
E804
050C
04F0
0200
0200
0200
0100
0100
ENDCHAR
STARTCHAR 3085
ENCODING 12421
SWIDTH 1000 0
DWIDTH 16 0
BBX 11 13 2 -2
BITMAP
0200
8100
41C0
4740
4920
5120
6120
6120
6540
4380
0200
0400
0800
ENDCHAR
STARTCHAR 3086
ENCODING 12422
SWIDTH 1000 0
DWIDTH 16 0
BBX 12 14 2 -1
BITMAP
0300
8100
4100
47C0
8920
9110
A110
A110
C110
C920
47C0
4200
0400
0800
ENDCHAR
STARTCHAR 3087
ENCODING 12423
SWIDTH 1000 0
DWIDTH 16 0
BBX 9 12 3 -1
BITMAP
0C00
0C00
0800
0980
0780
0800
0800
0400
7C00
8700
8480
7800
ENDCHAR
STARTCHAR 3088
ENCODING 12424
SWIDTH 1000 0
DWIDTH 16 0
BBX 10 13 3 0
BITMAP
0C00
0C00
0400
0400
07C0
0400
0400
0400
0400
7C00
8780
84C0
F800
ENDCHAR
STARTCHAR 3089
ENCODING 12425
SWIDTH 1000 0
DWIDTH 16 0
BBX 9 14 4 0
BITMAP
C000
3800
4000
8000
8000
8000
8F00
9180
E080
8080
0080
0100
0E00
3000
ENDCHAR
STARTCHAR 308A
ENCODING 12426
SWIDTH 1000 0
DWIDTH 16 0
BBX 8 14 4 -1
BITMAP
06
C3
41
41
81
C1
C1
81
81
82
02
04
08
30
ENDCHAR
STARTCHAR 308B
ENCODING 12427
SWIDTH 1000 0
DWIDTH 16 0
BBX 11 13 2 0
BITMAP
0180
2780
3B00
0400
0800
1000
2F80
7040
C020
BC20
2620
3240
1F80
ENDCHAR
STARTCHAR 308C
ENCODING 12428
SWIDTH 1000 0
DWIDTH 16 0
BBX 15 13 1 0
BITMAP
1800
0800
0800
0C70
7D90
0A10
1C10
1820
2822
4824
E824
9818
0800
ENDCHAR
STARTCHAR 308D
ENCODING 12429
SWIDTH 1000 0
DWIDTH 16 0
BBX 11 13 2 -1
BITMAP
2380
3D80
0200
0C00
1800
3F80
7040
C020
8020
0020
00C0
0300
0C00
ENDCHAR
STARTCHAR 308E
ENCODING 12430
SWIDTH 1000 0
DWIDTH 16 0
BBX 11 12 3 -1
BITMAP
2000
1000
1000
93C0
F440
1820
3020
5020
D020
B040
3380
1000
ENDCHAR
STARTCHAR 308F
ENCODING 12431
SWIDTH 1000 0
DWIDTH 16 0
BBX 14 13 1 0
BITMAP
1C00
0C00
0800
0CF0
7D08
0A04
0C04
1804
2804
4804
D808
0870
0880
ENDCHAR
STARTCHAR 3090
ENCODING 12432
SWIDTH 1000 0
DWIDTH 16 0
BBX 12 13 2 0
BITMAP
0600
3A00
0200
0400
0400
1FC0
2460
4810
8810
9710
A490
E460
03C0
ENDCHAR
STARTCHAR 3091
ENCODING 12433
SWIDTH 1000 0
DWIDTH 16 0
BBX 14 13 1 0
BITMAP
01C0
1E80
0300
0400
0BE0
1C10
2F10
0960
07C0
0C00
3C70
668C
8304
ENDCHAR
STARTCHAR 3092
ENCODING 12434
SWIDTH 1000 0
DWIDTH 16 0
BBX 11 13 2 0
BITMAP
0C00
0400
8980
7E00
1000
2060
3CC0
6300
4600
0A00
1200
1000
0FE0
ENDCHAR
STARTCHAR 3093
ENCODING 12435
SWIDTH 1000 0
DWIDTH 16 0
BBX 13 12 2 1
BITMAP
0400
0400
0800
0800
1000
2C00
3208
2210
4210
4210
8220
81C0
ENDCHAR
STARTCHAR 3094
ENCODING 12436
SWIDTH 1000 0
DWIDTH 16 0
BBX 12 15 3 -1
BITMAP
0020
2090
1E40
1000
0000
0E00
B100
C080
0080
0080
0080
0100
0200
0C00
7000
ENDCHAR
STARTCHAR 3095
ENCODING 12437
SWIDTH 1000 0
DWIDTH 16 0
BBX 11 10 3 1
BITMAP
3000
1200
1D80
E240
2220
2260
42A0
4400
BC00
8800
ENDCHAR
STARTCHAR 3096
ENCODING 12438
SWIDTH 1000 0
DWIDTH 16 0
BBX 11 13 3 -2
BITMAP
0100
4080
4080
50E0
8F80
8080
8080
A080
C080
C100
4100
4200
0400
ENDCHAR
STARTCHAR 3099
ENCODING 12441
SWIDTH 1000 0
DWIDTH 16 0
BBX 4 3 11 11
BITMAP
20
D0
20
ENDCHAR
STARTCHAR 309A
ENCODING 12442
SWIDTH 1000 0
DWIDTH 16 0
BBX 3 3 12 11
BITMAP
E0
A0
C0
ENDCHAR
STARTCHAR 309B
ENCODING 12443
SWIDTH 1000 0
DWIDTH 16 0
BBX 3 3 1 11
BITMAP
60
A0
40
ENDCHAR
STARTCHAR 309C
ENCODING 12444
SWIDTH 1000 0
DWIDTH 16 0
BBX 3 3 1 11
BITMAP
E0
A0
C0
ENDCHAR
STARTCHAR 309D
ENCODING 12445
SWIDTH 1000 0
DWIDTH 16 0
BBX 5 9 5 1
BITMAP
80
80
40
40
20
30
18
38
20
ENDCHAR
STARTCHAR 309E
ENCODING 12446
SWIDTH 1000 0
DWIDTH 16 0
BBX 8 9 5 2
BITMAP
83
8D
44
40
20
30
18
38
20
ENDCHAR
STARTCHAR 309F
ENCODING 12447
SWIDTH 1000 0
DWIDTH 16 0
BBX 10 14 3 0
BITMAP
0C00
0400
0FC0
0800
1000
2000
2E00
7100
C100
8100
0100
4200
2400
3800
ENDCHAR
STARTCHAR 30A0
ENCODING 12448
SWIDTH 1000 0
DWIDTH 16 0
BBX 8 4 4 4
BITMAP
FF
00
00
FF
ENDCHAR
STARTCHAR 30A1
ENCODING 12449
SWIDTH 1000 0
DWIDTH 16 0
BBX 10 11 3 -2
BITMAP
00C0
FF80
0100
0A00
0C00
0800
0800
0800
1800
1000
6000
ENDCHAR
STARTCHAR 30A2
ENCODING 12450
SWIDTH 1000 0
DWIDTH 16 0
BBX 12 13 2 -1
BITMAP
8070
7FA0
0040
0080
0700
0600
0600
0400
0400
0C00
0800
1000
6000
ENDCHAR
STARTCHAR 30A3
ENCODING 12451
SWIDTH 1000 0
DWIDTH 16 0
BBX 9 11 3 0
BITMAP
0180
0100
0200
0C00
1400
6400
8400
0400
0400
0400
0400
ENDCHAR
STARTCHAR 30A4
ENCODING 12452
SWIDTH 1000 0
DWIDTH 16 0
BBX 11 14 2 -1
BITMAP
0040
0060
00C0
0180
0200
0E00
1200
E200
0200
0200
0200
0200
0200
0200
ENDCHAR
STARTCHAR 30A5
ENCODING 12453
SWIDTH 1000 0
DWIDTH 16 0
BBX 9 12 4 -1
BITMAP
1800
0800
0980
F680
8180
4100
C100
0200
0200
0400
0800
3000
ENDCHAR
STARTCHAR 30A6
ENCODING 12454
SWIDTH 1000 0
DWIDTH 16 0
BBX 10 14 3 -1
BITMAP
0C00
0C00
0480
FFC0
8040
4040
4080
C080
C180
0100
0200
0400
0800
3000
ENDCHAR
STARTCHAR 30A7
ENCODING 12455
SWIDTH 1000 0
DWIDTH 16 0
BBX 12 8 2 1
BITMAP
0060
3FA0
0200
0200
0200
0200
8230
7DD0
ENDCHAR
STARTCHAR 30A8
ENCODING 12456
SWIDTH 1000 0
DWIDTH 16 0
BBX 13 8 1 2
BITMAP
7FF0
0200
0200
0200
0200
0200
0200
FFF8
ENDCHAR
STARTCHAR 30A9
ENCODING 12457
SWIDTH 1000 0
DWIDTH 16 0
BBX 12 12 2 -1
BITMAP
0200
0100
0100
8170
7F80
0500
0500
0900
1100
2500
C300
0100
ENDCHAR
STARTCHAR 30AA
ENCODING 12458
SWIDTH 1000 0
DWIDTH 16 0
BBX 14 13 1 0
BITMAP
01C0
00C0
0080
009C
7FE0
0180
0280
0640
0440
0840
1040
63C0
8040
ENDCHAR
STARTCHAR 30AB
ENCODING 12459
SWIDTH 1000 0
DWIDTH 16 0
BBX 13 14 1 -1
BITMAP
0200
0100
0100
0118
3FE8
0210
0210
0410
0410
0830
09A0
10E0
2040
C000
ENDCHAR
STARTCHAR 30AC
ENCODING 12460
SWIDTH 1000 0
DWIDTH 16 0
BBX 14 15 1 -1
BITMAP
0010
022C
011C
0108
0118
3FE8
0210
0210
0410
0410
0830
09A0
10E0
2040
C000
ENDCHAR
STARTCHAR 30AD
ENCODING 12461
SWIDTH 1000 0
DWIDTH 16 0
BBX 13 14 1 -1
BITMAP
0E00
0200
0200
0270
8780
7A00
0118
01E0
8F00
7100
0100
0080
0080
0080
ENDCHAR
STARTCHAR 30AE
ENCODING 12462
SWIDTH 1000 0
DWIDTH 16 0
BBX 14 14 1 0
BITMAP
0E0C
023C
0208
0270
8780
7A00
0118
01E0
8F00
7100
0100
0080
0080
0080
ENDCHAR
STARTCHAR 30AF
ENCODING 12463
SWIDTH 1000 0
DWIDTH 16 0
BBX 11 13 2 0
BITMAP
0C00
0460
0BA0
0840
1040
2080
C080
0100
0200
0400
0800
3000
4000
ENDCHAR
STARTCHAR 30B0
ENCODING 12464
SWIDTH 1000 0
DWIDTH 16 0
BBX 14 15 2 -1
BITMAP
0008
0024
0C10
0460
0BA0
0840
1040
2080
C080
0100
0200
0400
0800
3000
4000
ENDCHAR
STARTCHAR 30B1
ENCODING 12465
SWIDTH 1000 0
DWIDTH 16 0
BBX 12 14 2 -1
BITMAP
2000
1800
0800
1070
1F80
2100
4100
8100
0200
0200
0400
0800
1000
2000
ENDCHAR
STARTCHAR 30B2
ENCODING 12466
SWIDTH 1000 0
DWIDTH 16 0
BBX 14 15 2 -1
BITMAP
0008
2024
1810
0800
1070
1F80
2100
4100
8100
0200
0200
0400
0800
1000
2000
ENDCHAR
STARTCHAR 30B3
ENCODING 12467
SWIDTH 1000 0
DWIDTH 16 0
BBX 10 9 3 2
BITMAP
81C0
7EC0
0080
0080
0080
0080
0080
0080
FFC0
ENDCHAR
STARTCHAR 30B4
ENCODING 12468
SWIDTH 1000 0
DWIDTH 16 0
BBX 12 12 3 2
BITMAP
0020
0050
0020
81C0
7EC0
0080
0080
0080
0080
0080
0080
FFC0
ENDCHAR
STARTCHAR 30B5
ENCODING 12469
SWIDTH 1000 0
DWIDTH 16 0
BBX 14 14 1 -1
BITMAP
00C0
1840
0840
0840
88FC
7F40
0840
0840
0840
0080
0080
0100
0200
0C00
ENDCHAR
STARTCHAR 30B6
ENCODING 12470
SWIDTH 1000 0
DWIDTH 16 0
BBX 15 15 1 -1
BITMAP
0008
00D6
1848
0848
0840
88FC
7F40
0840
0840
0840
0080
0080
0100
0200
0C00
ENDCHAR
STARTCHAR 30B7
ENCODING 12471
SWIDTH 1000 0
DWIDTH 16 0
BBX 13 12 2 1
BITMAP
3000
0C00
0418
C010
3020
1020
0040
0080
0100
0200
4C00
3000
ENDCHAR
STARTCHAR 30B8
ENCODING 12472
SWIDTH 1000 0
DWIDTH 16 0
BBX 13 14 2 0
BITMAP
0010
0048
3020
0C00
0418
C010
3020
1020
0040
0080
0100
0200
4C00
3000
ENDCHAR
STARTCHAR 30B9
ENCODING 12473
SWIDTH 1000 0
DWIDTH 16 0
BBX 13 11 1 1
BITMAP
1FE0
0060
00C0
0080
0180
0100
02C0
0430
0818
3008
C000
ENDCHAR
STARTCHAR 30BA
ENCODING 12474
SWIDTH 1000 0
DWIDTH 16 0
BBX 14 14 1 0
BITMAP
0008
0024
0018
1FE0
0060
00C0
0080
0180
0100
02C0
0430
0818
3008
C000
ENDCHAR
STARTCHAR 30BB
ENCODING 12475
SWIDTH 1000 0
DWIDTH 16 0
BBX 13 12 0 1
BITMAP
0C00
0400
0418
04E8
8F10
7420
0440
0400
0400
0400
0618
03F8
ENDCHAR
STARTCHAR 30BC
ENCODING 12476
SWIDTH 1000 0
DWIDTH 16 0
BBX 15 13 0 1
BITMAP
0016
0C0E
0404
0418
04E8
8F10
7420
0440
0400
0400
0400
0618
03F8
ENDCHAR
STARTCHAR 30BD
ENCODING 12477
SWIDTH 1000 0
DWIDTH 16 0
BBX 11 12 2 -1
BITMAP
0060
C020
6020
3040
3040
0080
0080
0100
0200
0400
0800
3000
ENDCHAR
STARTCHAR 30BE
ENCODING 12478
SWIDTH 1000 0
DWIDTH 16 0
BBX 14 14 2 -1
BITMAP
0008
0034
0050
C020
6020
3040
3040
0040
0080
0100
0300
0400
0800
3000
ENDCHAR
STARTCHAR 30BF
ENCODING 12479
SWIDTH 1000 0
DWIDTH 16 0
BBX 11 14 2 -1
BITMAP
0800
0400
04E0
0B20
0840
1040
2C80
4280
8180
02C0
0440
0800
3000
4000
ENDCHAR
STARTCHAR 30C0
ENCODING 12480
SWIDTH 1000 0
DWIDTH 16 0
BBX 14 15 2 -1
BITMAP
0008
0824
0410
04E0
0B20
0840
1040
2C80
4280
8180
02C0
0440
0800
3000
4000
ENDCHAR
STARTCHAR 30C1
ENCODING 12481
SWIDTH 1000 0
DWIDTH 16 0
BBX 13 14 2 -1
BITMAP
0080
00C0
0700
7A00
0200
0238
FFC0
0200
0200
0400
0400
0800
1000
6000
ENDCHAR
STARTCHAR 30C2
ENCODING 12482
SWIDTH 1000 0
DWIDTH 16 0
BBX 14 15 2 -1
BITMAP
0018
00A4
00D0
0700
7A00
0200
0238
FFC0
0200
0200
0400
0400
0800
1000
6000
ENDCHAR
STARTCHAR 30C3
ENCODING 12483
SWIDTH 1000 0
DWIDTH 16 0
BBX 11 11 2 -1
BITMAP
1040
8820
4420
2440
2040
0080
0180
0300
0400
0800
3000
ENDCHAR
STARTCHAR 30C4
ENCODING 12484
SWIDTH 1000 0
DWIDTH 16 0
BBX 13 13 1 -1
BITMAP
0810
8408
4608
2210
2210
2020
0020
0040
0080
0100
0200
0C00
1000
ENDCHAR
STARTCHAR 30C5
ENCODING 12485
SWIDTH 1000 0
DWIDTH 16 0
BBX 15 15 1 -1
BITMAP
0004
001A
0824
8418
4608
2210
2230
2020
0060
0040
0080
0100
0600
0800
1000
ENDCHAR
STARTCHAR 30C6
ENCODING 12486
SWIDTH 1000 0
DWIDTH 16 0
BBX 14 13 1 -1
BITMAP
1FE0
0000
0000
0000
803C
7FC0
0100
0100
0300
0200
0200
0400
1800
ENDCHAR
STARTCHAR 30C7
ENCODING 12487
SWIDTH 1000 0
DWIDTH 16 0
BBX 15 15 1 -1
BITMAP
0004
0012
1FE8
0000
0000
0000
803C
7FC0
0100
0100
0300
0200
0200
0400
1800
ENDCHAR
STARTCHAR 30C8
ENCODING 12488
SWIDTH 1000 0
DWIDTH 16 0
BBX 8 14 5 -1
BITMAP
80
40
40
40
40
70
4C
47
43
40
40
40
40
40
ENDCHAR
STARTCHAR 30C9
ENCODING 12489
SWIDTH 1000 0
DWIDTH 16 0
BBX 8 14 5 -1
BITMAP
80
42
49
46
42
70
4C
47
43
40
40
40
40
40
ENDCHAR
STARTCHAR 30CA
ENCODING 12490
SWIDTH 1000 0
DWIDTH 16 0
BBX 14 13 1 0
BITMAP
0300
0100
0100
0100
81FC
7F00
0100
0100
0200
0200
0400
0400
1800
ENDCHAR
STARTCHAR 30CB
ENCODING 12491
SWIDTH 1000 0
DWIDTH 16 0
BBX 14 8 1 2
BITMAP
2070
1F80
0000
0000
0000
0000
801C
7FE0
ENDCHAR
STARTCHAR 30CC
ENCODING 12492
SWIDTH 1000 0
DWIDTH 16 0
BBX 11 12 2 0
BITMAP
0060
7FE0
0040
0080
3080
0D00
0300
02C0
0460
1820
2000
C000
ENDCHAR
STARTCHAR 30CD
ENCODING 12493
SWIDTH 1000 0
DWIDTH 16 0
BBX 13 14 1 0
BITMAP
0E00
0100
0000
21E0
1EC0
0080
0100
03E0
0D18
1108
6100
8100
0100
0100
ENDCHAR
STARTCHAR 30CE
ENCODING 12494
SWIDTH 1000 0
DWIDTH 16 0
BBX 9 12 3 0
BITMAP
0100
0080
0080
0100
0100
0200
0200
0400
0800
1000
6000
8000
ENDCHAR
STARTCHAR 30CF
ENCODING 12495
SWIDTH 1000 0
DWIDTH 16 0
BBX 14 10 1 1
BITMAP
0800
04C0
0420
0810
0808
100C
200C
2004
4000
8000
ENDCHAR
STARTCHAR 30D0
ENCODING 12496
SWIDTH 1000 0
DWIDTH 16 0
BBX 14 13 1 1
BITMAP
0010
004C
0034
0810
04C0
0420
0810
0808
100C
200C
2004
4000
8000
ENDCHAR
STARTCHAR 30D1
ENCODING 12497
SWIDTH 1000 0
DWIDTH 16 0
BBX 14 12 1 2
BITMAP
003C
0024
0838
04C0
0420
0810
0808
100C
200C
2004
4000
8000
ENDCHAR
STARTCHAR 30D2
ENCODING 12498
SWIDTH 1000 0
DWIDTH 16 0
BBX 11 12 3 1
BITMAP
C000
4000
40C0
4180
4600
5800
6000
4000
4000
4000
2060
1FE0
ENDCHAR
STARTCHAR 30D3
ENCODING 12499
SWIDTH 1000 0
DWIDTH 16 0
BBX 12 13 3 1
BITMAP
0030
C070
4020
40C0
4180
4600
5800
6000
4000
4000
4000
2060
1FE0
ENDCHAR
STARTCHAR 30D4
ENCODING 12500
SWIDTH 1000 0
DWIDTH 16 0
BBX 12 13 3 1
BITMAP
0070
C050
4070
40C0
4180
4600
5800
6000
4000
4000
4000
2060
1FE0
ENDCHAR
STARTCHAR 30D5
ENCODING 12501
SWIDTH 1000 0
DWIDTH 16 0
BBX 12 11 2 -1
BITMAP
8030
7FF0
0060
0060
0040
00C0
0180
0300
0600
0800
3000
ENDCHAR
STARTCHAR 30D6
ENCODING 12502
SWIDTH 1000 0
DWIDTH 16 0
BBX 14 14 2 -1
BITMAP
0008
0034
0008
8030
7FF0
0060
0060
0040
00C0
0180
0300
0600
0800
3000
ENDCHAR
STARTCHAR 30D7
ENCODING 12503
SWIDTH 1000 0
DWIDTH 16 0
BBX 14 14 2 -1
BITMAP
001C
0014
001C
8060
7FA0
0040
0040
0080
0080
0100
0200
0400
0800
3000
ENDCHAR
STARTCHAR 30D8
ENCODING 12504
SWIDTH 1000 0
DWIDTH 16 0
BBX 14 7 1 3
BITMAP
0600
0900
1080
1040
A020
4018
0004
ENDCHAR
STARTCHAR 30D9
ENCODING 12505
SWIDTH 1000 0
DWIDTH 16 0
BBX 14 9 1 3
BITMAP
0010
0048
0620
0900
1080
1040
A020
4018
0004
ENDCHAR
STARTCHAR 30DA
ENCODING 12506
SWIDTH 1000 0
DWIDTH 16 0
BBX 14 9 1 3
BITMAP
0070
0048
0678
0900
1080
1040
A020
4018
0004
ENDCHAR
STARTCHAR 30DB
ENCODING 12507
SWIDTH 1000 0
DWIDTH 16 0
BBX 13 14 2 -1
BITMAP
0600
0200
0200
0200
FFF8
0200
0240
2220
2210
4218
C208
8E00
0600
0200
ENDCHAR
STARTCHAR 30DC
ENCODING 12508
SWIDTH 1000 0
DWIDTH 16 0
BBX 14 14 2 0
BITMAP
060C
0234
0210
0200
FFF8
0200
0240
2220
2210
4218
C208
8E00
0600
0200
ENDCHAR
STARTCHAR 30DD
ENCODING 12509
SWIDTH 1000 0
DWIDTH 16 0
BBX 14 14 2 -1
BITMAP
0638
0224
0238
0200
FFF8
0200
0240
2220
2210
4218
C208
8E00
0600
0200
ENDCHAR
STARTCHAR 30DE
ENCODING 12510
SWIDTH 1000 0
DWIDTH 16 0
BBX 12 10 2 1
BITMAP
0030
FFF0
0020
0040
0080
3100
0E00
0200
0300
0100
ENDCHAR
STARTCHAR 30DF
ENCODING 12511
SWIDTH 1000 0
DWIDTH 16 0
BBX 9 12 3 0
BITMAP
3C00
4700
0100
0000
7E00
0300
0000
0000
F800
0600
0180
0080
ENDCHAR
STARTCHAR 30E0
ENCODING 12512
SWIDTH 1000 0
DWIDTH 16 0
BBX 12 12 2 1
BITMAP
0600
0200
0400
0400
0800
0900
1080
1040
2020
43F0
FC10
0010
ENDCHAR
STARTCHAR 30E1
ENCODING 12513
SWIDTH 1000 0
DWIDTH 16 0
BBX 10 12 2 1
BITMAP
00C0
0040
0080
2080
1D00
0300
0380
04C0
0840
1000
2000
C000
ENDCHAR
STARTCHAR 30E2
ENCODING 12514
SWIDTH 1000 0
DWIDTH 16 0
BBX 13 11 1 1
BITMAP
7FE0
0400
0400
0430
FFF8
0400
0400
0400
0400
0430
03F0
ENDCHAR
STARTCHAR 30E3
ENCODING 12515
SWIDTH 1000 0
DWIDTH 16 0
BBX 11 11 2 0
BITMAP
1800
0800
0860
8FC0
7880
0500
0400
0400
0200
0200
0200
ENDCHAR
STARTCHAR 30E4
ENCODING 12516
SWIDTH 1000 0
DWIDTH 16 0
BBX 12 14 2 -1
BITMAP
3000
1800
0800
0830
0FF0
F860
0840
0580
0400
0400
0400
0200
0200
0200
ENDCHAR
STARTCHAR 30E5
ENCODING 12517
SWIDTH 1000 0
DWIDTH 16 0
BBX 12 8 2 1
BITMAP
4180
3E80
0080
0080
0080
0080
8170
7E80
ENDCHAR
STARTCHAR 30E6
ENCODING 12518
SWIDTH 1000 0
DWIDTH 16 0
BBX 14 8 1 3
BITMAP
3FE0
0060
0040
0040
0040
0040
0040
FFFC
ENDCHAR
STARTCHAR 30E7
ENCODING 12519
SWIDTH 1000 0
DWIDTH 16 0
BBX 8 8 4 2
BITMAP
FF
01
01
7F
02
02
02
FF
ENDCHAR
STARTCHAR 30E8
ENCODING 12520
SWIDTH 1000 0
DWIDTH 16 0
BBX 11 10 2 1
BITMAP
4060
3FE0
0040
0040
3FC0
0040
0040
0040
8060
7F80
ENDCHAR
STARTCHAR 30E9
ENCODING 12521
SWIDTH 1000 0
DWIDTH 16 0
BBX 10 13 3 -1
BITMAP
7F80
0000
0000
00C0
FFC0
0080
0080
0100
0200
0600
0800
3000
4000
ENDCHAR
STARTCHAR 30EA
ENCODING 12522
SWIDTH 1000 0
DWIDTH 16 0
BBX 8 14 3 -1
BITMAP
02
81
41
41
41
41
41
41
41
02
02
04
18
60
ENDCHAR
STARTCHAR 30EB
ENCODING 12523
SWIDTH 1000 0
DWIDTH 16 0
BBX 14 12 1 1
BITMAP
0380
1980
0980
0980
0984
0904
1108
1110
1120
2160
4180
8100
ENDCHAR
STARTCHAR 30EC
ENCODING 12524
SWIDTH 1000 0
DWIDTH 16 0
BBX 11 12 3 0
BITMAP
E000
6000
6000
6020
4040
4040
4080
4300
4400
5800
7000
4000
ENDCHAR
STARTCHAR 30ED
ENCODING 12525
SWIDTH 1000 0
DWIDTH 16 0
BBX 11 10 2 2
BITMAP
C060
7FA0
4020
4020
4040
4040
4040
4040
7FE0
6000
ENDCHAR
STARTCHAR 30EE
ENCODING 12526
SWIDTH 1000 0
DWIDTH 16 0
BBX 10 11 3 -1
BITMAP
00C0
FFC0
4080
4080
4080
4100
0100
0200
0400
0800
3000
ENDCHAR
STARTCHAR 30EF
ENCODING 12527
SWIDTH 1000 0
DWIDTH 16 0
BBX 11 13 2 -1
BITMAP
0020
FFE0
4040
4040
2040
6040
6080
0080
0100
0200
0400
0800
1000
ENDCHAR
STARTCHAR 30F0
ENCODING 12528
SWIDTH 1000 0
DWIDTH 16 0
BBX 13 14 2 -1
BITMAP
0300
0100
0100
8170
7F80
1100
1100
1100
9178
EF80
0100
0100
0100
0100
ENDCHAR
STARTCHAR 30F1
ENCODING 12529
SWIDTH 1000 0
DWIDTH 16 0
BBX 13 10 2 1
BITMAP
4060
3FE0
0080
0500
0200
0200
0200
0200
8278
FD80
ENDCHAR
STARTCHAR 30F2
ENCODING 12530
SWIDTH 1000 0
DWIDTH 16 0
BBX 10 13 3 -1
BITMAP
00C0
FF40
0080
0080
8380
7D00
0100
0200
0200
0400
0800
1000
2000
ENDCHAR
STARTCHAR 30F3
ENCODING 12531
SWIDTH 1000 0
DWIDTH 16 0
BBX 12 12 2 0
BITMAP
8000
7000
1810
1810
0020
0040
0040
0080
0100
0600
4800
3000
ENDCHAR
STARTCHAR 30F4
ENCODING 12532
SWIDTH 1000 0
DWIDTH 16 0
BBX 13 15 3 -1
BITMAP
0020
0C58
0C20
04A0
FFC0
8040
4040
4080
C080
C180
0100
0200
0400
0800
3000
ENDCHAR
STARTCHAR 30F5
ENCODING 12533
SWIDTH 1000 0
DWIDTH 16 0
BBX 11 12 2 -1
BITMAP
0400
0200
0200
4260
3DA0
0440
0440
0840
0A40
1180
2080
C000
ENDCHAR
STARTCHAR 30F6
ENCODING 12534
SWIDTH 1000 0
DWIDTH 16 0
BBX 11 11 3 0
BITMAP
3000
1000
2FE0
5200
4200
8400
0400
0400
0800
1000
6000
ENDCHAR
STARTCHAR 30F7
ENCODING 12535
SWIDTH 1000 0
DWIDTH 16 0
BBX 14 15 2 -1
BITMAP
0008
0034
0048
FFE0
4020
4040
2040
6040
6080
0080
0100
0200
0400
0800
1000
ENDCHAR
STARTCHAR 30F8
ENCODING 12536
SWIDTH 1000 0
DWIDTH 16 0
BBX 14 15 2 -1
BITMAP
0010
032C
0114
0110
8170
7F80
1100
1100
1100
9178
EF80
0100
0100
0100
0100
ENDCHAR
STARTCHAR 30F9
ENCODING 12537
SWIDTH 1000 0
DWIDTH 16 0
BBX 14 13 2 1
BITMAP
0008
0014
0008
40E0
3F60
0080
0700
0200
0200
0200
0200
8278
FD80
ENDCHAR
STARTCHAR 30FA
ENCODING 12538
SWIDTH 1000 0
DWIDTH 16 0
BBX 13 15 3 -1
BITMAP
0010
0068
0050
FFC0
0040
0080
8380
7C80
0100
0100
0200
0400
0800
1000
2000
ENDCHAR
STARTCHAR 30FB
ENCODING 12539
SWIDTH 1000 0
DWIDTH 16 0
BBX 2 2 7 5
BITMAP
C0
C0
ENDCHAR
STARTCHAR 30FC
ENCODING 12540
SWIDTH 1000 0
DWIDTH 16 0
BBX 14 1 1 7
BITMAP
FFFC
ENDCHAR
STARTCHAR 30FD
ENCODING 12541
SWIDTH 1000 0
DWIDTH 16 0
BBX 7 8 4 3
BITMAP
C0
20
10
08
04
06
06
02
ENDCHAR
STARTCHAR 30FE
ENCODING 12542
SWIDTH 1000 0
DWIDTH 16 0
BBX 9 10 4 2
BITMAP
0100
0280
C100
2000
1000
0800
0400
0600
0600
0200
ENDCHAR
STARTCHAR 30FF
ENCODING 12543
SWIDTH 1000 0
DWIDTH 16 0
BBX 11 13 2 -1
BITMAP
8060
7FC0
0040
0040
0040
0040
0040
0040
0040
0040
0040
0040
0040
ENDCHAR
STARTCHAR 31F0
ENCODING 12784
SWIDTH 1000 0
DWIDTH 16 0
BBX 9 11 3 -1
BITMAP
0800
0880
1780
1100
2100
4200
8200
0400
0800
3000
4000
ENDCHAR
STARTCHAR 31F1
ENCODING 12785
SWIDTH 1000 0
DWIDTH 16 0
BBX 11 10 3 0
BITMAP
2000
1800
0860
E040
3080
0080
0100
0600
0800
7000
ENDCHAR
STARTCHAR 31F2
ENCODING 12786
SWIDTH 1000 0
DWIDTH 16 0
BBX 11 10 2 -1
BITMAP
2180
1F00
0100
0200
0200
0500
08C0
1060
6020
8000
ENDCHAR
STARTCHAR 31F3
ENCODING 12787
SWIDTH 1000 0
DWIDTH 16 0
BBX 7 12 5 -1
BITMAP
80
40
40
40
40
78
46
42
40
40
40
40
ENDCHAR
STARTCHAR 31F4
ENCODING 12788
SWIDTH 1000 0
DWIDTH 16 0
BBX 9 10 3 0
BITMAP
7F80
0100
0300
3200
0C00
0700
0980
3080
4000
8000
ENDCHAR
STARTCHAR 31F5
ENCODING 12789
SWIDTH 1000 0
DWIDTH 16 0
BBX 11 8 2 0
BITMAP
1A00
0980
1080
1040
2020
2020
4020
8000
ENDCHAR
STARTCHAR 31F6
ENCODING 12790
SWIDTH 1000 0
DWIDTH 16 0
BBX 9 10 3 0
BITMAP
C000
4000
4100
4200
5C00
6000
4000
4000
4000
3F80
ENDCHAR
STARTCHAR 31F7
ENCODING 12791
SWIDTH 1000 0
DWIDTH 16 0
BBX 9 10 3 -1
BITMAP
8180
7E80
0080
0100
0100
0200
0400
0800
1000
6000
ENDCHAR
STARTCHAR 31F8
ENCODING 12792
SWIDTH 1000 0
DWIDTH 16 0
BBX 12 6 2 2
BITMAP
0C00
1A00
1100
20C0
C060
0010
ENDCHAR
STARTCHAR 31F9
ENCODING 12793
SWIDTH 1000 0
DWIDTH 16 0
BBX 11 11 2 0
BITMAP
0C00
0400
04E0
7F00
0500
2480
4440
4420
9420
0C00
0400
ENDCHAR
STARTCHAR 31FA
ENCODING 12794
SWIDTH 1000 0
DWIDTH 16 0
BBX 10 10 3 0
BITMAP
0800
0800
0800
1000
1200
2100
2080
4180
FE40
0040
ENDCHAR
STARTCHAR 31FB
ENCODING 12795
SWIDTH 1000 0
DWIDTH 16 0
BBX 8 11 4 -1
BITMAP
7E
00
00
FF
01
02
04
04
08
30
40
ENDCHAR
STARTCHAR 31FC
ENCODING 12796
SWIDTH 1000 0
DWIDTH 16 0
BBX 6 11 5 0
BITMAP
0C
84
84
84
84
84
84
08
08
30
C0
ENDCHAR
STARTCHAR 31FD
ENCODING 12797
SWIDTH 1000 0
DWIDTH 16 0
BBX 12 11 2 -1
BITMAP
0400
1200
0A00
0A00
0A10
0A20
1240
12C0
2300
4200
8000
ENDCHAR
STARTCHAR 31FE
ENCODING 12798
SWIDTH 1000 0
DWIDTH 16 0
BBX 9 10 4 0
BITMAP
8000
4000
4000
4080
4100
4200
4400
4800
7000
4000
ENDCHAR
STARTCHAR 31FF
ENCODING 12799
SWIDTH 1000 0
DWIDTH 16 0
BBX 10 9 3 0
BITMAP
8000
7FC0
4080
4080
4080
4080
4080
7F80
4000
ENDCHAR
STARTCHAR 3231
ENCODING 12849
SWIDTH 1000 0
DWIDTH 16 0
BBX 16 14 0 -1
BITMAP
2004
4C32
48E2
8CA9
BFFD
8921
9FFD
AA61
A871
C8A9
8925
4A26
4822
2004
ENDCHAR
STARTCHAR 3232
ENCODING 12850
SWIDTH 1000 0
DWIDTH 16 0
BBX 15 14 0 -1
BITMAP
2008
4304
4214
BFFA
8402
87E2
8C22
97E2
9422
A7E2
8422
4424
44E4
2008
ENDCHAR
STARTCHAR 3239
ENCODING 12857
SWIDTH 1000 0
DWIDTH 16 0
BBX 15 14 0 -1
BITMAP
2008
46C4
44B4
8892
888A
9BF2
9882
A842
8842
8852
883A
4834
481C
2008
ENDCHAR
STARTCHAR 3251
ENCODING 12881
SWIDTH 1000 0
DWIDTH 16 0
BBX 15 15 0 -2
BITMAP
07C0
1830
2E28
5164
5924
8122
8222
8422
8422
8922
5124
7F74
3008
1810
07E0
ENDCHAR
STARTCHAR 3252
ENCODING 12882
SWIDTH 1000 0
DWIDTH 16 0
BBX 16 15 0 -2
BITMAP
07E0
1818
2E7C
518E
59CA
8109
8211
8421
8421
8949
518A
7FFA
300C
1818
07E0
ENDCHAR
STARTCHAR 3253
ENCODING 12883
SWIDTH 1000 0
DWIDTH 16 0
BBX 15 16 0 -2
BITMAP
07C0
0830
3008
4E7C
594C
990A
810A
8232
841A
840A
894A
514C
7F34
3008
1810
07E0
ENDCHAR
STARTCHAR 3254
ENCODING 12884
SWIDTH 1000 0
DWIDTH 16 0
BBX 14 16 1 -2
BITMAP
0780
1860
2010
5C38
7268
B2A4
82A4
8524
8924
89F4
9224
A228
7E68
2010
1020
0FC0
ENDCHAR
STARTCHAR 3255
ENCODING 12885
SWIDTH 1000 0
DWIDTH 16 0
BBX 16 16 0 -2
BITMAP
03C0
0C30
1008
2E7C
5142
9941
8141
8271
8409
8409
8949
514A
7F32
3004
1818
07E0
ENDCHAR
STARTCHAR 3256
ENCODING 12886
SWIDTH 1000 0
DWIDTH 16 0
BBX 15 15 1 -2
BITMAP
0FC0
3030
5C78
625C
B294
8282
84E2
8892
8892
9292
A294
7E64
2008
1830
07C0
ENDCHAR
STARTCHAR 3257
ENCODING 12887
SWIDTH 1000 0
DWIDTH 16 0
BBX 15 16 1 -2
BITMAP
0780
1860
2010
5DF8
6314
B224
8222
8422
8822
8842
9242
A244
7E4C
2018
1030
0FC0
ENDCHAR
STARTCHAR 3258
ENCODING 12888
SWIDTH 1000 0
DWIDTH 16 0
BBX 15 15 1 -2
BITMAP
0FC0
3030
5C78
629C
B294
8292
8462
8862
8892
9292
A294
7E64
2008
1830
07C0
ENDCHAR
STARTCHAR 3259
ENCODING 12889
SWIDTH 1000 0
DWIDTH 16 0
BBX 15 15 1 -2
BITMAP
0FC0
3030
5C78
629C
B294
8292
8492
8872
8812
9212
A294
7EE4
2008
1830
07C0
ENDCHAR
STARTCHAR 325A
ENCODING 12890
SWIDTH 1000 0
DWIDTH 16 0
BBX 15 15 0 -1
BITMAP
07C0
0830
3008
5C74
5254
828A
828A
8C8A
868A
828A
928C
5254
2C78
1810
07E0
ENDCHAR
STARTCHAR 325B
ENCODING 12891
SWIDTH 1000 0
DWIDTH 16 0
BBX 14 16 1 -2
BITMAP
0780
1860
2010
5CC8
5248
8244
8244
8C44
8644
8244
9244
5248
4C68
2090
1820
07C0
ENDCHAR
STARTCHAR 325C
ENCODING 12892
SWIDTH 1000 0
DWIDTH 16 0
BBX 16 16 0 -2
BITMAP
07C0
0830
300C
5E74
52CA
82C9
8209
8C11
8621
8221
9249
528A
4CFE
300C
1818
07E0
ENDCHAR
STARTCHAR 325D
ENCODING 12893
SWIDTH 1000 0
DWIDTH 16 0
BBX 15 15 0 -1
BITMAP
07C0
0830
3018
5E7C
524C
820A
820A
8C32
821A
810A
91CC
53CC
2E78
1810
07E0
ENDCHAR
STARTCHAR 325E
ENCODING 12894
SWIDTH 1000 0
DWIDTH 16 0
BBX 15 16 0 -2
BITMAP
07C0
0830
3018
5C1C
5234
8252
8252
8C92
8692
82FA
9212
6214
5C34
3008
1810
07E0
ENDCHAR
STARTCHAR 325F
ENCODING 12895
SWIDTH 1000 0
DWIDTH 16 0
BBX 15 15 0 -1
BITMAP
07C0
0820
3018
4CFC
5284
9282
82F2
8C9A
860A
820A
928C
5294
2C68
1810
07E0
ENDCHAR
STARTCHAR 32A4
ENCODING 12964
SWIDTH 1000 0
DWIDTH 16 0
BBX 14 14 1 -1
BITMAP
0F80
1060
6310
4208
8208
8244
83E4
8204
8204
8224
BFF8
6010
1020
0FC0
ENDCHAR
STARTCHAR 32A5
ENCODING 12965
SWIDTH 1000 0
DWIDTH 16 0
BBX 14 15 1 -1
BITMAP
0780
1840
2130
4108
6128
9FE4
9124
9124
9124
9FE4
8108
4108
2110
1020
0FC0
ENDCHAR
STARTCHAR 32A6
ENCODING 12966
SWIDTH 1000 0
DWIDTH 16 0
BBX 15 15 0 -1
BITMAP
07C0
0830
3008
4014
7FFC
8102
8102
81E2
8112
8102
4104
4104
2108
1810
07E0
ENDCHAR
STARTCHAR 32A7
ENCODING 12967
SWIDTH 1000 0
DWIDTH 16 0
BBX 14 14 1 -1
BITMAP
0FC0
3070
4610
4418
BFFC
8404
8844
8FE4
9104
A124
5FF8
2010
1820
0FC0
ENDCHAR
STARTCHAR 32A8
ENCODING 12968
SWIDTH 1000 0
DWIDTH 16 0
BBX 15 14 0 -1
BITMAP
07E0
1A38
230C
420C
BFFE
8402
8402
8FF2
9C12
6414
47F4
2418
1810
07E0
ENDCHAR
STARTCHAR 32B1
ENCODING 12977
SWIDTH 1000 0
DWIDTH 16 0
BBX 15 15 0 -1
BITMAP
07C0
0830
3018
5E7C
5254
8282
82E2
8C92
8692
8292
9294
5294
2C68
1810
07E0
ENDCHAR
STARTCHAR 32B2
ENCODING 12978
SWIDTH 1000 0
DWIDTH 16 0
BBX 16 15 0 -1
BITMAP
07C0
0830
3008
4CFC
528A
9311
8211
8C11
8611
8221
9222
5222
2C24
1808
07F0
ENDCHAR
STARTCHAR 32B3
ENCODING 12979
SWIDTH 1000 0
DWIDTH 16 0
BBX 15 15 0 -1
BITMAP
07C0
0830
3018
5C6C
5294
8292
8262
8C22
8652
828A
928C
528C
2C78
1810
07E0
ENDCHAR
STARTCHAR 32B4
ENCODING 12980
SWIDTH 1000 0
DWIDTH 16 0
BBX 15 15 1 -1
BITMAP
07C0
1820
2018
5C6C
5294
8292
8292
8C92
8672
8212
9294
5294
2C68
1810
07E0
ENDCHAR
STARTCHAR 32B5
ENCODING 12981
SWIDTH 1000 0
DWIDTH 16 0
BBX 15 16 1 -2
BITMAP
07C0
1820
2018
4868
4894
9892
A892
A892
A892
BE92
8892
4894
4C64
3208
1830
07C0
ENDCHAR
STARTCHAR 32B6
ENCODING 12982
SWIDTH 1000 0
DWIDTH 16 0
BBX 14 16 1 -2
BITMAP
0780
1840
2030
44C8
4C48
9444
9444
A444
A444
BE44
8444
4448
4CE8
2210
1860
0780
ENDCHAR
STARTCHAR 32B7
ENCODING 12983
SWIDTH 1000 0
DWIDTH 16 0
BBX 15 16 1 -2
BITMAP
0780
1860
2010
48E8
4994
9994
A812
A822
A842
BC42
8892
4914
49FC
3418
1830
07C0
ENDCHAR
STARTCHAR 32B8
ENCODING 12984
SWIDTH 1000 0
DWIDTH 16 0
BBX 15 16 0 -2
BITMAP
07C0
0830
3018
247C
4CCC
940A
940A
A432
A41A
BE0A
84CA
448C
4C74
3208
1810
07E0
ENDCHAR
STARTCHAR 32B9
ENCODING 12985
SWIDTH 1000 0
DWIDTH 16 0
BBX 15 16 0 -2
BITMAP
03C0
0C30
1018
241C
4C34
9452
9452
A492
A492
BEFA
8412
4414
6C34
3208
1810
07E0
ENDCHAR
STARTCHAR 32BA
ENCODING 12986
SWIDTH 1000 0
DWIDTH 16 0
BBX 15 16 0 -2
BITMAP
07C0
0820
3018
24F8
4C84
8C82
94F2
A49A
A40A
BE0A
848A
4494
4C64
2208
1830
07C0
ENDCHAR
STARTCHAR 32BB
ENCODING 12987
SWIDTH 1000 0
DWIDTH 16 0
BBX 14 16 1 -2
BITMAP
0780
1840
2030
48F0
48A8
9904
A904
A9C4
A924
BD24
8924
4928
48C8
3410
1860
0780
ENDCHAR
STARTCHAR 32BC
ENCODING 12988
SWIDTH 1000 0
DWIDTH 16 0
BBX 15 16 1 -2
BITMAP
07C0
0820
3010
45F8
4D14
8E24
9422
A422
A422
BE42
8442
4444
4C4C
2208
1830
07C0
ENDCHAR
STARTCHAR 32BD
ENCODING 12989
SWIDTH 1000 0
DWIDTH 16 0
BBX 15 16 0 -2
BITMAP
07C0
0820
3018
4468
4C94
9492
94A2
A462
A492
BE8A
848A
448C
4C74
2208
1830
07C0
ENDCHAR
STARTCHAR 32BE
ENCODING 12990
SWIDTH 1000 0
DWIDTH 16 0
BBX 15 16 1 -2
BITMAP
07C0
1820
2010
4868
4894
9892
A892
A892
A872
BE12
8892
4894
4C64
3208
1830
07C0
ENDCHAR
STARTCHAR 32BF
ENCODING 12991
SWIDTH 1000 0
DWIDTH 16 0
BBX 14 15 1 -1
BITMAP
0780
1860
2010
5CE8
60A8
A114
AD14
B714
8314
8314
B318
A6A8
5CF0
3020
0FC0
ENDCHAR
STARTCHAR 32D0
ENCODING 13008
SWIDTH 1000 0
DWIDTH 16 0
BBX 14 14 1 -1
BITMAP
0FC0
3070
4018
5FF8
806C
8484
8304
8104
8104
8208
8208
4410
3820
0FC0
ENDCHAR
STARTCHAR 32D1
ENCODING 13009
SWIDTH 1000 0
DWIDTH 16 0
BBX 14 14 1 -1
BITMAP
0FC0
3070
4038
4068
808C
8104
8704
9904
A104
8108
8108
4110
3120
0FC0
ENDCHAR
STARTCHAR 32D2
ENCODING 13010
SWIDTH 1000 0
DWIDTH 16 0
BBX 14 14 1 -1
BITMAP
0FC0
3070
4318
4108
9FFC
9034
8824
8824
8864
8048
8088
4110
3620
0FC0
ENDCHAR
STARTCHAR 32D3
ENCODING 13011
SWIDTH 1000 0
DWIDTH 16 0
BBX 15 14 1 -1
BITMAP
07E0
1830
2008
4004
9FF6
8102
8102
8102
8102
A13C
5EC4
2008
1810
07E0
ENDCHAR
STARTCHAR 32D4
ENCODING 13012
SWIDTH 1000 0
DWIDTH 16 0
BBX 14 14 1 -1
BITMAP
0FC0
31F0
4098
4088
BFFC
8184
8284
8484
8484
8888
B388
4090
3020
0FC0
ENDCHAR
STARTCHAR 32D5
ENCODING 13013
SWIDTH 1000 0
DWIDTH 16 0
BBX 14 14 1 -1
BITMAP
0FC0
3270
4118
4108
9FFC
8214
8224
8224
8424
8528
88C8
50D0
3020
0FC0
ENDCHAR
STARTCHAR 32D6
ENCODING 13014
SWIDTH 1000 0
DWIDTH 16 0
BBX 14 14 1 -1
BITMAP
0FC0
3070
4618
4208
82EC
9F04
8104
81F4
BF04
8108
8088
4090
3020
0FC0
ENDCHAR
STARTCHAR 32D7
ENCODING 13015
SWIDTH 1000 0
DWIDTH 16 0
BBX 14 14 1 -1
BITMAP
0FC0
3070
4318
42F8
833C
8424
8864
9044
8084
8108
8208
4C10
3020
0FC0
ENDCHAR
STARTCHAR 32D8
ENCODING 13016
SWIDTH 1000 0
DWIDTH 16 0
BBX 14 14 1 -1
BITMAP
0FC0
3070
4418
4408
8BFC
8C84
9084
A084
8104
8108
8208
4410
3820
0FC0
ENDCHAR
STARTCHAR 32D9
ENCODING 13017
SWIDTH 1000 0
DWIDTH 16 0
BBX 14 14 1 -1
BITMAP
0FC0
3070
4018
5028
8FEC
8024
8024
8044
8044
8048
9FE8
4010
3020
0FC0
ENDCHAR
STARTCHAR 32DA
ENCODING 13018
SWIDTH 1000 0
DWIDTH 16 0
BBX 14 14 1 -1
BITMAP
0FC0
3070
48D8
4448
844C
BFFC
8444
8444
8444
8088
8088
6110
1620
0FC0
ENDCHAR
STARTCHAR 32DB
ENCODING 13019
SWIDTH 1000 0
DWIDTH 16 0
BBX 14 14 1 -1
BITMAP
0FC0
3070
4818
4608
810C
B814
8424
8024
8044
8188
9208
4C10
3020
0FC0
ENDCHAR
STARTCHAR 32DC
ENCODING 13020
SWIDTH 1000 0
DWIDTH 16 0
BBX 14 14 1 -1
BITMAP
0FC0
3070
40D8
4F48
808C
8084
8104
8184
8264
8438
9818
6010
3020
0FC0
ENDCHAR
STARTCHAR 32DD
ENCODING 13021
SWIDTH 1000 0
DWIDTH 16 0
BBX 15 14 0 -1
BITMAP
07E0
1830
2C08
4404
8436
C7F2
BC22
84C2
8402
8404
4404
23E8
1810
07E0
ENDCHAR
STARTCHAR 32DE
ENCODING 13022
SWIDTH 1000 0
DWIDTH 16 0
BBX 14 14 1 -1
BITMAP
0FC0
3070
4058
5038
881C
8C24
8424
8044
80C4
8188
8308
4410
3820
0FC0
ENDCHAR
STARTCHAR 32DF
ENCODING 13023
SWIDTH 1000 0
DWIDTH 16 0
BBX 14 14 1 -1
BITMAP
0FC0
3070
4318
42E8
832C
8444
8A44
9184
80C4
8148
8208
4C10
3020
0FC0
ENDCHAR
STARTCHAR 32E0
ENCODING 13024
SWIDTH 1000 0
DWIDTH 16 0
BBX 14 14 1 -1
BITMAP
0FC0
3070
4058
4388
BD0C
8104
BFF4
8104
8104
8208
8208
4C10
3020
0FC0
ENDCHAR
STARTCHAR 32E1
ENCODING 13025
SWIDTH 1000 0
DWIDTH 16 0
BBX 14 14 1 -1
BITMAP
0FC0
3070
4018
4238
931C
8924
8824
8044
8044
8088
8108
4210
3C20
0FC0
ENDCHAR
STARTCHAR 32E2
ENCODING 13026
SWIDTH 1000 0
DWIDTH 16 0
BBX 14 14 1 -1
BITMAP
0FC0
3070
5078
4F88
800C
8034
BFC4
8104
8104
8108
8208
4410
3820
0FC0
ENDCHAR
STARTCHAR 32E3
ENCODING 13027
SWIDTH 1000 0
DWIDTH 16 0
BBX 14 14 1 -1
BITMAP
0FC0
3070
4618
4208
840C
8204
8584
8464
8224
8208
8608
4610
3020
0FC0
ENDCHAR
STARTCHAR 32E5
ENCODING 13029
SWIDTH 1000 0
DWIDTH 16 0
BBX 14 14 1 -1
BITMAP
0FC0
3070
4018
4008
9FEC
8004
8004
8004
BFF4
8008
8008
4010
3020
0FC0
ENDCHAR
STARTCHAR 32E9
ENCODING 13033
SWIDTH 1000 0
DWIDTH 16 0
BBX 14 14 1 -1
BITMAP
0FC0
3070
4018
4C88
844C
8424
8824
8814
9014
A008
8008
4010
3020
0FC0
ENDCHAR
STARTCHAR 32EC
ENCODING 13036
SWIDTH 1000 0
DWIDTH 16 0
BBX 14 14 1 -1
BITMAP
0FC0
3070
4018
4408
8A0C
8904
9084
D044
A034
8018
8008
4010
3020
0FC0
ENDCHAR
STARTCHAR 32ED
ENCODING 13037
SWIDTH 1000 0
DWIDTH 16 0
BBX 14 14 1 -1
BITMAP
0FC0
3270
4118
4108
A17C
9F84
8944
8924
9114
B118
A708
4110
3020
0FC0
ENDCHAR
STARTCHAR 32FA
ENCODING 13050
SWIDTH 1000 0
DWIDTH 16 0
BBX 14 14 1 -1
BITMAP
0FC0
3070
4018
5068
9FAC
9024
9024
9024
9044
9028
9FC8
4010
3020
0FC0
ENDCHAR
STARTCHAR 3303
ENCODING 13059
SWIDTH 1000 0
DWIDTH 16 0
BBX 14 14 1 -1
BITMAP
FE00
0400
1800
11FC
1000
1000
2000
5800
2800
2900
2A00
4A00
4C00
8800
ENDCHAR
STARTCHAR 330D
ENCODING 13069
SWIDTH 1000 0
DWIDTH 16 0
BBX 15 16 1 -2
BITMAP
2000
1000
7EFC
1244
2244
2444
4C7C
8440
0C00
6400
4400
44FE
2400
0800
1000
2000
ENDCHAR
STARTCHAR 3314
ENCODING 13076
SWIDTH 1000 0
DWIDTH 16 0
BBX 14 14 1 -1
BITMAP
3000
1000
FE00
1000
0F00
F800
0800
0800
01FC
0104
0108
0108
008C
00F0
ENDCHAR
STARTCHAR 3318
ENCODING 13080
SWIDTH 1000 0
DWIDTH 16 0
BBX 14 15 1 -1
BITMAP
0200
3378
1C00
24FC
4804
8808
1010
2020
C040
1000
1000
2800
4400
4E00
F200
ENDCHAR
STARTCHAR 3322
ENCODING 13090
SWIDTH 1000 0
DWIDTH 16 0
BBX 15 15 1 -1
BITMAP
60C0
2622
FC04
2808
2010
3C60
0200
0200
3C00
4800
FF00
0800
1000
2000
4000
ENDCHAR
STARTCHAR 3323
ENCODING 13091
SWIDTH 1000 0
DWIDTH 16 0
BBX 15 14 1 0
BITMAP
6080
2662
FC04
2804
2008
3CB0
0260
2000
2000
1000
2C00
1200
1000
3000
ENDCHAR
STARTCHAR 3326
ENCODING 13094
SWIDTH 1000 0
DWIDTH 16 0
BBX 13 14 2 -1
BITMAP
D000
5800
5000
6000
5800
4800
4080
4340
0140
0148
0150
0250
0460
0840
ENDCHAR
STARTCHAR 3327
ENCODING 13095
SWIDTH 1000 0
DWIDTH 16 0
BBX 13 14 2 -1
BITMAP
8000
8000
8000
E000
9800
8800
8000
8300
0088
0010
0010
0020
02C0
0100
ENDCHAR
STARTCHAR 332B
ENCODING 13099
SWIDTH 1000 0
DWIDTH 16 0
BBX 15 15 0 -1
BITMAP
0300
0300
1400
1286
2278
2100
4100
8000
6208
2128
3D28
E84E
304A
2088
1D08
ENDCHAR
STARTCHAR 3336
ENCODING 13110
SWIDTH 1000 0
DWIDTH 16 0
BBX 15 14 0 -1
BITMAP
0014
102C
2C48
C688
0110
0020
00C0
2010
3828
4828
77EA
902C
284C
4048
ENDCHAR
STARTCHAR 333B
ENCODING 13115
SWIDTH 1000 0
DWIDTH 16 0
BBX 14 14 1 -1
BITMAP
0E00
2600
5000
49FC
8400
0200
0400
6200
1000
C200
2400
0800
1000
6000
ENDCHAR
STARTCHAR 3349
ENCODING 13129
SWIDTH 1000 0
DWIDTH 16 0
BBX 12 14 2 -1
BITMAP
E000
1000
C000
3000
0000
E020
1910
0110
0110
0110
0110
0020
0020
00C0
ENDCHAR
STARTCHAR 334A
ENCODING 13130
SWIDTH 1000 0
DWIDTH 16 0
BBX 16 14 0 -1
BITMAP
3C4C
0044
3844
0044
7004
0C08
0030
0410
0828
2828
2BEB
442A
444C
8048
ENDCHAR
STARTCHAR 334D
ENCODING 13133
SWIDTH 1000 0
DWIDTH 16 0
BBX 14 14 1 0
BITMAP
0C00
4800
3800
19FC
2400
4000
8000
6020
20A0
30A4
28A4
24A8
2130
2220
ENDCHAR
STARTCHAR 3351
ENCODING 13137
SWIDTH 1000 0
DWIDTH 16 0
BBX 14 14 2 0
BITMAP
D800
8A58
8948
8910
0820
1040
6080
C060
40A0
40A4
70A8
4928
4150
4220
ENDCHAR
STARTCHAR 3357
ENCODING 13143
SWIDTH 1000 0
DWIDTH 16 0
BBX 13 14 1 -1
BITMAP
8E00
F748
44A8
4498
0810
1020
20C0
2000
2000
2000
3800
2400
2000
2000
ENDCHAR
STARTCHAR 337B
ENCODING 13179
SWIDTH 1000 0
DWIDTH 16 0
BBX 14 14 1 -1
BITMAP
0430
FC28
1028
95FC
5520
592C
59E8
1D68
FF68
1150
1154
12B4
122C
1244
ENDCHAR
STARTCHAR 337C
ENCODING 13180
SWIDTH 1000 0
DWIDTH 16 0
BBX 14 14 1 -1
BITMAP
0200
FF64
ABDC
AA54
ABF4
B254
FE54
A0D4
BEF4
B354
F354
B25C
1E54
1240
ENDCHAR
STARTCHAR 337D
ENCODING 13181
SWIDTH 1000 0
DWIDTH 16 0
BBX 15 14 0 0
BITMAP
0C04
08FE
0810
0910
7F10
0850
085E
0850
1450
1450
2250
2352
41FE
8000
ENDCHAR
STARTCHAR 337E
ENCODING 13182
SWIDTH 1000 0
DWIDTH 16 0
BBX 15 14 1 -2
BITMAP
0220
FED8
B250
B358
BEE4
F2EE
B272
B280
BEBC
F3A4
B2A4
22A4
22BC
5EA4
ENDCHAR
STARTCHAR 338E
ENCODING 13198
SWIDTH 1000 0
DWIDTH 16 0
BBX 15 10 1 -1
BITMAP
7E76
D28E
5288
5288
5270
5280
5270
528C
8D84
00F8
ENDCHAR
STARTCHAR 338F
ENCODING 13199
SWIDTH 1000 0
DWIDTH 16 0
BBX 14 13 1 -1
BITMAP
C000
4000
4000
4000
4E7C
4888
5088
70F0
4880
48F0
450C
AB04
00F8
ENDCHAR
STARTCHAR 339C
ENCODING 13212
SWIDTH 1000 0
DWIDTH 16 0
BBX 15 8 0 1
BITMAP
7E7E
CAD2
4A52
4A52
4A52
4A52
4A52
4A52
ENDCHAR
STARTCHAR 339D
ENCODING 13213
SWIDTH 1000 0
DWIDTH 16 0
BBX 13 8 1 1
BITMAP
71F8
4B28
8928
8128
8128
8128
4D28
7928
ENDCHAR
STARTCHAR 339E
ENCODING 13214
SWIDTH 1000 0
DWIDTH 16 0
BBX 14 11 1 1
BITMAP
C000
4000
4000
4000
5FFC
5124
6124
7124
5124
4924
4924
ENDCHAR
STARTCHAR 33A1
ENCODING 13217
SWIDTH 1000 0
DWIDTH 16 0
BBX 13 13 2 1
BITMAP
0030
0028
0010
0028
0038
4000
DDC0
6220
4220
4220
4220
4220
4220
ENDCHAR
STARTCHAR 33C4
ENCODING 13252
SWIDTH 1000 0
DWIDTH 16 0
BBX 12 8 2 1
BITMAP
70E0
4910
8A30
8200
8200
8200
4910
71E0
ENDCHAR
STARTCHAR 33CB
ENCODING 13259
SWIDTH 1000 0
DWIDTH 16 0
BBX 13 11 2 1
BITMAP
E3F0
4118
4108
4108
4118
7FF0
4100
4100
4100
4100
4100
ENDCHAR
STARTCHAR 33CD
ENCODING 13261
SWIDTH 1000 0
DWIDTH 16 0
BBX 14 11 1 1
BITMAP
FDF8
5090
50A0
60A0
60C0
50E0
50A0
50A0
4890
4A94
4A9C
ENDCHAR
STARTCHAR 3402
ENCODING 13314
SWIDTH 1000 0
DWIDTH 16 0
BBX 14 14 1 -1
BITMAP
0C00
0810
09E8
FE00
0820
0820
0FF0
3060
2244
3C78
E1C0
2448
2248
3E7C
ENDCHAR
STARTCHAR 3406
ENCODING 13318
SWIDTH 1000 0
DWIDTH 16 0
BBX 10 14 3 -2
BITMAP
0180
3E00
2080
3F80
2080
3F80
2080
3F80
2080
3FC0
2080
4080
4080
8700
ENDCHAR
STARTCHAR 342C
ENCODING 13356
SWIDTH 1000 0
DWIDTH 16 0
BBX 15 14 1 0
BITMAP
0300
0204
7FFC
0200
0460
0810
3FE8
0000
1230
1220
1224
1224
223E
C000
ENDCHAR
STARTCHAR 342E
ENCODING 13358
SWIDTH 1000 0
DWIDTH 16 0
BBX 16 16 0 -2
BITMAP
00C0
0082
7FFE
0420
0A1C
7636
3FFE
0428
3FFC
0422
7FFF
0344
0C4E
F430
07CC
3803
ENDCHAR
STARTCHAR 3468
ENCODING 13416
SWIDTH 1000 0
DWIDTH 16 0
BBX 16 14 0 -1
BITMAP
0C04
0BFE
1204
1204
13FC
3100
3304
53FE
9440
17FF
1060
1090
110C
1603
ENDCHAR
STARTCHAR 346A
ENCODING 13418
SWIDTH 1000 0
DWIDTH 16 0
BBX 15 14 1 -1
BITMAP
18C0
1084
1FFC
2220
2160
30C0
633C
BE12
A3F0
2210
23F0
2210
2410
2810
ENDCHAR
STARTCHAR 3492
ENCODING 13458
SWIDTH 1000 0
DWIDTH 16 0
BBX 15 15 0 -1
BITMAP
08B0
0CA4
0AA8
12B4
17FE
1110
38A4
37FE
5048
93FC
17FE
10E0
1150
124E
1C40
ENDCHAR
STARTCHAR 34B5
ENCODING 13493
SWIDTH 1000 0
DWIDTH 16 0
BBX 13 15 1 -2
BITMAP
0200
0300
4410
3FF8
2010
3FF0
2010
2010
3FF0
2010
0C80
1860
3018
4008
8000
ENDCHAR
STARTCHAR 34BC
ENCODING 13500
SWIDTH 1000 0
DWIDTH 16 0
BBX 14 15 1 -1
BITMAP
0860
084C
FFFC
0840
0FC0
0A00
7FFC
4208
5AE8
4A48
4A68
56A8
6738
4208
4278
ENDCHAR
STARTCHAR 34C1
ENCODING 13505
SWIDTH 1000 0
DWIDTH 16 0
BBX 14 8 1 1
BITMAP
4008
7FFC
488C
4688
C884
1884
10FC
6000
ENDCHAR
STARTCHAR 34C7
ENCODING 13511
SWIDTH 1000 0
DWIDTH 16 0
BBX 14 15 1 -2
BITMAP
0030
80C0
4F80
5080
1080
2088
2FFC
2080
40C0
C140
4120
4230
4218
4C0C
1000
ENDCHAR
STARTCHAR 34DB
ENCODING 13531
SWIDTH 1000 0
DWIDTH 16 0
BBX 14 14 0 -2
BITMAP
0004
07FC
FE44
1044
1044
1044
1044
1044
1084
1684
7884
C104
0208
0478
ENDCHAR
STARTCHAR 351F
ENCODING 13599
SWIDTH 1000 0
DWIDTH 16 0
BBX 15 15 0 -1
BITMAP
0830
3828
3EFC
4828
8AE8
3E66
0856
0E86
7100
7FFC
0208
0208
0508
38F0
4000
ENDCHAR
STARTCHAR 355D
ENCODING 13661
SWIDTH 1000 0
DWIDTH 16 0
BBX 15 16 1 -2
BITMAP
0180
0104
FFFC
0100
3FF8
2010
2010
3FF0
0020
7FF0
0820
0440
0380
0660
781E
8000
ENDCHAR
STARTCHAR 355E
ENCODING 13662
SWIDTH 1000 0
DWIDTH 16 0
BBX 16 14 0 -1
BITMAP
4100
3FFE
2122
2122
3F22
2424
2514
3F94
3494
3488
5488
5494
57A2
84C1
ENDCHAR
STARTCHAR 3563
ENCODING 13667
SWIDTH 1000 0
DWIDTH 16 0
BBX 14 14 1 -1
BITMAP
0080
03C0
0880
0C40
1820
1010
200C
6020
9FF0
1020
1020
1020
1FE0
1020
ENDCHAR
STARTCHAR 356E
ENCODING 13678
SWIDTH 1000 0
DWIDTH 16 0
BBX 14 13 2 0
BITMAP
1120
FA10
9208
940C
9634
9A20
9160
90C0
F0C0
90C0
0120
061C
0800
ENDCHAR
STARTCHAR 35A6
ENCODING 13734
SWIDTH 1000 0
DWIDTH 16 0
BBX 14 14 2 0
BITMAP
00C0
1088
FFF8
9080
97F8
9490
97F0
9490
97F0
F1C0
91A0
0290
0C8C
1080
ENDCHAR
STARTCHAR 35A8
ENCODING 13736
SWIDTH 1000 0
DWIDTH 16 0
BBX 14 14 2 -1
BITMAP
0320
13F0
FA20
93E0
9428
9FFC
9080
94D8
92E0
F1A0
9690
0C98
008C
0380
ENDCHAR
STARTCHAR 35C5
ENCODING 13765
SWIDTH 1000 0
DWIDTH 16 0
BBX 14 14 2 -2
BITMAP
0608
047C
F448
BFC8
A478
A448
A548
AF48
A978
E948
8F88
0988
0888
0178
ENDCHAR
STARTCHAR 35DA
ENCODING 13786
SWIDTH 1000 0
DWIDTH 16 0
BBX 13 14 2 0
BITMAP
0010
1FF8
E240
AFF8
AA50
AA50
AFF0
A080
A088
FFF8
83C0
06A0
0898
3080
ENDCHAR
STARTCHAR 35F4
ENCODING 13812
SWIDTH 1000 0
DWIDTH 16 0
BBX 14 14 1 -1
BITMAP
0144
07BC
F4A4
97BC
94A4
97BC
9424
95F4
9524
F5E4
85E4
0524
0404
041C
ENDCHAR
STARTCHAR 3605
ENCODING 13829
SWIDTH 1000 0
DWIDTH 16 0
BBX 14 15 1 -1
BITMAP
0500
0684
24FC
F920
B320
A3C4
A6BC
A4C8
ADE8
B6A8
E5C8
A5C8
04E8
0588
0638
ENDCHAR
STARTCHAR 364A
ENCODING 13898
SWIDTH 1000 0
DWIDTH 16 0
BBX 14 15 1 -2
BITMAP
3408
23F8
2210
23F0
FA10
23F0
2208
2FFC
2290
2258
3A50
C220
82D0
0F0C
0800
ENDCHAR
STARTCHAR 3691
ENCODING 13969
SWIDTH 1000 0
DWIDTH 16 0
BBX 14 15 1 -3
BITMAP
0020
3FF0
0028
FFFC
0020
0020
3FE0
0200
0208
FFFC
0200
0500
0CC0
1830
E00C
ENDCHAR
STARTCHAR 3696
ENCODING 13974
SWIDTH 1000 0
DWIDTH 16 0
BBX 14 15 1 -1
BITMAP
0300
4410
3FF8
2010
3FF0
2010
2010
3FF0
0208
FFFC
0300
0480
0860
301C
C000
ENDCHAR
STARTCHAR 3699
ENCODING 13977
SWIDTH 1000 0
DWIDTH 16 0
BBX 14 17 1 -3
BITMAP
2000
1008
12FC
FE88
1488
1488
24F8
4C88
8300
0208
FFFC
0300
0500
04C0
1838
600C
8000
ENDCHAR
STARTCHAR 36CF
ENCODING 14031
SWIDTH 1000 0
DWIDTH 16 0
BBX 16 15 0 -1
BITMAP
3038
2024
2022
FFFE
2820
4B22
49B4
48A8
4828
70EC
1B26
2623
2020
41E0
8000
ENDCHAR
STARTCHAR 3761
ENCODING 14177
SWIDTH 1000 0
DWIDTH 16 0
BBX 15 15 1 -1
BITMAP
0180
4104
7FFE
C008
7F08
25FC
2488
3C48
2448
3C50
2430
2430
DC4C
0486
0100
ENDCHAR
STARTCHAR 3762
ENCODING 14178
SWIDTH 1000 0
DWIDTH 16 0
BBX 14 15 1 -1
BITMAP
0180
4108
7FFC
402C
8FD0
3110
3FF0
2110
3FF0
8108
7FFC
4148
43E8
5C08
4078
ENDCHAR
STARTCHAR 376B
ENCODING 14187
SWIDTH 1000 0
DWIDTH 16 0
BBX 15 14 1 -1
BITMAP
0180
4108
7FFC
C088
FDF8
4B30
54E0
539E
4DF0
4BFC
7A50
5DF8
4044
47FC
ENDCHAR
STARTCHAR 376C
ENCODING 14188
SWIDTH 1000 0
DWIDTH 16 0
BBX 15 14 1 0
BITMAP
1830
9220
7F20
95FC
1E20
F420
7C24
13FC
FE20
7E30
4458
444C
7C86
4504
ENDCHAR
STARTCHAR 3775
ENCODING 14197
SWIDTH 1000 0
DWIDTH 16 0
BBX 14 14 1 -2
BITMAP
0010
3FF8
2010
3FF0
2010
3FF0
0008
7FFC
0048
FFFC
3040
0C40
0040
03C0
ENDCHAR
STARTCHAR 378D
ENCODING 14221
SWIDTH 1000 0
DWIDTH 16 0
BBX 14 15 1 -2
BITMAP
0010
3FF8
2010
2010
3FF0
2200
2220
2FE0
2220
3220
4E20
4728
48A8
903C
2000
ENDCHAR
STARTCHAR 37C1
ENCODING 14273
SWIDTH 1000 0
DWIDTH 16 0
BBX 14 14 1 -1
BITMAP
3404
23FC
2200
EA08
AAFC
AA20
AA20
AA28
ABFC
AA20
FA20
8C20
8420
0820
ENDCHAR
STARTCHAR 37E2
ENCODING 14306
SWIDTH 1000 0
DWIDTH 16 0
BBX 14 15 1 -2
BITMAP
0100
2118
2110
3FF0
0310
7FF8
0200
0DC0
7028
FFFC
3F20
2120
3F20
2120
00E0
ENDCHAR
STARTCHAR 37E8
ENCODING 14312
SWIDTH 1000 0
DWIDTH 16 0
BBX 14 14 1 -2
BITMAP
0040
3348
2248
EE48
ABF8
A808
AFFC
A840
ABFC
AAA8
FAA8
8AA8
82A8
02B8
ENDCHAR
STARTCHAR 37F4
ENCODING 14324
SWIDTH 1000 0
DWIDTH 16 0
BBX 14 15 1 -1
BITMAP
3040
2488
23FC
EE48
AA48
ABF8
AA48
ABF8
A8D0
A8D0
F96C
897C
8244
027C
0400
ENDCHAR
STARTCHAR 37FD
ENCODING 14333
SWIDTH 1000 0
DWIDTH 16 0
BBX 14 14 1 -2
BITMAP
3008
27FC
20A0
EBF8
AAA8
AAA8
ABF8
ABF8
A808
AFFC
F950
8A4C
8244
05C0
ENDCHAR
STARTCHAR 3800
ENCODING 14336
SWIDTH 1000 0
DWIDTH 16 0
BBX 14 15 1 -1
BITMAP
0400
0220
1FE0
1FE0
1FE0
1004
1FFC
0FF8
4948
C038
3118
2110
2110
3FF0
2010
ENDCHAR
STARTCHAR 382F
ENCODING 14383
SWIDTH 1000 0
DWIDTH 16 0
BBX 11 14 3 -1
BITMAP
0080
FFC0
8080
8080
8080
FF80
8000
8040
FFE0
8040
8040
8040
FFC0
8040
ENDCHAR
STARTCHAR 3836
ENCODING 14390
SWIDTH 1000 0
DWIDTH 16 0
BBX 14 15 1 -1
BITMAP
2080
30C0
22A0
29F0
FD20
A920
A920
A920
A920
A920
A928
BA28
2228
2428
283C
ENDCHAR
STARTCHAR 3840
ENCODING 14400
SWIDTH 1000 0
DWIDTH 16 0
BBX 13 14 1 -1
BITMAP
0180
0980
0D60
1110
2110
7FF8
A118
2990
2550
2950
2950
3110
2110
2170
ENDCHAR
STARTCHAR 385C
ENCODING 14428
SWIDTH 1000 0
DWIDTH 16 0
BBX 15 15 1 -1
BITMAP
0200
31A8
23FC
2AA4
FBA8
AE90
A928
ABF4
AC06
A808
ABFC
BA60
2358
2444
29C0
ENDCHAR
STARTCHAR 3861
ENCODING 14433
SWIDTH 1000 0
DWIDTH 16 0
BBX 14 14 1 0
BITMAP
3808
27FC
2448
FFE8
AC08
ADCC
AD7C
AD48
ADF8
AE58
BD48
2968
2B88
2A18
ENDCHAR
STARTCHAR 38FA
ENCODING 14586
SWIDTH 1000 0
DWIDTH 16 0
BBX 15 14 1 -1
BITMAP
0800
0600
0400
0400
4520
2498
2448
4444
4426
4422
8400
0400
3C00
0800
ENDCHAR
STARTCHAR 3917
ENCODING 14615
SWIDTH 1000 0
DWIDTH 16 0
BBX 15 14 1 -2
BITMAP
0300
0208
7FFC
0210
3FF8
0488
FFFC
0840
1330
624C
92B2
1258
2248
0E00
ENDCHAR
STARTCHAR 391A
ENCODING 14618
SWIDTH 1000 0
DWIDTH 16 0
BBX 14 14 1 -1
BITMAP
3200
2108
227C
3400
B980
A908
AAFC
A310
2610
2A10
2210
2210
2210
2270
ENDCHAR
STARTCHAR 396F
ENCODING 14703
SWIDTH 1000 0
DWIDTH 16 0
BBX 14 14 1 0
BITMAP
23E0
3E20
2250
5FE8
8220
7FF0
3FF0
0028
FFFC
3FE0
4A20
4958
4844
8FE0
ENDCHAR
STARTCHAR 3A6E
ENCODING 14958
SWIDTH 1000 0
DWIDTH 16 0
BBX 15 14 1 -1
BITMAP
3288
27D8
36C8
FF58
27D8
24CC
2FFE
7250
A5AC
2BF6
3FFC
2080
2080
E380
ENDCHAR
STARTCHAR 3A73
ENCODING 14963
SWIDTH 1000 0
DWIDTH 16 0
BBX 14 15 1 -1
BITMAP
3528
2754
27FC
FF58
2F7C
27D8
277C
7FFC
A010
27F8
2230
2160
20E0
E71C
0800
ENDCHAR
STARTCHAR 3AD6
ENCODING 15062
SWIDTH 1000 0
DWIDTH 16 0
BBX 14 14 1 -1
BITMAP
0300
0200
0208
03F8
0200
0204
FFFC
0000
3FF8
2010
3FF0
2010
3FF0
2010
ENDCHAR
STARTCHAR 3AD7
ENCODING 15063
SWIDTH 1000 0
DWIDTH 16 0
BBX 15 14 0 -2
BITMAP
0008
1FFC
1008
1FF8
1008
1FF8
0010
3FF8
0140
FFFE
0080
0080
0080
0780
ENDCHAR
STARTCHAR 3AEA
ENCODING 15082
SWIDTH 1000 0
DWIDTH 16 0
BBX 15 15 0 -1
BITMAP
0180
0108
3FFC
0110
3FF8
0244
7FFE
0C20
1010
2DFC
C916
09F0
0910
09F0
0910
ENDCHAR
STARTCHAR 3B0E
ENCODING 15118
SWIDTH 1000 0
DWIDTH 16 0
BBX 14 15 1 -1
BITMAP
0010
3FF8
2010
3FF0
2010
3FF0
1820
A950
6C98
3870
FFFC
8304
2890
24CC
C444
ENDCHAR
STARTCHAR 3B1A
ENCODING 15130
SWIDTH 1000 0
DWIDTH 16 0
BBX 15 15 1 -2
BITMAP
0310
1210
F260
9FE4
933E
94E4
9F64
F868
97E8
9798
9488
F798
9498
04A4
07C6
ENDCHAR
STARTCHAR 3B1C
ENCODING 15132
SWIDTH 1000 0
DWIDTH 16 0
BBX 15 14 0 -1
BITMAP
0202
7FFE
1428
7B76
0A14
7F7E
0812
7FFE
8008
1FF8
1FF8
1008
1FF8
1008
ENDCHAR
STARTCHAR 3B22
ENCODING 15138
SWIDTH 1000 0
DWIDTH 16 0
BBX 15 16 1 -2
BITMAP
0220
1190
F8A4
97FC
9048
93F8
9FFC
F000
90F0
972C
9FFE
F1EC
9F1C
012C
0746
0080
ENDCHAR
STARTCHAR 3B6D
ENCODING 15213
SWIDTH 1000 0
DWIDTH 16 0
BBX 16 14 0 -1
BITMAP
1C42
13C3
1A5A
7E52
1252
13D2
3912
3552
55D2
5152
9152
1242
1242
1D9E
ENDCHAR
STARTCHAR 3B77
ENCODING 15223
SWIDTH 1000 0
DWIDTH 16 0
BBX 15 15 0 -2
BITMAP
1804
11FE
1524
FDFC
1124
1124
39FC
3420
5424
53FE
9024
9044
1084
131C
0400
ENDCHAR
STARTCHAR 3B87
ENCODING 15239
SWIDTH 1000 0
DWIDTH 16 0
BBX 15 15 0 -1
BITMAP
1000
181C
11E0
1640
7C42
17FE
1090
3888
3564
5242
556C
9152
114A
1248
11C0
ENDCHAR
STARTCHAR 3B88
ENCODING 15240
SWIDTH 1000 0
DWIDTH 16 0
BBX 16 15 0 -1
BITMAP
1040
1060
1042
1BFE
7CD0
1088
1914
3AFA
3403
53FE
5020
9328
1226
1422
11E0
ENDCHAR
STARTCHAR 3B8D
ENCODING 15245
SWIDTH 1000 0
DWIDTH 16 0
BBX 14 14 1 0
BITMAP
0840
0488
7FFC
3E90
3290
2A90
3A90
2210
2E70
FFFC
0700
0AC0
323C
C200
ENDCHAR
STARTCHAR 3BA4
ENCODING 15268
SWIDTH 1000 0
DWIDTH 16 0
BBX 14 15 1 -1
BITMAP
0100
4108
7FFC
4688
89FC
7280
0C40
3FF0
D02C
1FE0
FFFC
0380
0D60
311C
C100
ENDCHAR
STARTCHAR 3BB6
ENCODING 15286
SWIDTH 1000 0
DWIDTH 16 0
BBX 16 14 0 -1
BITMAP
1442
129F
12D2
7FF2
111E
1572
3D52
3D52
555E
57D2
9112
1122
1222
144E
ENDCHAR
STARTCHAR 3BC3
ENCODING 15299
SWIDTH 1000 0
DWIDTH 16 0
BBX 16 14 0 -1
BITMAP
1870
1042
13FE
7CD0
114C
1662
3860
3498
5737
552C
9130
11EC
1622
11E0
ENDCHAR
STARTCHAR 3BCD
ENCODING 15309
SWIDTH 1000 0
DWIDTH 16 0
BBX 16 15 0 -2
BITMAP
1110
1ADC
129E
1A92
7EAC
12B4
13C8
3896
38A6
57FF
52A4
9294
1294
1484
149C
ENDCHAR
STARTCHAR 3BF0
ENCODING 15344
SWIDTH 1000 0
DWIDTH 16 0
BBX 15 15 0 -1
BITMAP
1804
11FC
1154
1954
7DFC
1024
13FE
38F8
5784
56FC
92FC
12FC
1284
13FE
1200
ENDCHAR
STARTCHAR 3C0F
ENCODING 15375
SWIDTH 1000 0
DWIDTH 16 0
BBX 15 15 0 -1
BITMAP
1110
1A5C
13FE
1AA8
7C2C
13FE
19F8
3D08
35F8
53FC
52F4
9294
12F4
1284
121C
ENDCHAR
STARTCHAR 3C26
ENCODING 15398
SWIDTH 1000 0
DWIDTH 16 0
BBX 14 15 1 -1
BITMAP
1880
1080
1508
FFFC
1148
1250
1250
FE40
1060
28A0
2690
3B10
C108
020C
0400
ENDCHAR
STARTCHAR 3CC3
ENCODING 15555
SWIDTH 1000 0
DWIDTH 16 0
BBX 14 15 1 -1
BITMAP
0200
6180
2120
0FF0
0920
D128
5228
24BC
28C0
6088
CFFC
4080
4080
4080
4080
ENDCHAR
STARTCHAR 3CD2
ENCODING 15570
SWIDTH 1000 0
DWIDTH 16 0
BBX 16 15 0 -2
BITMAP
4060
3040
1042
07FE
8490
6890
2908
1266
1443
1090
2088
610C
213C
27C6
2002
ENDCHAR
STARTCHAR 3D11
ENCODING 15633
SWIDTH 1000 0
DWIDTH 16 0
BBX 14 14 1 -1
BITMAP
4040
2844
27FC
0D10
D4A8
57FC
2440
254C
2548
C5F8
4548
4840
4880
5100
ENDCHAR
STARTCHAR 3D1E
ENCODING 15646
SWIDTH 1000 0
DWIDTH 16 0
BBX 14 14 1 0
BITMAP
6038
17D0
0488
9B50
5150
5528
26FC
2488
2488
44F8
C488
4488
44F8
4488
ENDCHAR
STARTCHAR 3D64
ENCODING 15716
SWIDTH 1000 0
DWIDTH 16 0
BBX 15 15 1 -2
BITMAP
8104
7FFC
1394
16B4
DBDC
5424
18C8
2FFC
2490
2298
E698
49E4
4120
621C
6C06
ENDCHAR
STARTCHAR 3D9A
ENCODING 15770
SWIDTH 1000 0
DWIDTH 16 0
BBX 16 14 0 -2
BITMAP
0002
3FFF
07FE
0CA4
77FC
3284
1FDE
1292
211E
E7DE
27D2
2FF2
2122
214E
ENDCHAR
STARTCHAR 3DC0
ENCODING 15808
SWIDTH 1000 0
DWIDTH 16 0
BBX 15 15 0 -1
BITMAP
0820
2DBC
2EB0
68A0
1458
3244
C090
3FF8
0010
0310
0248
7FEA
020A
0206
0206
ENDCHAR
STARTCHAR 3DD4
ENCODING 15828
SWIDTH 1000 0
DWIDTH 16 0
BBX 15 14 0 0
BITMAP
181C
13E8
1744
58A8
58A8
5204
517E
5144
1144
197C
2544
2544
417C
8144
ENDCHAR
STARTCHAR 3E05
ENCODING 15877
SWIDTH 1000 0
DWIDTH 16 0
BBX 15 14 1 -1
BITMAP
3230
22A4
37BE
2D50
B988
A7BC
A4A4
A7A4
27A4
3424
2DA4
4EBC
44A0
87A0
ENDCHAR
STARTCHAR 3E3F
ENCODING 15935
SWIDTH 1000 0
DWIDTH 16 0
BBX 16 14 0 -1
BITMAP
1830
7022
53FE
5420
7FFE
5000
93FE
9602
7EDC
5090
1090
1092
1112
161F
ENDCHAR
STARTCHAR 3E60
ENCODING 15968
SWIDTH 1000 0
DWIDTH 16 0
BBX 16 14 0 -2
BITMAP
9060
4844
307E
27C0
5046
9344
1A44
2A44
2A44
4BFC
8A42
0842
1842
707F
ENDCHAR
STARTCHAR 3E66
ENCODING 15974
SWIDTH 1000 0
DWIDTH 16 0
BBX 15 14 0 0
BITMAP
4804
4FFE
3044
1044
70C4
9084
1938
2E04
49FE
4904
8904
0904
59FC
3104
ENDCHAR
STARTCHAR 3E68
ENCODING 15976
SWIDTH 1000 0
DWIDTH 16 0
BBX 15 15 0 -1
BITMAP
0040
4820
3020
1424
33FE
5224
9224
1A24
2A24
2BFC
4A24
8A24
0A24
0BFC
7204
ENDCHAR
STARTCHAR 3E83
ENCODING 16003
SWIDTH 1000 0
DWIDTH 16 0
BBX 15 14 0 -2
BITMAP
00D8
4C92
33FE
1180
3104
49FC
1A04
1BE4
2D24
4924
89E4
0804
0848
7038
ENDCHAR
STARTCHAR 3E94
ENCODING 16020
SWIDTH 1000 0
DWIDTH 16 0
BBX 16 14 0 -1
BITMAP
443C
29C8
1126
1232
33F8
CD08
09FC
1904
29FF
490A
8AD6
0AD2
0DC2
351C
ENDCHAR
STARTCHAR 3F57
ENCODING 16215
SWIDTH 1000 0
DWIDTH 16 0
BBX 14 14 1 -1
BITMAP
0460
FE40
9440
9440
9440
9440
FC40
9460
94A0
9490
FD90
8508
0204
0C00
ENDCHAR
STARTCHAR 3F72
ENCODING 16242
SWIDTH 1000 0
DWIDTH 16 0
BBX 15 14 0 -1
BITMAP
00C0
2084
1FFE
9000
5004
57FC
5100
1110
33F8
D208
9008
2010
2010
41F0
ENDCHAR
STARTCHAR 3F75
ENCODING 16245
SWIDTH 1000 0
DWIDTH 16 0
BBX 15 15 0 -1
BITMAP
00C0
0080
2082
1FFE
9000
5060
5040
5040
104C
37FC
D040
2040
2044
4FFE
8000
ENDCHAR
STARTCHAR 3F77
ENCODING 16247
SWIDTH 1000 0
DWIDTH 16 0
BBX 15 14 0 -1
BITMAP
00C0
2082
1FFE
9000
5060
5246
1F44
1168
7250
9250
1448
2846
3042
43C0
ENDCHAR
STARTCHAR 3FAE
ENCODING 16302
SWIDTH 1000 0
DWIDTH 16 0
BBX 15 15 0 -1
BITMAP
00C0
2082
1FFE
9040
53F8
5208
53F8
1208
73F4
9FFC
1048
27FC
2044
4FFE
8000
ENDCHAR
STARTCHAR 3FC9
ENCODING 16329
SWIDTH 1000 0
DWIDTH 16 0
BBX 15 14 0 -2
BITMAP
00C0
2084
1FFE
1040
53F8
53F8
1FFE
1008
73F8
D3F8
1208
23F8
2198
4E04
ENDCHAR
STARTCHAR 3FD7
ENCODING 16343
SWIDTH 1000 0
DWIDTH 16 0
BBX 15 15 0 -1
BITMAP
00C0
2084
1FFE
9104
57FE
5FB4
533C
35BC
5924
973C
253C
25A4
29DC
4962
0080
ENDCHAR
STARTCHAR 4039
ENCODING 16441
SWIDTH 1000 0
DWIDTH 16 0
BBX 14 16 2 -2
BITMAP
0100
10C0
F080
9088
9FFC
F290
9490
94B0
F6A8
9AC8
90C0
F120
9120
8210
040C
1800
ENDCHAR
STARTCHAR 4058
ENCODING 16472
SWIDTH 1000 0
DWIDTH 16 0
BBX 14 14 1 0
BITMAP
0860
F888
89FC
8A58
FDA0
88C0
8B08
FDF8
8A44
8FFC
FB4C
8A48
83F8
0208
ENDCHAR
STARTCHAR 4093
ENCODING 16531
SWIDTH 1000 0
DWIDTH 16 0
BBX 14 15 1 -2
BITMAP
2208
21FC
4508
7DF8
5108
9108
95F8
FF08
11F8
18A0
24A4
24A4
4124
823C
0400
ENDCHAR
STARTCHAR 4105
ENCODING 16645
SWIDTH 1000 0
DWIDTH 16 0
BBX 15 14 1 -1
BITMAP
1130
0A20
0A48
7FF8
0444
FFFE
08B0
17C8
6016
BFF8
1100
1970
210C
CF04
ENDCHAR
STARTCHAR 4148
ENCODING 16712
SWIDTH 1000 0
DWIDTH 16 0
BBX 14 14 1 0
BITMAP
2320
1240
1490
7FF8
0488
FFFC
1020
23D8
DE2C
3FF0
0700
0AC0
3238
C200
ENDCHAR
STARTCHAR 414F
ENCODING 16719
SWIDTH 1000 0
DWIDTH 16 0
BBX 15 14 0 -2
BITMAP
0604
19FE
7104
15FC
7F14
1118
11E0
3924
35F8
5126
52F8
9222
1222
143E
ENDCHAR
STARTCHAR 4163
ENCODING 16739
SWIDTH 1000 0
DWIDTH 16 0
BBX 16 14 0 0
BITMAP
0420
3A44
51FE
1104
7FFC
1104
11FC
3802
57FE
5020
91FE
9020
1022
17FF
ENDCHAR
STARTCHAR 41B4
ENCODING 16820
SWIDTH 1000 0
DWIDTH 16 0
BBX 14 14 1 0
BITMAP
0200
4108
7FFC
CC98
38F8
5F80
3FF0
7FF0
2210
5FF0
3FF8
3FF0
3FF8
03FC
ENDCHAR
STARTCHAR 41BF
ENCODING 16831
SWIDTH 1000 0
DWIDTH 16 0
BBX 15 15 1 -1
BITMAP
0200
8104
7FFE
868C
B8FC
4C50
69F8
49F8
79F8
0908
F9F4
4BFC
4860
49D8
8E46
ENDCHAR
STARTCHAR 41E6
ENCODING 16870
SWIDTH 1000 0
DWIDTH 16 0
BBX 16 15 0 -2
BITMAP
1860
1242
3FFE
6490
8100
1FFC
1108
1108
110A
FFFF
0180
0240
0630
180F
6000
ENDCHAR
STARTCHAR 41EE
ENCODING 16878
SWIDTH 1000 0
DWIDTH 16 0
BBX 14 14 1 -1
BITMAP
3080
2488
3FFC
4920
9600
18F0
2F80
3088
EFFC
A080
2080
2080
2088
2FF8
ENDCHAR
STARTCHAR 41F3
ENCODING 16883
SWIDTH 1000 0
DWIDTH 16 0
BBX 15 16 0 -2
BITMAP
1040
1964
1F7E
28A0
4510
83E0
027C
7F88
3FF0
0106
7FF8
00B0
00C4
0334
1C0E
6000
ENDCHAR
STARTCHAR 4207
ENCODING 16903
SWIDTH 1000 0
DWIDTH 16 0
BBX 15 15 1 -1
BITMAP
2080
34C4
7FFC
4920
8208
03FC
0210
3FF8
3FF0
2010
3FF0
0204
FFFE
0200
0200
ENDCHAR
STARTCHAR 420E
ENCODING 16910
SWIDTH 1000 0
DWIDTH 16 0
BBX 15 15 1 -1
BITMAP
2080
34C4
3FFC
4920
8A40
1234
FFFC
13E0
1008
1FFC
FFFC
0700
0AE0
321E
C200
ENDCHAR
STARTCHAR 4264
ENCODING 16996
SWIDTH 1000 0
DWIDTH 16 0
BBX 15 15 0 -1
BITMAP
1244
3FFE
6490
CF20
2B44
097E
7F48
2BC8
5948
FFB8
2210
3428
4E4C
3182
4000
ENDCHAR
STARTCHAR 42C6
ENCODING 17094
SWIDTH 1000 0
DWIDTH 16 0
BBX 15 15 0 -1
BITMAP
1000
1802
2BFE
6C00
2804
31FC
1904
2504
DD04
11FC
7900
5500
5100
9200
1400
ENDCHAR
STARTCHAR 42D6
ENCODING 17110
SWIDTH 1000 0
DWIDTH 16 0
BBX 16 14 0 0
BITMAP
1830
1024
A5FC
4826
3BFF
1424
3FFC
D022
7DFE
5422
57FF
5420
9020
1020
ENDCHAR
STARTCHAR 42DD
ENCODING 17117
SWIDTH 1000 0
DWIDTH 16 0
BBX 15 14 0 0
BITMAP
1844
2246
6524
2928
3008
2C60
7C42
D3FE
1088
7888
5590
5460
9078
1384
ENDCHAR
STARTCHAR 4302
ENCODING 17154
SWIDTH 1000 0
DWIDTH 16 0
BBX 15 14 0 -1
BITMAP
1A04
11FC
A504
69FC
3104
19FE
2520
DD2C
59FC
7514
55FC
9610
9214
15FE
ENDCHAR
STARTCHAR 432B
ENCODING 17195
SWIDTH 1000 0
DWIDTH 16 0
BBX 16 15 0 -2
BITMAP
1848
13E8
6FDF
2BD2
32CE
2BE0
7DFC
5504
15FC
79FC
55FC
5452
9092
131F
0400
ENDCHAR
STARTCHAR 4343
ENCODING 17219
SWIDTH 1000 0
DWIDTH 16 0
BBX 14 15 1 -1
BITMAP
0100
0190
07F8
0E30
3160
4D80
0600
7810
9FF0
6108
FFFC
2110
3118
3FF0
2010
ENDCHAR
STARTCHAR 43EE
ENCODING 17390
SWIDTH 1000 0
DWIDTH 16 0
BBX 13 14 1 -1
BITMAP
88C0
7880
4BF8
4888
7908
4910
4A70
4C08
7A10
4920
4940
8970
8A18
BC08
ENDCHAR
STARTCHAR 43F0
ENCODING 17392
SWIDTH 1000 0
DWIDTH 16 0
BBX 14 14 1 -2
BITMAP
8808
7BF8
4848
49C8
78A8
4888
4978
4E80
7860
48B0
4AC8
8A94
8C94
B8F0
ENDCHAR
STARTCHAR 4408
ENCODING 17416
SWIDTH 1000 0
DWIDTH 16 0
BBX 15 14 0 0
BITMAP
4410
3C12
25FE
2420
3C7E
2444
25FC
2544
3D7C
2544
257C
4544
65FE
9D00
ENDCHAR
STARTCHAR 4417
ENCODING 17431
SWIDTH 1000 0
DWIDTH 16 0
BBX 16 14 0 0
BITMAP
4460
3C46
25FC
2448
3C52
27FF
2430
244C
3CFC
2784
24FC
4484
64FC
9C84
ENDCHAR
STARTCHAR 441C
ENCODING 17436
SWIDTH 1000 0
DWIDTH 16 0
BBX 14 15 1 -1
BITMAP
8918
7920
49F8
4804
7A88
4AFC
4AF8
4AF8
7A88
4AF8
4BFC
4A00
89B8
BA04
0400
ENDCHAR
STARTCHAR 4422
ENCODING 17442
SWIDTH 1000 0
DWIDTH 16 0
BBX 14 15 1 -1
BITMAP
8900
7BFC
4C88
4EB8
7BE8
4888
4B70
4B08
7BFC
4C88
4AA8
4BE8
8888
B970
0200
ENDCHAR
STARTCHAR 4453
ENCODING 17491
SWIDTH 1000 0
DWIDTH 16 0
BBX 15 15 0 -1
BITMAP
0C30
0824
7FFC
0820
0FE0
0820
0FE0
3FFC
4016
DFF8
0630
39C8
3FFC
0084
7FFE
ENDCHAR
STARTCHAR 445B
ENCODING 17499
SWIDTH 1000 0
DWIDTH 16 0
BBX 14 14 1 -1
BITMAP
0408
1A34
F1E0
1120
1520
FF24
11FC
1120
1520
7D10
4554
4694
7DEC
4404
ENDCHAR
STARTCHAR 4476
ENCODING 17526
SWIDTH 1000 0
DWIDTH 16 0
BBX 15 14 0 -1
BITMAP
0830
0C22
3FFE
34FE
2C22
2DFE
2604
7CFE
2CA4
2CFC
2C84
4484
4484
9C9C
ENDCHAR
STARTCHAR 447A
ENCODING 17530
SWIDTH 1000 0
DWIDTH 16 0
BBX 16 14 0 -1
BITMAP
1804
11FC
3D04
257C
3524
357C
2F6C
FD6C
357C
3566
3536
462E
46FA
9E0B
ENDCHAR
STARTCHAR 4491
ENCODING 17553
SWIDTH 1000 0
DWIDTH 16 0
BBX 12 5 2 5
BITMAP
2080
10C0
1880
0910
FFF0
ENDCHAR
STARTCHAR 44B3
ENCODING 17587
SWIDTH 1000 0
DWIDTH 16 0
BBX 16 15 0 -1
BITMAP
0420
0632
7FFF
0420
0020
3FF0
043E
04C4
187C
6182
7FFF
0380
0570
190F
E100
ENDCHAR
STARTCHAR 44BE
ENCODING 17598
SWIDTH 1000 0
DWIDTH 16 0
BBX 15 14 1 -1
BITMAP
0860
0844
FFFC
0B40
0204
FFFC
0600
0D18
1890
28E0
C860
08B0
0F1C
7006
ENDCHAR
STARTCHAR 44D4
ENCODING 17620
SWIDTH 1000 0
DWIDTH 16 0
BBX 16 15 0 -2
BITMAP
0420
0632
7FFF
0420
012C
1FF0
0122
7FFF
0110
0FF8
70C0
BFFE
0080
0080
0780
ENDCHAR
STARTCHAR 4508
ENCODING 17672
SWIDTH 1000 0
DWIDTH 16 0
BBX 15 15 0 -1
BITMAP
0664
7FFE
0440
3FF8
0108
7FFC
1FF0
1010
1FF0
1FF0
1FF0
1010
0C70
700C
8000
ENDCHAR
STARTCHAR 450D
ENCODING 17677
SWIDTH 1000 0
DWIDTH 16 0
BBX 15 15 1 -2
BITMAP
0C60
0844
FFFE
0840
4008
3FF8
2110
3FF8
3FF8
2100
3FFC
5244
4B24
4904
8878
ENDCHAR
STARTCHAR 4525
ENCODING 17701
SWIDTH 1000 0
DWIDTH 16 0
BBX 15 14 1 -1
BITMAP
0CC4
FFFC
0880
0210
3FF0
FFFE
3FF0
32EC
2B28
3FF8
2608
2BC8
5228
A208
ENDCHAR
STARTCHAR 4543
ENCODING 17731
SWIDTH 1000 0
DWIDTH 16 0
BBX 15 14 1 0
BITMAP
0C64
FFFE
0840
90C0
78E0
5318
67F6
5BF0
4A10
4BF0
4FFC
71A0
4218
47F4
ENDCHAR
STARTCHAR 459D
ENCODING 17821
SWIDTH 1000 0
DWIDTH 16 0
BBX 13 14 2 -1
BITMAP
0040
03E0
3C00
C400
0420
7FF0
4420
4420
7FE0
4420
04C0
0420
FFD8
8008
ENDCHAR
STARTCHAR 45B8
ENCODING 17848
SWIDTH 1000 0
DWIDTH 16 0
BBX 14 14 1 0
BITMAP
1FF0
6894
FFFC
0858
7F68
0864
399C
0320
3FF0
2110
3FF0
0110
01F8
FE04
ENDCHAR
STARTCHAR 45E5
ENCODING 17893
SWIDTH 1000 0
DWIDTH 16 0
BBX 16 14 0 -1
BITMAP
1096
1124
9934
7EEE
5CAB
5949
5950
5BCC
7F28
152F
1128
1968
7558
8587
ENDCHAR
STARTCHAR 45EA
ENCODING 17898
SWIDTH 1000 0
DWIDTH 16 0
BBX 15 14 0 -2
BITMAP
0080
0084
3FFE
2328
3FFC
23E0
2A58
3924
2090
2FF8
2888
4FF8
408C
9F76
ENDCHAR
STARTCHAR 460F
ENCODING 17935
SWIDTH 1000 0
DWIDTH 16 0
BBX 14 14 1 0
BITMAP
0888
107C
7F48
5A50
5A50
5A60
5A58
5A48
5A44
5A44
5BC4
5C78
E040
0040
ENDCHAR
STARTCHAR 4641
ENCODING 17985
SWIDTH 1000 0
DWIDTH 16 0
BBX 15 15 0 -2
BITMAP
18E0
105C
185E
7FE8
042C
0832
124E
1FE0
745C
947E
13AC
103A
1072
118E
0200
ENDCHAR
STARTCHAR 4665
ENCODING 18021
SWIDTH 1000 0
DWIDTH 16 0
BBX 15 14 1 -1
BITMAP
3008
23FC
37FC
FC44
1778
1108
2F7C
28C0
7938
AFE6
27F8
2088
20C8
20B0
ENDCHAR
STARTCHAR 46A1
ENCODING 18081
SWIDTH 1000 0
DWIDTH 16 0
BBX 15 14 0 -1
BITMAP
1D04
1CFE
2494
2A94
7EFC
AA94
3E94
2AFC
2A20
3EF4
22D4
22CA
43CA
4E78
ENDCHAR
STARTCHAR 46AF
ENCODING 18095
SWIDTH 1000 0
DWIDTH 16 0
BBX 14 14 1 -1
BITMAP
040C
7C08
0488
FEC8
0488
7C88
0488
7C88
7C88
4488
4408
4408
7C48
4430
ENDCHAR
STARTCHAR 470C
ENCODING 18188
SWIDTH 1000 0
DWIDTH 16 0
BBX 15 14 0 0
BITMAP
184C
13C8
AC72
6FF4
3098
1BCC
2492
7FFE
1008
7BDC
566A
566A
93E8
1248
ENDCHAR
STARTCHAR 4764
ENCODING 18276
SWIDTH 1000 0
DWIDTH 16 0
BBX 15 14 0 -1
BITMAP
0C20
1044
2BFE
CE54
2588
38F8
318E
4AFA
1488
2CF8
54B0
24AC
4522
3AE0
ENDCHAR
STARTCHAR 47FD
ENCODING 18429
SWIDTH 1000 0
DWIDTH 16 0
BBX 15 14 0 0
BITMAP
0420
7E20
45FE
4420
4448
7C46
09BA
6CCC
4EA8
48A8
48A8
4AAA
F52A
860E
ENDCHAR
STARTCHAR 4816
ENCODING 18454
SWIDTH 1000 0
DWIDTH 16 0
BBX 16 14 0 0
BITMAP
8430
7D20
47BE
4454
4490
7C98
1324
7467
5C82
51FE
5104
5D04
E1FC
8104
ENDCHAR
STARTCHAR 4844
ENCODING 18500
SWIDTH 1000 0
DWIDTH 16 0
BBX 15 14 1 0
BITMAP
1210
15F8
FF10
1110
7D10
5510
7D10
5510
7D10
5114
FE14
1214
1416
141C
ENDCHAR
STARTCHAR 484E
ENCODING 18510
SWIDTH 1000 0
DWIDTH 16 0
BBX 15 15 0 -1
BITMAP
1800
1002
13FE
FF00
1000
7EFC
5284
7E84
5284
7EFC
5080
FF80
1080
1100
1100
ENDCHAR
STARTCHAR 48B5
ENCODING 18613
SWIDTH 1000 0
DWIDTH 16 0
BBX 14 14 0 -1
BITMAP
0088
027C
7F44
0048
0048
0150
7F48
1048
1044
1444
2244
277C
D940
0040
ENDCHAR
STARTCHAR 49B0
ENCODING 18864
SWIDTH 1000 0
DWIDTH 16 0
BBX 12 15 2 -1
BITMAP
0A10
F9F0
8910
F9F0
F9F0
8A10
9F10
BFD0
9F90
9F90
BFD0
BFD0
BFD0
A450
87F0
ENDCHAR
STARTCHAR 49E7
ENCODING 18919
SWIDTH 1000 0
DWIDTH 16 0
BBX 15 14 1 0
BITMAP
1110
F8A0
97FC
9048
A3F8
AFFC
9020
97E8
892C
8FFE
9128
E7DC
813C
874E
ENDCHAR
STARTCHAR 49FA
ENCODING 18938
SWIDTH 1000 0
DWIDTH 16 0
BBX 14 14 1 0
BITMAP
18D8
1090
1528
FFFC
2120
2328
25FC
3D20
6520
A5FC
A520
2520
3DFC
2100
ENDCHAR
STARTCHAR 4A04
ENCODING 18948
SWIDTH 1000 0
DWIDTH 16 0
BBX 14 14 1 0
BITMAP
1858
2C90
46A8
BAF8
7DA4
0AA8
FEF8
28A0
7EA0
6CF8
4CA0
7CA8
44FC
7C80
ENDCHAR
STARTCHAR 4A29
ENCODING 18985
SWIDTH 1000 0
DWIDTH 16 0
BBX 14 15 1 -1
BITMAP
0020
3FF0
4208
7FFC
FEE8
3EF0
0860
7C40
05F8
FD48
55F8
55F8
5548
9440
1040
ENDCHAR
STARTCHAR 4ABC
ENCODING 19132
SWIDTH 1000 0
DWIDTH 16 0
BBX 14 15 1 -1
BITMAP
1004
13FC
D440
95FC
9508
FDF8
9508
1108
D5F8
9508
95F8
FCD0
850C
8204
0400
ENDCHAR
STARTCHAR 4B3B
ENCODING 19259
SWIDTH 1000 0
DWIDTH 16 0
BBX 16 15 0 -2
BITMAP
0820
1438
122C
2D3E
4AE4
BE24
22F8
3E23
227C
23A6
3E1C
241A
223A
3D4A
4187
ENDCHAR
STARTCHAR 4BC2
ENCODING 19394
SWIDTH 1000 0
DWIDTH 16 0
BBX 15 14 1 0
BITMAP
1FF8
1FF0
1FF0
2968
2438
7EFC
7EFC
7FFE
B6DC
0908
FFFE
0380
1D78
E106
ENDCHAR
STARTCHAR 4BCA
ENCODING 19402
SWIDTH 1000 0
DWIDTH 16 0
BBX 16 14 0 -1
BITMAP
4400
3DFF
3404
2C04
AEF4
7F94
4294
FC94
3C94
24F4
3C04
2404
2404
2C3C
ENDCHAR
STARTCHAR 4BD2
ENCODING 19410
SWIDTH 1000 0
DWIDTH 16 0
BBX 15 14 1 -1
BITMAP
8880
78C4
497C
5A00
5CC0
FCFE
8908
F988
7F08
4908
7908
4908
4908
5978
ENDCHAR
STARTCHAR 4BE8
ENCODING 19432
SWIDTH 1000 0
DWIDTH 16 0
BBX 14 15 1 -1
BITMAP
0108
FFFC
1FE0
1FE0
4008
7FF8
4FC8
4FF8
0208
FFFC
0300
04C0
0870
700C
8000
ENDCHAR
STARTCHAR 4C17
ENCODING 19479
SWIDTH 1000 0
DWIDTH 16 0
BBX 15 15 1 -1
BITMAP
8414
FDF6
8C64
BDF4
FDFC
8404
8F84
9FE4
AFC4
8FC4
9FE4
9FE4
9FF4
9214
83FC
ENDCHAR
STARTCHAR 4C20
ENCODING 19488
SWIDTH 1000 0
DWIDTH 16 0
BBX 15 14 0 0
BITMAP
0830
9220
7EA4
4AFC
7EA4
4AFC
4AA4
7EA4
18FC
1E20
3D20
2B22
4802
8FFE
ENDCHAR
STARTCHAR 4CC4
ENCODING 19652
SWIDTH 1000 0
DWIDTH 16 0
BBX 16 14 0 -2
BITMAP
0010
1624
147E
75FC
5544
5E7C
5442
547F
547E
5642
555A
5D7A
E762
80DC
ENDCHAR
STARTCHAR 4CD1
ENCODING 19665
SWIDTH 1000 0
DWIDTH 16 0
BBX 16 14 0 -1
BITMAP
1830
1024
12FE
FFFC
2084
3EFC
2282
7EFF
A2FE
BEA2
235A
235A
2342
2F1C
ENDCHAR
STARTCHAR 4D07
ENCODING 19719
SWIDTH 1000 0
DWIDTH 16 0
BBX 15 14 1 -1
BITMAP
0420
7C40
7CFC
D6F8
FC88
24F8
7E80
28FE
76FC
FAC4
1574
1574
1D44
1138
ENDCHAR
STARTCHAR 4D77
ENCODING 19831
SWIDTH 1000 0
DWIDTH 16 0
BBX 15 14 0 -1
BITMAP
1808
11FC
1554
7DDC
1450
1654
FFDC
1954
15DC
7D54
11DC
1752
E842
807E
ENDCHAR
STARTCHAR 4E00
ENCODING 19968
SWIDTH 1000 0
DWIDTH 16 0
BBX 14 2 1 6
BITMAP
0008
FFFC
ENDCHAR
STARTCHAR 4E01
ENCODING 19969
SWIDTH 1000 0
DWIDTH 16 0
BBX 13 14 2 -1
BITMAP
0018
FFF8
0200
0200
0200
0200
0200
0200
0200
0200
0200
0200
1E00
0400
ENDCHAR
STARTCHAR 4E02
ENCODING 19970
SWIDTH 1000 0
DWIDTH 16 0
BBX 13 13 2 -1
BITMAP
0008
FFF8
0800
0800
1040
1FE0
1020
1040
2040
0040
0040
0040
0780
ENDCHAR
STARTCHAR 4E03
ENCODING 19971
SWIDTH 1000 0
DWIDTH 16 0
BBX 15 13 0 0
BITMAP
0400
0600
0400
0404
0406
07F8
FC00
0400
0400
0408
0408
0408
07FC
ENDCHAR
STARTCHAR 4E07
ENCODING 19975
SWIDTH 1000 0
DWIDTH 16 0
BBX 14 14 1 0
BITMAP
0008
FFFC
0400
0400
0420
07F0
0410
0C10
0810
0810
1020
2020
43E0
8040
ENDCHAR
STARTCHAR 4E08
ENCODING 19976
SWIDTH 1000 0
DWIDTH 16 0
BBX 14 15 1 -2
BITMAP
0180
0100
0100
0108
FFFC
0100
1100
0900
0900
0500
0200
0780
0C60
103C
E000
ENDCHAR
STARTCHAR 4E09
ENCODING 19977
SWIDTH 1000 0
DWIDTH 16 0
BBX 14 12 1 1
BITMAP
0010
7FF8
0000
0000
0000
0020
3FF0
0000
0000
0000
0008
FFFC
ENDCHAR
STARTCHAR 4E0A
ENCODING 19978
SWIDTH 1000 0
DWIDTH 16 0
BBX 14 12 1 1
BITMAP
0300
0200
0200
0200
0210
03F8
0200
0200
0200
0200
0208
FFFC
ENDCHAR
STARTCHAR 4E0B
ENCODING 19979
SWIDTH 1000 0
DWIDTH 16 0
BBX 14 13 1 0
BITMAP
0008
FFFC
0200
0200
0200
0380
0260
0210
0200
0200
0200
0200
0200
ENDCHAR
STARTCHAR 4E0D
ENCODING 19981
SWIDTH 1000 0
DWIDTH 16 0
BBX 13 13 1 0
BITMAP
0008
FFF8
0300
0200
0700
0AC0
1A20
2218
4208
8200
0200
0200
0200
ENDCHAR
STARTCHAR 4E0E
ENCODING 19982
SWIDTH 1000 0
DWIDTH 16 0
BBX 14 15 1 -2
BITMAP
0800
1000
1030
1FF0
1000
1040
3FC0
2040
0048
FFFC
0040
0040
0080
0F80
0100
ENDCHAR
STARTCHAR 4E0F
ENCODING 19983
SWIDTH 1000 0
DWIDTH 16 0
BBX 14 14 1 -1
BITMAP
0008
FFFC
0200
0200
2210
23F8
2210
4210
7FF0
4010
0010
0010
0210
01E0
ENDCHAR
STARTCHAR 4E10
ENCODING 19984
SWIDTH 1000 0
DWIDTH 16 0
BBX 13 14 1 0
BITMAP
0008
FFF8
0200
4220
33F0
2200
2210
7FF8
4010
4010
0010
0010
0210
01E0
ENDCHAR
STARTCHAR 4E11
ENCODING 19985
SWIDTH 1000 0
DWIDTH 16 0
BBX 14 13 1 0
BITMAP
0040
7FE0
0420
0420
0420
0840
0844
FFFC
0840
0840
0840
0848
FFFC
ENDCHAR
STARTCHAR 4E12
ENCODING 19986
SWIDTH 1000 0
DWIDTH 16 0
BBX 13 13 2 0
BITMAP
0020
FFF0
0010
0110
4210
3C10
0610
0920
30A0
4020
83E0
0010
FFF8
ENDCHAR
STARTCHAR 4E14
ENCODING 19988
SWIDTH 1000 0
DWIDTH 16 0
BBX 14 13 1 0
BITMAP
2020
1FF0
1020
1020
1020
1FE0
1020
1020
1020
1FE0
1020
1028
FFFC
ENDCHAR
STARTCHAR 4E15
ENCODING 19989
SWIDTH 1000 0
DWIDTH 16 0
BBX 14 13 1 1
BITMAP
0018
FFF8
0300
0200
0700
0EC0
0A20
1218
6208
8200
0200
0200
FFFC
ENDCHAR
STARTCHAR 4E16
ENCODING 19990
SWIDTH 1000 0
DWIDTH 16 0
BBX 15 14 1 0
BITMAP
3330
2220
2220
2224
FFFE
2220
2220
2220
2220
23E0
2220
2008
3FFC
2000
ENDCHAR
STARTCHAR 4E17
ENCODING 19991
SWIDTH 1000 0
DWIDTH 16 0
BBX 14 14 1 0
BITMAP
0300
3230
2220
2220
2228
FFFC
2220
2220
2220
2220
2220
2220
3FE0
2020
ENDCHAR
STARTCHAR 4E18
ENCODING 19992
SWIDTH 1000 0
DWIDTH 16 0
BBX 14 13 1 0
BITMAP
0030
01C0
1E00
1000
1000
1008
1FFC
1040
1040
1040
1040
1044
FFFC
ENDCHAR
STARTCHAR 4E19
ENCODING 19993
SWIDTH 1000 0
DWIDTH 16 0
BBX 14 14 1 0
BITMAP
0004
FFFC
0200
0208
7FFC
4208
4208
4588
4448
4828
5008
6008
4088
4078
ENDCHAR
STARTCHAR 4E1E
ENCODING 19998
SWIDTH 1000 0
DWIDTH 16 0
BBX 16 13 0 0
BITMAP
0010
1FF8
0030
00C0
0486
3EC8
04D0
04A0
0898
3086
C781
0004
7FFE
ENDCHAR
STARTCHAR 4E21
ENCODING 20001
SWIDTH 1000 0
DWIDTH 16 0
BBX 14 14 1 0
BITMAP
000C
FFFC
0200
0208
7FFC
4208
4A68
4A48
4A48
4A48
4FC8
4808
4008
4078
ENDCHAR
STARTCHAR 4E26
ENCODING 20006
SWIDTH 1000 0
DWIDTH 16 0
BBX 14 13 1 0
BITMAP
1060
0840
0440
0488
FFFC
0480
4498
2490
2490
14A0
14C0
0484
FFFC
ENDCHAR
STARTCHAR 4E28
ENCODING 20008
SWIDTH 1000 0
DWIDTH 16 0
BBX 2 13 7 0
BITMAP
C0
80
80
80
80
80
80
80
80
80
80
80
80
ENDCHAR
STARTCHAR 4E29
ENCODING 20009
SWIDTH 1000 0
DWIDTH 16 0
BBX 9 14 2 0
BITMAP
0180
3100
2100
2100
2100
2100
2100
2100
2100
3F00
E100
8100
0100
0100
ENDCHAR
STARTCHAR 4E2A
ENCODING 20010
SWIDTH 1000 0
DWIDTH 16 0
BBX 14 14 1 0
BITMAP
0300
0200
0500
0C80
0840
1330
221C
C200
0200
0200
0200
0200
0200
0200
ENDCHAR
STARTCHAR 4E2B
ENCODING 20011
SWIDTH 1000 0
DWIDTH 16 0
BBX 9 14 3 0
BITMAP
C180
2300
3200
1400
0C00
0800
0800
0800
0800
0800
0800
0800
0800
0800
ENDCHAR
STARTCHAR 4E2C
ENCODING 20012
SWIDTH 1000 0
DWIDTH 16 0
BBX 8 14 3 -1
BITMAP
03
02
42
22
12
12
02
06
1A
62
C2
02
02
02
ENDCHAR
STARTCHAR 4E2D
ENCODING 20013
SWIDTH 1000 0
DWIDTH 16 0
BBX 13 14 2 -1
BITMAP
0400
0600
0400
0410
FFF8
8410
8410
8410
FFF0
8410
0400
0400
0400
0400
ENDCHAR
STARTCHAR 4E2E
ENCODING 20014
SWIDTH 1000 0
DWIDTH 16 0
BBX 14 14 1 -1
BITMAP
0020
FFF0
0010
0610
0490
7FD0
0410
0410
0450
FFF4
0414
040C
040C
0404
ENDCHAR
STARTCHAR 4E2F
ENCODING 20015
SWIDTH 1000 0
DWIDTH 16 0
BBX 13 14 1 0
BITMAP
0300
0200
02E0
0700
7A10
02E0
0700
7A10
0238
03C0
7E00
8200
0200
0200
ENDCHAR
STARTCHAR 4E30
ENCODING 20016
SWIDTH 1000 0
DWIDTH 16 0
BBX 14 14 1 -1
BITMAP
0300
0200
0210
FFF8
0200
0210
7FF0
0200
0208
FFFC
0200
0200
0200
0200
ENDCHAR
STARTCHAR 4E31
ENCODING 20017
SWIDTH 1000 0
DWIDTH 16 0
BBX 13 15 2 -2
BITMAP
0100
0D80
C918
8910
8910
8910
8910
8910
F9F0
8910
0900
1100
2100
4100
8000
ENDCHAR
STARTCHAR 4E32
ENCODING 20018
SWIDTH 1000 0
DWIDTH 16 0
BBX 13 14 2 0
BITMAP
0600
0420
7FF0
4420
4420
7FE0
0410
FFF8
8410
8410
FFF0
8410
0400
0400
ENDCHAR
STARTCHAR 4E36
ENCODING 20022
SWIDTH 1000 0
DWIDTH 16 0
BBX 6 5 5 5
BITMAP
C0
20
18
0C
04
ENDCHAR
STARTCHAR 4E38
ENCODING 20024
SWIDTH 1000 0
DWIDTH 16 0
BBX 14 15 1 -2
BITMAP
0600
0400
0400
0440
FFE0
0440
0440
4440
3C40
0C40
0B48
1148
1048
604C
8078
ENDCHAR
STARTCHAR 4E39
ENCODING 20025
SWIDTH 1000 0
DWIDTH 16 0
BBX 15 15 1 -2
BITMAP
2010
1FF8
1010
1610
1110
1090
1014
FFFE
1010
1010
1010
2010
4110
40F0
8000
ENDCHAR
STARTCHAR 4E3B
ENCODING 20027
SWIDTH 1000 0
DWIDTH 16 0
BBX 13 13 1 0
BITMAP
0800
0400
0200
0210
FFF8
0200
0200
0220
7FF0
0200
0200
0208
FFF8
ENDCHAR
STARTCHAR 4E3C
ENCODING 20028
SWIDTH 1000 0
DWIDTH 16 0
BBX 14 13 1 -1
BITMAP
0C60
0840
0848
7FF8
0840
0A40
0940
0848
FFFC
0840
1040
1040
6040
ENDCHAR
STARTCHAR 4E3F
ENCODING 20031
SWIDTH 1000 0
DWIDTH 16 0
BBX 5 13 5 -1
BITMAP
18
10
10
10
10
10
10
10
20
20
20
40
80
ENDCHAR
STARTCHAR 4E40
ENCODING 20032
SWIDTH 1000 0
DWIDTH 16 0
BBX 12 12 2 -1
BITMAP
8000
4000
4000
2000
2000
1000
0800
0400
0200
0180
00E0
0030
ENDCHAR
STARTCHAR 4E42
ENCODING 20034
SWIDTH 1000 0
DWIDTH 16 0
BBX 14 13 1 0
BITMAP
2030
1020
1040
0840
08C0
0480
0300
0300
0380
04C0
1830
201C
C000
ENDCHAR
STARTCHAR 4E43
ENCODING 20035
SWIDTH 1000 0
DWIDTH 16 0
BBX 14 15 1 -2
BITMAP
0040
7FE0
0420
0440
0440
0448
047C
0C48
0888
0808
1008
1008
2018
41F0
8000
ENDCHAR
STARTCHAR 4E45
ENCODING 20037
SWIDTH 1000 0
DWIDTH 16 0
BBX 13 15 2 -2
BITMAP
0800
0C00
1100
1F80
1100
2100
2100
4200
4300
8500
0C80
0840
1020
6018
8010
ENDCHAR
STARTCHAR 4E47
ENCODING 20039
SWIDTH 1000 0
DWIDTH 16 0
BBX 14 13 1 0
BITMAP
00E0
0300
1C00
E400
0408
041C
1FE0
E400
0400
0408
0408
0408
07F8
ENDCHAR
STARTCHAR 4E48
ENCODING 20040
SWIDTH 1000 0
DWIDTH 16 0
BBX 13 13 1 0
BITMAP
0600
0400
0800
1000
2100
4200
8200
0480
0460
0820
0830
7FD8
4008
ENDCHAR
STARTCHAR 4E4B
ENCODING 20043
SWIDTH 1000 0
DWIDTH 16 0
BBX 14 12 1 1
BITMAP
0300
0200
0220
7FF0
0020
0040
0080
2100
2200
5C00
4C00
83FC
ENDCHAR
STARTCHAR 4E4D
ENCODING 20045
SWIDTH 1000 0
DWIDTH 16 0
BBX 14 14 1 0
BITMAP
0C00
0800
1008
1FFC
1200
2210
43F8
8200
0208
03F8
0200
0200
0200
0200
ENDCHAR
STARTCHAR 4E4E
ENCODING 20046
SWIDTH 1000 0
DWIDTH 16 0
BBX 14 13 1 -1
BITMAP
00F8
7F00
4118
3110
1920
0940
0104
FFFC
0100
0100
0100
0100
1F00
ENDCHAR
STARTCHAR 4E4F
ENCODING 20047
SWIDTH 1000 0
DWIDTH 16 0
BBX 14 13 1 1
BITMAP
0070
0780
FB00
0200
0240
7FE0
0040
0080
0100
2200
6C00
5800
87FC
ENDCHAR
STARTCHAR 4E51
ENCODING 20049
SWIDTH 1000 0
DWIDTH 16 0
BBX 15 14 1 -1
BITMAP
0030
01C8
1F00
6108
0D8C
0990
1160
6140
8520
0910
1108
2106
C100
0100
ENDCHAR
STARTCHAR 4E55
ENCODING 20053
SWIDTH 1000 0
DWIDTH 16 0
BBX 15 14 0 -1
BITMAP
0010
23E8
3CC0
2088
3FFC
2084
3FFE
2080
2FFC
2888
2888
4888
48B8
8080
ENDCHAR
STARTCHAR 4E56
ENCODING 20054
SWIDTH 1000 0
DWIDTH 16 0
BBX 14 14 1 -1
BITMAP
0020
07D0
7A00
0208
FFFC
0200
0A70
7A48
0A70
0A48
7A44
8A7C
0200
0200
ENDCHAR
STARTCHAR 4E57
ENCODING 20055
SWIDTH 1000 0
DWIDTH 16 0
BBX 14 14 1 0
BITMAP
03F0
7E00
0208
7FFC
1220
1224
FFFC
1220
1228
7FFC
0700
0AC0
323C
C200
ENDCHAR
STARTCHAR 4E58
ENCODING 20056
SWIDTH 1000 0
DWIDTH 16 0
BBX 14 14 1 0
BITMAP
03F0
7E00
0208
FFFC
0200
0A70
7A58
0A68
FF7C
0A80
0A40
1230
620C
8200
ENDCHAR
STARTCHAR 4E59
ENCODING 20057
SWIDTH 1000 0
DWIDTH 16 0
BBX 12 12 2 0
BITMAP
0080
FFC0
0180
0300
0400
0800
1000
2000
4010
8010
8010
7FF0
ENDCHAR
STARTCHAR 4E5A
ENCODING 20058
SWIDTH 1000 0
DWIDTH 16 0
BBX 11 12 4 1
BITMAP
C000
8000
8000
8000
8000
8000
8000
8000
8040
8040
8040
FFE0
ENDCHAR
STARTCHAR 4E5D
ENCODING 20061
SWIDTH 1000 0
DWIDTH 16 0
BBX 14 15 1 -1
BITMAP
0600
0400
0400
0440
7FE0
0440
0440
0440
0440
0848
0848
1048
2048
407C
8000
ENDCHAR
STARTCHAR 4E5E
ENCODING 20062
SWIDTH 1000 0
DWIDTH 16 0
BBX 13 14 1 -1
BITMAP
0800
1800
1018
1FF8
2000
4080
7FC0
8080
0300
0C00
1808
3008
2008
1FF8
ENDCHAR
STARTCHAR 4E5F
ENCODING 20063
SWIDTH 1000 0
DWIDTH 16 0
BBX 14 14 1 -1
BITMAP
0100
1900
1120
1130
13D0
1D10
F110
1110
1110
11E0
1108
1008
100C
1FF8
ENDCHAR
STARTCHAR 4E62
ENCODING 20066
SWIDTH 1000 0
DWIDTH 16 0
BBX 14 14 1 0
BITMAP
10C0
1080
D680
9480
9480
9480
9480
9480
9480
9488
FC88
8484
8084
00FC
ENDCHAR
STARTCHAR 4E69
ENCODING 20073
SWIDTH 1000 0
DWIDTH 16 0
BBX 13 14 2 -1
BITMAP
2000
2180
2100
2500
3D00
2100
2100
FD00
8900
8908
8908
8908
F908
89F8
ENDCHAR
STARTCHAR 4E71
ENCODING 20081
SWIDTH 1000 0
DWIDTH 16 0
BBX 14 14 1 -1
BITMAP
0200
0CC0
F080
1080
1280
FF80
1080
1080
1280
7E80
4288
4288
7E8C
42FC
ENDCHAR
STARTCHAR 4E73
ENCODING 20083
SWIDTH 1000 0
DWIDTH 16 0
BBX 15 14 1 -2
BITMAP
0200
0F60
F140
5A40
6A40
2640
FF40
0240
0C40
0F40
F844
0844
0844
787E
ENDCHAR
STARTCHAR 4E7E
ENCODING 20094
SWIDTH 1000 0
DWIDTH 16 0
BBX 15 14 1 0
BITMAP
1840
1240
FE84
10FC
7E80
4500
7EF8
4410
7C20
1444
FE84
1104
1106
11FC
ENDCHAR
STARTCHAR 4E80
ENCODING 20096
SWIDTH 1000 0
DWIDTH 16 0
BBX 15 14 0 0
BITMAP
0C80
0FC0
1090
3FF8
5FF8
9108
1FF8
3FFC
2108
3FF8
3FFC
210A
0102
01FE
ENDCHAR
STARTCHAR 4E82
ENCODING 20098
SWIDTH 1000 0
DWIDTH 16 0
BBX 14 15 1 -1
BITMAP
0200
5D60
6A40
4D40
7F40
A440
1D40
7F40
5540
6B40
5D48
6548
5948
5548
437C
ENDCHAR
STARTCHAR 4E85
ENCODING 20101
SWIDTH 1000 0
DWIDTH 16 0
BBX 5 14 5 -1
BITMAP
20
18
10
10
10
10
10
10
10
10
10
10
F0
20
ENDCHAR
STARTCHAR 4E86
ENCODING 20102
SWIDTH 1000 0
DWIDTH 16 0
BBX 12 14 2 -2
BITMAP
0020
FFF0
0020
00C0
0100
0200
0200
0200
0200
0200
0200
0200
4200
3E00
ENDCHAR
STARTCHAR 4E88
ENCODING 20104
SWIDTH 1000 0
DWIDTH 16 0
BBX 14 14 1 -2
BITMAP
0010
3FF8
0030
08C0
0700
0088
FFFC
0108
0110
0120
0100
0100
0100
1F00
ENDCHAR
STARTCHAR 4E89
ENCODING 20105
SWIDTH 1000 0
DWIDTH 16 0
BBX 15 15 1 -2
BITMAP
0800
0C80
1FC0
1080
2110
7FF8
8214
FFFE
0210
0210
7FF0
0200
0200
0200
1E00
ENDCHAR
STARTCHAR 4E8A
ENCODING 20106
SWIDTH 1000 0
DWIDTH 16 0
BBX 15 14 1 -2
BITMAP
0300
0208
7FFC
2220
1A30
0A50
3FF8
0214
FFFE
3FF0
0210
0200
0200
0E00
ENDCHAR
STARTCHAR 4E8B
ENCODING 20107
SWIDTH 1000 0
DWIDTH 16 0
BBX 15 14 1 -2
BITMAP
0300
0208
FFFC
3FF0
2210
3FF0
0210
7FF8
0214
FFFE
7FF0
0210
0200
0E00
ENDCHAR
STARTCHAR 4E8C
ENCODING 20108
SWIDTH 1000 0
DWIDTH 16 0
BBX 14 10 1 2
BITMAP
0030
7FF0
0000
0000
0000
0000
0000
0000
0008
FFFC
ENDCHAR
STARTCHAR 4E8D
ENCODING 20109
SWIDTH 1000 0
DWIDTH 16 0
BBX 13 13 2 -1
BITMAP
0020
7FF0
0000
0010
FFF8
0200
0200
0200
0200
0200
0200
0200
1E00
ENDCHAR
STARTCHAR 4E8E
ENCODING 20110
SWIDTH 1000 0
DWIDTH 16 0
BBX 14 14 1 -1
BITMAP
0008
7FF8
0100
0100
0100
0104
FFFC
0100
0100
0100
0100
0100
0100
0F00
ENDCHAR
STARTCHAR 4E91
ENCODING 20113
SWIDTH 1000 0
DWIDTH 16 0
BBX 14 13 1 0
BITMAP
0010
3FF0
0000
0000
0008
FFFC
0600
0400
0440
0820
0810
17E8
6808
ENDCHAR
STARTCHAR 4E92
ENCODING 20114
SWIDTH 1000 0
DWIDTH 16 0
BBX 14 13 1 1
BITMAP
0008
FFFC
0800
0800
0840
0FE0
0820
1020
1040
1FC0
1040
0048
FFFC
ENDCHAR
STARTCHAR 4E94
ENCODING 20116
SWIDTH 1000 0
DWIDTH 16 0
BBX 14 12 1 1
BITMAP
0008
7FFC
0200
0200
0420
3FF0
0420
0420
0420
0820
0824
FFFC
ENDCHAR
STARTCHAR 4E95
ENCODING 20117
SWIDTH 1000 0
DWIDTH 16 0
BBX 14 15 1 -2
BITMAP
0C60
0840
0840
0848
FFF8
0840
0840
0840
0848
FFFC
0840
1040
3040
4040
8000
ENDCHAR
STARTCHAR 4E98
ENCODING 20120
SWIDTH 1000 0
DWIDTH 16 0
BBX 14 13 1 1
BITMAP
0018
7FF8
0000
2020
1FF0
1020
1020
1FE0
1020
1FE0
1020
1000
FFFC
ENDCHAR
STARTCHAR 4E99
ENCODING 20121
SWIDTH 1000 0
DWIDTH 16 0
BBX 14 13 1 1
BITMAP
0008
FFFC
0800
0840
0FE0
0820
1E20
1140
1040
1640
0140
0044
FFFC
ENDCHAR
STARTCHAR 4E9B
ENCODING 20123
SWIDTH 1000 0
DWIDTH 16 0
BBX 15 13 0 0
BITMAP
0660
3444
2548
27D0
2460
2444
3FFE
C010
1FF8
0000
0000
0004
7FFE
ENDCHAR
STARTCHAR 4E9C
ENCODING 20124
SWIDTH 1000 0
DWIDTH 16 0
BBX 15 13 0 1
BITMAP
0004
7FFC
0240
0240
4248
3FFC
2248
2248
2248
3FF8
0240
0244
FFFE
ENDCHAR
STARTCHAR 4E9D
ENCODING 20125
SWIDTH 1000 0
DWIDTH 16 0
BBX 14 13 1 0
BITMAP
0200
0480
0860
3F90
1040
28A0
4498
BD68
0020
3FF0
0000
0008
FFFC
ENDCHAR
STARTCHAR 4E9E
ENCODING 20126
SWIDTH 1000 0
DWIDTH 16 0
BBX 15 13 1 1
BITMAP
0004
FFFC
0480
0480
0488
7CFC
4008
4008
4508
7CF8
0480
0484
FFFE
ENDCHAR
STARTCHAR 4E9F
ENCODING 20127
SWIDTH 1000 0
DWIDTH 16 0
BBX 14 13 1 1
BITMAP
0008
FFFC
0400
0F08
01FC
7948
4948
4930
4930
7938
114C
0E88
FFFC
ENDCHAR
STARTCHAR 4EA0
ENCODING 20128
SWIDTH 1000 0
DWIDTH 16 0
BBX 14 5 1 6
BITMAP
0300
0200
0200
0208
FFFC
ENDCHAR
STARTCHAR 4EA1
ENCODING 20129
SWIDTH 1000 0
DWIDTH 16 0
BBX 15 13 1 0
BITMAP
0180
0100
0104
FFFE
1000
1000
1000
1000
1000
1000
1000
1000
1FFC
ENDCHAR
STARTCHAR 4EA2
ENCODING 20130
SWIDTH 1000 0
DWIDTH 16 0
BBX 14 16 1 -2
BITMAP
0300
0200
0208
FFFC
0000
1040
0FE0
0840
0840
0840
0840
0848
1048
3044
407C
8000
ENDCHAR
STARTCHAR 4EA4
ENCODING 20132
SWIDTH 1000 0
DWIDTH 16 0
BBX 13 16 1 -2
BITMAP
0200
0300
0208
FFF8
0000
18C0
1020
20B0
50D0
8880
0500
0200
0580
1860
6018
8000
ENDCHAR
STARTCHAR 4EA5
ENCODING 20133
SWIDTH 1000 0
DWIDTH 16 0
BBX 13 16 1 -3
BITMAP
0300
0200
0208
FFF8
0200
0440
68C0
1180
0B30
0460
18C0
6180
8660
1830
6010
8000
ENDCHAR
STARTCHAR 4EA6
ENCODING 20134
SWIDTH 1000 0
DWIDTH 16 0
BBX 14 15 1 -1
BITMAP
0100
0100
0108
FFFC
0480
0480
34A0
2490
4488
488C
8884
1880
1080
2780
4000
ENDCHAR
STARTCHAR 4EA8
ENCODING 20136
SWIDTH 1000 0
DWIDTH 16 0
BBX 16 14 0 -1
BITMAP
01C0
0102
FFFF
0008
1FFC
1008
1FF8
0008
3FFC
0010
00E0
0080
0080
0780
ENDCHAR
STARTCHAR 4EAB
ENCODING 20139
SWIDTH 1000 0
DWIDTH 16 0
BBX 15 14 0 -2
BITMAP
0180
0104
7FFC
1FF8
1010
1FF0
0020
3FF8
0140
FFFE
0080
0080
0080
0780
ENDCHAR
STARTCHAR 4EAC
ENCODING 20140
SWIDTH 1000 0
DWIDTH 16 0
BBX 15 14 0 -1
BITMAP
01C0
0102
7FFE
0000
1FFC
1008
1008
1FF8
1088
08A0
1C98
1084
6082
8F80
ENDCHAR
STARTCHAR 4EAD
ENCODING 20141
SWIDTH 1000 0
DWIDTH 16 0
BBX 14 14 1 -2
BITMAP
0300
0208
7FF8
1FF0
1020
1020
1FC8
7FFC
4028
FFF0
0100
0100
0100
0F00
ENDCHAR
STARTCHAR 4EAE
ENCODING 20142
SWIDTH 1000 0
DWIDTH 16 0
BBX 14 15 1 -2
BITMAP
0300
0208
7FFC
1FF0
1020
1FE0
4008
7FFC
4008
C4D0
0880
0888
0888
30FC
C000
ENDCHAR
STARTCHAR 4EB0
ENCODING 20144
SWIDTH 1000 0
DWIDTH 16 0
BBX 15 14 0 -1
BITMAP
01C0
0102
7FFE
0000
1FFC
1008
1FF8
1008
1FF8
08A0
1C98
1084
2082
C780
ENDCHAR
STARTCHAR 4EB3
ENCODING 20147
SWIDTH 1000 0
DWIDTH 16 0
BBX 14 14 1 -1
BITMAP
0180
0108
7FFC
1FF0
1020
1FE0
7FFC
4048
87B0
3A08
03F4
FE08
0208
03F8
ENDCHAR
STARTCHAR 4EB6
ENCODING 20150
SWIDTH 1000 0
DWIDTH 16 0
BBX 14 15 1 -1
BITMAP
0300
0208
FFFC
0010
3FF8
2FD0
2850
2FD0
3FF0
2020
1FE0
1020
1FE0
1028
FFFC
ENDCHAR
STARTCHAR 4EB9
ENCODING 20153
SWIDTH 1000 0
DWIDTH 16 0
BBX 14 14 1 -1
BITMAP
0300
0208
7FF8
3FF0
3790
3FB0
3FB0
6498
7FFC
9FE8
1FE0
1FE0
1028
FFFC
ENDCHAR
STARTCHAR 4EBA
ENCODING 20154
SWIDTH 1000 0
DWIDTH 16 0
BBX 15 14 0 -1
BITMAP
0180
0100
0100
0100
0100
0180
0280
0280
0240
0420
0C30
1818
2006
C004
ENDCHAR
STARTCHAR 4EBB
ENCODING 20155
SWIDTH 1000 0
DWIDTH 16 0
BBX 9 14 2 0
BITMAP
0180
0100
0200
0400
0400
0E00
1400
2400
C400
0400
0400
0400
0400
0400
ENDCHAR
STARTCHAR 4EBC
ENCODING 20156
SWIDTH 1000 0
DWIDTH 16 0
BBX 14 13 1 1
BITMAP
0300
0300
0500
0480
0840
1020
2018
400C
8000
0000
0000
0010
7FF8
ENDCHAR
STARTCHAR 4EC0
ENCODING 20160
SWIDTH 1000 0
DWIDTH 16 0
BBX 16 14 0 -1
BITMAP
0C00
0830
0820
1020
1020
1822
37FF
5020
5020
9020
1020
1020
1020
1020
ENDCHAR
STARTCHAR 4EC1
ENCODING 20161
SWIDTH 1000 0
DWIDTH 16 0
BBX 15 14 0 0
BITMAP
0C00
0800
0804
13FC
1000
3800
3000
5000
9000
1000
1000
1006
17FE
1000
ENDCHAR
STARTCHAR 4EC2
ENCODING 20162
SWIDTH 1000 0
DWIDTH 16 0
BBX 14 14 1 0
BITMAP
18C0
1080
3080
2088
2FFC
7088
6088
A088
A088
2108
2108
2208
2410
28F0
ENDCHAR
STARTCHAR 4EC3
ENCODING 20163
SWIDTH 1000 0
DWIDTH 16 0
BBX 14 14 1 0
BITMAP
1800
1008
17FC
2040
2040
3040
6040
A040
A040
2040
2040
2040
2040
23C0
ENDCHAR
STARTCHAR 4EC4
ENCODING 20164
SWIDTH 1000 0
DWIDTH 16 0
BBX 15 14 0 -1
BITMAP
4004
3FFE
2000
20C0
2080
2080
2080
2080
20C0
2140
4120
4210
440C
9806
ENDCHAR
STARTCHAR 4EC6
ENCODING 20166
SWIDTH 1000 0
DWIDTH 16 0
BBX 14 14 1 0
BITMAP
0CC0
0880
0880
1080
1880
3080
50F0
5088
9084
1080
1080
1080
1080
1080
ENDCHAR
STARTCHAR 4EC7
ENCODING 20167
SWIDTH 1000 0
DWIDTH 16 0
BBX 15 16 0 -2
BITMAP
0800
0CC0
0880
0880
1090
1FF8
3090
3090
5090
9090
1110
1112
1212
1212
141E
0800
ENDCHAR
STARTCHAR 4EC8
ENCODING 20168
SWIDTH 1000 0
DWIDTH 16 0
BBX 15 14 0 -1
BITMAP
0800
0C10
09F0
1020
1020
1890
3110
5110
5110
9108
1208
1204
1402
1804
ENDCHAR
STARTCHAR 4ECA
ENCODING 20170
SWIDTH 1000 0
DWIDTH 16 0
BBX 15 15 0 -2
BITMAP
0180
0180
0240
0620
0410
1848
27E6
C000
1FF0
0010
0020
0020
0040
0040
0080
ENDCHAR
STARTCHAR 4ECB
ENCODING 20171
SWIDTH 1000 0
DWIDTH 16 0
BBX 14 15 1 -1
BITMAP
0300
0300
0480
0840
1020
2018
4C6C
8840
0840
0840
0840
1040
1040
2040
4000
ENDCHAR
STARTCHAR 4ECD
ENCODING 20173
SWIDTH 1000 0
DWIDTH 16 0
BBX 14 15 1 -1
BITMAP
1000
1820
1FF0
2110
2110
2120
3124
613C
A124
A204
2204
2204
2408
28F8
3010
ENDCHAR
STARTCHAR 4ECE
ENCODING 20174
SWIDTH 1000 0
DWIDTH 16 0
BBX 14 14 1 -1
BITMAP
1040
1860
1040
1040
1040
1040
1040
1860
24A0
2290
2290
4108
820C
0408
ENDCHAR
STARTCHAR 4ECF
ENCODING 20175
SWIDTH 1000 0
DWIDTH 16 0
BBX 15 14 0 0
BITMAP
0C00
0860
0840
1040
1880
3080
5080
50A0
9110
1108
1104
12FE
1702
1000
ENDCHAR
STARTCHAR 4ED0
ENCODING 20176
SWIDTH 1000 0
DWIDTH 16 0
BBX 14 15 1 -1
BITMAP
0200
0300
0500
0880
1840
3330
420C
8200
0210
FFF8
0200
0200
0200
0200
0200
ENDCHAR
STARTCHAR 4ED4
ENCODING 20180
SWIDTH 1000 0
DWIDTH 16 0
BBX 15 14 0 -1
BITMAP
0800
0C08
0BFC
1018
1020
1840
3044
57FE
9040
1040
1040
1040
1040
13C0
ENDCHAR
STARTCHAR 4ED5
ENCODING 20181
SWIDTH 1000 0
DWIDTH 16 0
BBX 15 15 0 -1
BITMAP
0800
0C60
0840
0840
1040
1844
37FE
3040
5040
9040
1040
1040
1044
17FC
1000
ENDCHAR
STARTCHAR 4ED6
ENCODING 20182
SWIDTH 1000 0
DWIDTH 16 0
BBX 15 14 0 0
BITMAP
0C30
09A0
0924
112E
1134
3BE4
3524
5124
9124
113C
1122
1102
11FE
1000
ENDCHAR
STARTCHAR 4ED7
ENCODING 20183
SWIDTH 1000 0
DWIDTH 16 0
BBX 16 14 0 0
BITMAP
0C30
0820
0820
1022
17FF
3820
3120
5120
90A0
1060
1060
10D8
110E
1603
ENDCHAR
STARTCHAR 4ED8
ENCODING 20184
SWIDTH 1000 0
DWIDTH 16 0
BBX 14 14 1 0
BITMAP
1830
1020
1020
2028
2FFC
3020
6820
A620
A320
2120
2020
2020
2020
21E0
ENDCHAR
STARTCHAR 4ED9
ENCODING 20185
SWIDTH 1000 0
DWIDTH 16 0
BBX 15 14 0 0
BITMAP
0C30
0820
0820
1020
1B26
3224
3224
5224
9224
1224
1224
1224
13FC
1204
ENDCHAR
STARTCHAR 4EDA
ENCODING 20186
SWIDTH 1000 0
DWIDTH 16 0
BBX 14 15 1 -1
BITMAP
0200
0300
0500
0880
0840
1330
620C
8204
3218
2210
2210
2210
2210
3FF0
2010
ENDCHAR
STARTCHAR 4EDD
ENCODING 20189
SWIDTH 1000 0
DWIDTH 16 0
BBX 15 13 0 1
BITMAP
0180
0280
0240
0460
0830
100C
2016
5FF0
8100
0100
0100
0108
7FFC
ENDCHAR
STARTCHAR 4EDE
ENCODING 20190
SWIDTH 1000 0
DWIDTH 16 0
BBX 15 14 0 -1
BITMAP
0C00
0804
0BFE
1044
1044
3A44
3244
5244
9484
1084
1084
110C
1278
1410
ENDCHAR
STARTCHAR 4EDF
ENCODING 20191
SWIDTH 1000 0
DWIDTH 16 0
BBX 15 14 0 -1
BITMAP
0C00
0818
08E0
1740
1040
1840
3044
57FE
5040
9040
1040
1040
1040
1040
ENDCHAR
STARTCHAR 4EE1
ENCODING 20193
SWIDTH 1000 0
DWIDTH 16 0
BBX 14 14 1 0
BITMAP
1980
1100
1208
23FC
2600
3420
6BF0
A020
A040
2080
2108
2208
220C
23FC
ENDCHAR
STARTCHAR 4EE3
ENCODING 20195
SWIDTH 1000 0
DWIDTH 16 0
BBX 15 14 0 0
BITMAP
0CC0
08B0
0888
1080
1886
33F8
5440
5040
9040
1024
1024
1014
100C
1006
ENDCHAR
STARTCHAR 4EE4
ENCODING 20196
SWIDTH 1000 0
DWIDTH 16 0
BBX 15 14 1 0
BITMAP
0300
0300
0480
0860
1070
2FCE
4004
8010
3FF8
0210
0210
0210
02F0
0200
ENDCHAR
STARTCHAR 4EE5
ENCODING 20197
SWIDTH 1000 0
DWIDTH 16 0
BBX 14 14 1 -1
BITMAP
0020
3010
2410
2220
2120
2120
2020
2020
2120
2650
3848
C08C
8304
0C00
ENDCHAR
STARTCHAR 4EEB
ENCODING 20203
SWIDTH 1000 0
DWIDTH 16 0
BBX 15 14 0 0
BITMAP
0C40
0860
0840
1080
1880
3130
3220
5440
9040
1090
1088
110C
13F6
1002
ENDCHAR
STARTCHAR 4EED
ENCODING 20205
SWIDTH 1000 0
DWIDTH 16 0
BBX 16 15 0 -1
BITMAP
0800
0C04
0BFC
1844
1044
1344
3944
30C4
5064
9094
108C
1087
110A
1288
1478
ENDCHAR
STARTCHAR 4EEE
ENCODING 20206
SWIDTH 1000 0
DWIDTH 16 0
BBX 15 15 1 -2
BITMAP
1000
1C04
13FC
2200
2200
2208
73FC
6288
A288
A290
2250
2420
2450
248C
2B06
ENDCHAR
STARTCHAR 4EF0
ENCODING 20208
SWIDTH 1000 0
DWIDTH 16 0
BBX 14 14 1 -1
BITMAP
1100
1188
267C
2448
2448
3448
6448
A448
A448
24C8
2748
2858
2040
2040
ENDCHAR
STARTCHAR 4EF1
ENCODING 20209
SWIDTH 1000 0
DWIDTH 16 0
BBX 14 14 1 -2
BITMAP
10C0
18C0
11C0
2120
2210
342C
6BE4
A000
A7F8
2010
2030
2020
2040
2040
ENDCHAR
STARTCHAR 4EF2
ENCODING 20210
SWIDTH 1000 0
DWIDTH 16 0
BBX 15 14 1 -1
BITMAP
1840
1060
1040
2844
27FE
3444
6444
A444
A7FC
2444
2040
2040
2040
2040
ENDCHAR
STARTCHAR 4EF5
ENCODING 20213
SWIDTH 1000 0
DWIDTH 16 0
BBX 16 14 0 0
BITMAP
0C80
0980
0904
11FE
1120
1A20
3420
5022
57FF
9020
1020
1020
1020
1020
ENDCHAR
STARTCHAR 4EF6
ENCODING 20214
SWIDTH 1000 0
DWIDTH 16 0
BBX 15 14 0 0
BITMAP
0C60
0940
0A40
1244
13FC
3A40
3440
5844
97FE
1040
1040
1040
1040
1040
ENDCHAR
STARTCHAR 4EF7
ENCODING 20215
SWIDTH 1000 0
DWIDTH 16 0
BBX 15 14 0 -1
BITMAP
0C60
08C0
08A0
1110
110C
3A06
3D98
5110
9110
1110
1110
1110
1210
1410
ENDCHAR
STARTCHAR 4EFB
ENCODING 20219
SWIDTH 1000 0
DWIDTH 16 0
BBX 15 14 0 0
BITMAP
0C08
0830
09C0
1640
1040
3840
3044
57FE
9040
1040
1040
1044
17FE
1000
ENDCHAR
STARTCHAR 4EFC
ENCODING 20220
SWIDTH 1000 0
DWIDTH 16 0
BBX 16 14 0 -1
BITMAP
0C00
0802
0BFE
1020
1020
1820
3024
53FE
9020
1020
1020
1022
17FF
1000
ENDCHAR
STARTCHAR 4EFD
ENCODING 20221
SWIDTH 1000 0
DWIDTH 16 0
BBX 16 14 0 0
BITMAP
0C10
0878
0810
1190
1108
1904
320E
55FF
5888
9088
1088
1088
1108
1670
ENDCHAR
STARTCHAR 4EFF
ENCODING 20223
SWIDTH 1000 0
DWIDTH 16 0
BBX 15 14 0 0
BITMAP
0C60
0840
0844
17FE
1080
1888
30FC
5084
9084
1188
1108
1108
1308
14F0
ENDCHAR
STARTCHAR 4F00
ENCODING 20224
SWIDTH 1000 0
DWIDTH 16 0
BBX 15 14 0 0
BITMAP
0C10
08F0
0810
1190
1108
1908
3264
5442
9840
1090
1088
1108
13F4
1404
ENDCHAR
STARTCHAR 4F01
ENCODING 20225
SWIDTH 1000 0
DWIDTH 16 0
BBX 15 13 1 1
BITMAP
0300
0280
0440
0820
1198
210E
C100
1910
11F0
1100
1100
1108
FFFC
ENDCHAR
STARTCHAR 4F03
ENCODING 20227
SWIDTH 1000 0
DWIDTH 16 0
BBX 16 14 0 0
BITMAP
0C08
0BFC
0808
1090
1060
1812
37FF
5022
9024
1028
1020
1020
1020
11E0
ENDCHAR
STARTCHAR 4F09
ENCODING 20233
SWIDTH 1000 0
DWIDTH 16 0
BBX 15 15 0 -2
BITMAP
0860
0840
1046
17FE
1000
39F8
3110
5110
9110
1110
1112
1212
1212
141E
0800
ENDCHAR
STARTCHAR 4F0A
ENCODING 20234
SWIDTH 1000 0
DWIDTH 16 0
BBX 14 15 1 -1
BITMAP
2000
1810
17F8
2090
2090
2094
7FFC
6090
A090
A7F0
2090
2080
2100
2200
2400
ENDCHAR
STARTCHAR 4F0B
ENCODING 20235
SWIDTH 1000 0
DWIDTH 16 0
BBX 15 15 0 -1
BITMAP
0810
0FF8
1110
1110
1110
1924
31FC
3184
5148
9228
1230
1238
1444
1982
0200
ENDCHAR
STARTCHAR 4F0D
ENCODING 20237
SWIDTH 1000 0
DWIDTH 16 0
BBX 16 14 0 -1
BITMAP
0C00
0804
0FFE
1080
1080
1888
33FC
5088
9088
1088
1088
108A
17FF
1000
ENDCHAR
STARTCHAR 4F0E
ENCODING 20238
SWIDTH 1000 0
DWIDTH 16 0
BBX 15 14 0 -2
BITMAP
0C60
0840
0844
17FE
1040
1848
37FC
5208
9110
10B0
1060
10E0
111C
1606
ENDCHAR
STARTCHAR 4F0F
ENCODING 20239
SWIDTH 1000 0
DWIDTH 16 0
BBX 14 14 1 0
BITMAP
18C0
10A0
1090
2090
2084
3FFC
6080
A0C0
A140
2120
2120
2210
240C
2804
ENDCHAR
STARTCHAR 4F10
ENCODING 20240
SWIDTH 1000 0
DWIDTH 16 0
BBX 15 14 0 0
BITMAP
0CC0
08B0
0888
1082
18FC
3788
308C
5048
9050
1062
1062
1092
130E
1C06
ENDCHAR
STARTCHAR 4F11
ENCODING 20241
SWIDTH 1000 0
DWIDTH 16 0
BBX 14 14 1 0
BITMAP
18C0
1080
1080
2088
2FFC
3080
61C0
A1A0
A2A0
2490
2488
2884
2080
2080
ENDCHAR
STARTCHAR 4F16
ENCODING 20246
SWIDTH 1000 0
DWIDTH 16 0
BBX 16 14 0 0
BITMAP
0C40
0880
0882
17FE
1080
1888
30FC
508C
9148
1158
1230
1238
14C6
1903
ENDCHAR
ENDFONT
